<svg width="303" height="89" viewBox="0 0 303 89" xmlns="http://www.w3.org/2000/svg"><title>logo</title><desc>Created with Sketch.</desc><g id="logo" transform="translate(-796 -776) translate(796 777)" fill="none" fill-rule="evenodd"><path d="M114.044 28.203l-1.14-3.31h-9.072l-1.138 3.31h-6.727l8.66-22.99h7.45l8.694 22.99h-6.726zm-5.692-17.13l-2.933 8.65h5.864l-2.932-8.65z" id="Fill-1" fill="#fff"/><path d="M127.084 26.238v8.307h-5.313v-22.99h5.314v1.93c1.31-1.585 3.035-2.344 4.933-2.344 4.174 0 7.314 3.103 7.314 8.72 0 5.655-3.14 8.757-7.313 8.757-1.863 0-3.553-.725-4.933-2.38zm6.83-6.377c0-2.48-1.586-4.03-3.656-4.03-1.14 0-2.52.62-3.174 1.516v5.066c.655.86 2.035 1.516 3.174 1.516 2.07 0 3.657-1.55 3.657-4.067z" id="Fill-2" fill="#fff"/><path d="M154.733 16.174h-7.9v12.03h-5.313v-16.65h13.213v4.62" id="Fill-3" fill="#fff"/><path d="M157.78 29.96c.38.207.898.31 1.312.31 1.208 0 1.967-.24 2.243-.93l.38-.896-6.625-16.89h5.59l3.76 10.548 3.794-10.547h5.623l-7.52 19.027c-1.346 3.514-3.864 4.308-7.038 4.376-.484 0-1.726-.103-2.278-.276l.76-4.722" id="Fill-4" fill="#fff"/><path d="M173.083 19.86c0-5.203 3.898-8.72 9.107-8.72 3.59 0 5.83 1.587 6.83 3.07l-3.448 3.205c-.655-.966-1.726-1.586-3.14-1.586-2.208 0-3.898 1.516-3.898 4.03 0 2.518 1.69 4.068 3.898 4.068 1.414 0 2.485-.688 3.14-1.62l3.45 3.24c-1 1.448-3.243 3.07-6.832 3.07-5.21 0-9.107-3.517-9.107-8.757" id="Fill-5" fill="#fff"/><path d="M97.243 46.81c0-7.1 5.382-11.892 12.454-11.892 5.554 0 8.52 3.137 10.04 6.17L114.63 43.5c-.758-1.826-2.725-3.342-4.933-3.342-3.76 0-6.417 2.895-6.417 6.652 0 3.756 2.657 6.65 6.417 6.65 2.208 0 4.175-1.515 4.934-3.342l5.106 2.413c-1.483 2.966-4.485 6.17-10.04 6.17-7.07 0-12.453-4.825-12.453-11.89" id="Fill-6" fill="#fff"/><path d="M121.118 58.287V41.64h11.316c3.553 0 5.244 2.17 5.244 4.273 0 1.965-1.242 3.31-2.864 3.792 1.898.38 3.244 2 3.244 4.033 0 2.447-1.76 4.55-5.313 4.55h-11.627zm11.213-11.512c0-.62-.448-1.034-1.138-1.034h-4.76v2.07h4.76c.69 0 1.14-.45 1.14-1.035zm.38 6.273c0-.655-.517-1.172-1.31-1.172h-4.97v2.31h4.97c.758 0 1.31-.448 1.31-1.138z" id="Fill-7" fill="#fff"/><path d="M150.57 58.287v-1.654c-1.036 1.24-3.037 2.068-5.176 2.068-2.553 0-5.727-1.722-5.727-5.48 0-4.032 3.174-5.342 5.727-5.342 2.208 0 4.174.69 5.175 1.93v-2c0-1.447-1.243-2.412-3.382-2.412-1.656 0-3.38.62-4.727 1.758l-1.896-3.343c2.14-1.826 5.003-2.584 7.555-2.584 4 0 7.76 1.482 7.76 6.652v10.41h-5.31zm0-4.274V52.53c-.553-.757-1.795-1.17-2.968-1.17-1.414 0-2.656.62-2.656 1.93s1.242 1.93 2.656 1.93c1.173 0 2.415-.414 2.967-1.207z" id="Fill-8" fill="#fff"/><path d="M164.246 56.323v8.306h-5.312V41.64h5.312v1.93c1.31-1.586 3.036-2.344 4.933-2.344 4.174 0 7.314 3.102 7.314 8.72 0 5.653-3.14 8.755-7.315 8.755-1.863 0-3.554-.723-4.934-2.377zm6.83-6.377c0-2.48-1.586-4.033-3.656-4.033-1.138 0-2.518.62-3.174 1.517v5.066c.656.862 2.036 1.517 3.174 1.517 2.07 0 3.657-1.55 3.657-4.067z" id="Fill-9" fill="#fff"/><path d="M186.363 46.81c0-7.1 5.38-11.892 12.454-11.892 5.554 0 8.522 3.137 10.04 6.17L203.75 43.5c-.76-1.826-2.725-3.342-4.933-3.342-3.76 0-6.417 2.895-6.417 6.652 0 3.756 2.657 6.65 6.417 6.65 2.208 0 4.174-1.515 4.934-3.342l5.107 2.413c-1.484 2.966-4.486 6.17-10.04 6.17-7.073 0-12.454-4.825-12.454-11.89" id="Fill-10" fill="#fff"/><path d="M209.615 49.946c0-4.825 3.656-8.72 8.866-8.72 4.934 0 8.52 3.62 8.52 9.27v1.14h-11.866c.31 1.55 1.76 2.964 4.174 2.964 1.174 0 3.21-.517 4.14-1.414l2.242 3.31c-1.655 1.48-4.415 2.205-6.968 2.205-5.14 0-9.107-3.343-9.107-8.754zm8.866-4.618c-2.31 0-3.208 1.653-3.415 2.86h6.865c-.137-1.172-1-2.86-3.45-2.86z" id="Fill-11" fill="#fff"/><path d="M234.238 56.323v8.306h-5.313V41.64h5.313v1.93c1.31-1.586 3.036-2.344 4.933-2.344 4.175 0 7.315 3.102 7.315 8.72 0 5.653-3.14 8.755-7.314 8.755-1.862 0-3.553-.723-4.932-2.377zm6.83-6.377c0-2.48-1.586-4.033-3.657-4.033-1.137 0-2.517.62-3.172 1.517v5.066c.655.862 2.035 1.517 3.173 1.517 2.072 0 3.658-1.55 3.658-4.067z" id="Fill-12" fill="#fff"/><path d="M248.675 58.287V41.64h11.315c3.554 0 5.244 2.17 5.244 4.273 0 1.965-1.243 3.31-2.864 3.792 1.897.38 3.242 2 3.242 4.033 0 2.447-1.76 4.55-5.312 4.55h-11.625zm11.21-11.512c0-.62-.447-1.034-1.137-1.034h-4.76v2.07h4.76c.69 0 1.138-.45 1.138-1.035zm.38 6.273c0-.655-.516-1.172-1.31-1.172h-4.968v2.31h4.968c.76 0 1.31-.448 1.31-1.138z" id="Fill-13" fill="#fff"/><path d="M268.338 58.287V41.64h5.312v8.72l5.934-8.72h5.347v16.647h-5.31V49.12l-6.21 9.167h-5.072" id="Fill-14" fill="#fff"/><path d="M286.986 49.946c0-5.205 3.9-8.72 9.107-8.72 3.59 0 5.83 1.586 6.83 3.067l-3.448 3.206c-.656-.966-1.725-1.587-3.14-1.587-2.208 0-3.898 1.517-3.898 4.033 0 2.516 1.69 4.067 3.898 4.067 1.415 0 2.484-.69 3.14-1.62l3.45 3.24c-1 1.448-3.243 3.068-6.832 3.068-5.208 0-9.107-3.515-9.107-8.754" id="Fill-15" fill="#fff"/><path d="M81.92 5.26v17.07L53.083 51.087c-2.2 2.222-5.247 3.608-8.62 3.627-6.75.042-12.256-5.396-12.296-12.14-.02-3.37 1.33-6.43 3.53-8.654l28.58-28.66h17.64" id="Fill-16" fill="#DB322A"/><path d="M59.922 57.515c-.043.043-.09.08-.132.123-3.945 4.443-9.672 7.277-16.085 7.316-11.972.07-21.735-9.57-21.806-21.53-.038-6.407 2.728-12.163 7.13-16.154.042-.044.077-.09.12-.134L54.605 1.4C51.002.456 47.222-.045 43.32-.023 19.375.12.078 19.627.22 43.552c.143 23.92 19.67 43.2 43.614 43.058 23.945-.14 43.24-19.65 43.1-43.573-.023-3.898-.57-7.67-1.558-11.256L59.922 57.516" id="Fill-17" fill="#fff"/><path d="M97.284 67.808H302.84v.627H97.283v-.627z" id="Fill-18" fill="#fff"/><path d="M102.797 86.345V79.55h-3.953v6.795h-1.782v-8.363h7.53v8.363h-1.795" id="Fill-19" fill="#fff"/><path d="M106.23 86.345v-8.363h3.916c1.82 0 2.81 1.23 2.81 2.696 0 1.454-1.003 2.696-2.81 2.696h-2.134v2.97h-1.782zm4.907-5.667c0-.702-.527-1.13-1.23-1.13h-1.895v2.26h1.895c.703 0 1.23-.44 1.23-1.13z" id="Fill-20" fill="#fff"/><path d="M113.758 82.17c0-2.52 1.844-4.325 4.367-4.325 2.535 0 4.38 1.804 4.38 4.325 0 2.52-1.845 4.325-4.38 4.325-2.523 0-4.367-1.805-4.367-4.325zm6.914 0c0-1.567-1.003-2.746-2.547-2.746-1.543 0-2.535 1.18-2.535 2.746 0 1.555.992 2.746 2.535 2.746 1.544 0 2.547-1.19 2.547-2.746z" id="Fill-21" fill="#fff"/><path d="M130.986 86.345V80.49l-2.36 5.855h-.777l-2.36-5.855v5.855h-1.783v-8.363h2.498l2.033 5.053 2.033-5.053h2.51v8.363h-1.794" id="Fill-22" fill="#fff"/><path d="M136.218 77.982v2.972h2.133c1.81 0 2.813 1.24 2.813 2.695 0 1.467-.992 2.695-2.812 2.695h-3.914v-8.363h1.782zm0 4.54v2.256h1.895c.703 0 1.23-.427 1.23-1.13 0-.688-.527-1.127-1.23-1.127h-1.895zm5.647-4.54h1.795v8.363h-1.795v-8.363z" id="Fill-23" fill="#fff"/><path d="M155.995 77.982v8.363h-10.68v-8.363h1.782v6.796h2.66v-6.796h1.795v6.796h2.648v-6.796h1.795" id="Fill-24" fill="#fff"/><path d="M157.072 84.916c.84 0 1.33-.452 1.594-2.658l.49-4.276h5.948v8.363h-1.795V79.55h-2.548l-.327 2.833c-.4 3.473-1.656 4.112-3.363 4.112v-1.58" id="Fill-25" fill="#fff"/><path d="M166.747 86.345v-8.363h5.923v1.567h-4.14v1.768h4.052v1.567h-4.053v1.893h4.14v1.567h-5.923" id="Fill-26" fill="#fff"/><path d="M179.867 86.345v-3.51h-3.953v3.51h-1.782v-8.363h1.782v3.286h3.953v-3.286h1.794v8.363h-1.793" id="Fill-27" fill="#fff"/><path d="M189.04 86.345v-3.51h-3.953v3.51h-1.783v-8.363h1.783v3.286h3.952v-3.286h1.794v8.363h-1.795" id="Fill-28" fill="#fff"/><path d="M194.26 77.982v2.972h2.132c1.807 0 2.81 1.24 2.81 2.695 0 1.467-.99 2.695-2.81 2.695h-3.915v-8.363h1.782zm0 4.54v2.256h1.894c.703 0 1.23-.427 1.23-1.13 0-.688-.527-1.127-1.23-1.127h-1.895zm5.646-4.54h1.794v8.363h-1.794v-8.363z" id="Fill-29" fill="#fff"/><path d="M203.356 86.345v-8.363h1.782v5.404l3.877-5.404h1.832v8.363h-1.78V80.74l-3.992 5.605h-1.72zm3.752-8.75c-.89 0-1.695-.428-2.208-1.105l.702-.59c.34.478.854.78 1.506.78.628 0 1.142-.29 1.493-.78l.705.59c-.503.677-1.293 1.104-2.197 1.104z" id="Fill-30" fill="#fff"/><path d="M221.374 86.345l-2.095-3.06-2.11 3.06h-2.12l3.037-4.288-2.85-4.075h2.12l1.922 2.86 1.894-2.86h2.145l-2.85 4.063 3.037 4.3h-2.133" id="Fill-31" fill="#fff"/><path d="M223.463 82.17c0-2.52 1.845-4.325 4.367-4.325 2.535 0 4.38 1.804 4.38 4.325 0 2.52-1.845 4.325-4.38 4.325-2.522 0-4.367-1.805-4.367-4.325zm6.914 0c0-1.567-1.003-2.746-2.547-2.746-1.544 0-2.535 1.18-2.535 2.746 0 1.555.99 2.746 2.535 2.746 1.544 0 2.547-1.19 2.547-2.746z" id="Fill-32" fill="#fff"/><path d="M232.69 84.916c.84 0 1.33-.452 1.594-2.658l.49-4.276h5.948v8.363h-1.796V79.55h-2.546l-.327 2.833c-.4 3.473-1.656 4.112-3.363 4.112v-1.58" id="Fill-33" fill="#fff"/><path d="M241.78 84.916c.854-.113 1.33-.452 1.594-2.658l.49-4.276h5.95v6.796h.75v3.11h-1.78v-1.543h-5.222v1.543h-1.78v-2.972zm2.347-.138h3.89v-5.23h-2.547l-.327 2.835c-.125 1.13-.488 1.906-1.016 2.395z" id="Fill-34" fill="#fff"/><path d="M251.71 86.345v-8.363h1.784v5.404l3.877-5.404h1.834v8.363h-1.783V80.74l-3.99 5.605h-1.72" id="Fill-35" fill="#fff"/><path d="M266.587 86.345v-3.51h-3.952v3.51h-1.782v-8.363h1.782v3.286h3.952v-3.286h1.795v8.363h-1.795" id="Fill-36" fill="#fff"/><path d="M270.026 86.345v-8.363h5.923v1.567h-4.143v6.795h-1.78" id="Fill-37" fill="#fff"/><path d="M282.535 86.345V79.55h-2.447V77.98h6.676v1.567h-2.435v6.795h-1.795" id="Fill-38" fill="#fff"/><path d="M292.787 86.345l-2.535-3.347-.652.777v2.57h-1.783v-8.363h1.783v3.736l2.96-3.736h2.197l-3.326 3.925 3.553 4.438h-2.196" id="Fill-39" fill="#fff"/><path d="M294.79 82.17c0-2.57 1.945-4.325 4.454-4.325 1.845 0 2.912 1.002 3.502 2.043l-1.532.753c-.35-.677-1.103-1.216-1.97-1.216-1.518 0-2.623 1.167-2.623 2.746 0 1.58 1.106 2.746 2.624 2.746.867 0 1.62-.527 1.97-1.216l1.532.74c-.603 1.04-1.657 2.055-3.502 2.055-2.51 0-4.455-1.754-4.455-4.325" id="Fill-40" fill="#fff"/></g></svg>