<svg width="256" height="86" viewBox="0 0 256 86" xmlns="http://www.w3.org/2000/svg"><title>logo</title><desc>Created with Sketch.</desc><defs><linearGradient x1="0%" y1="50%" y2="50%" id="a"><stop stop-color="#254189" offset="0%"/><stop stop-color="#34A7DC" offset="100%"/></linearGradient><linearGradient x1="100%" y1="50%" x2="0%" y2="50%" id="b"><stop stop-color="#E32F2F" offset="0%"/><stop stop-color="#981F25" offset="100%"/></linearGradient></defs><g transform="translate(-796 -778) translate(797 779)" fill="none"><path d="M58.338 56.107c-.04.042-.088.078-.13.12-3.893 4.34-9.526 7.087-15.814 7.087-11.742 0-21.26-9.52-21.26-21.26 0-6.29 2.746-11.923 7.087-15.815.04-.043.077-.09.12-.132L53.45.995C49.925.047 46.22-.465 42.394-.465 18.91-.466-.126 18.57-.126 42.052s19.036 42.52 42.52 42.52c23.483 0 42.52-19.037 42.52-42.52 0-3.826-.515-7.53-1.462-11.058L58.338 56.107" fill="url(#a)"/><path d="M63.987 5.426l-29.11 29.11c-1.924 1.924-3.113 4.582-3.113 7.517 0 5.87 4.76 10.63 10.63 10.63 2.935 0 5.592-1.19 7.516-3.113l29.11-29.11V5.425H63.988" fill="url(#b)"/><path d="M105.965 66.307h5.554v7.636h-.95v-6.796h-3.655v6.796h-.95v-7.636" fill="#fff"/><path d="M125.702 68.336h.873l1.975 2.75 1.93-2.75h.874v5.607h-.873V69.69l-1.734 2.43h-.425l-1.745-2.43v4.253h-.873v-5.607" fill="#fff"/><path d="M141.132 68.336h.873v4.844h2.084v-4.844h.872v4.844h2.083v-4.844h.873v5.607h-6.786v-5.607" fill="#fff"/><path d="M149.114 73.147h.087c.81 0 1.07-.676 1.07-1.91v-2.9h4.004v5.606h-.873V69.1h-2.3v2.127c0 1.854-.72 2.716-1.78 2.716h-.206v-.796" fill="#fff"/><path d="M161.98 68.336h.873v2.422h2.87v-2.422h.873v5.607h-.873v-2.42h-2.87v2.42h-.872v-5.607" fill="#fff"/><path d="M168.403 68.336h.873v2.422h2.87v-2.422h.873v5.607h-.874v-2.42h-2.87v2.42h-.873v-5.607" fill="#fff"/><path d="M182.798 68.336h.873v4.266l2.98-4.266h.872v5.607h-.873V69.69l-2.98 4.253h-.872v-5.607zm.655-2.117v-.132h.764v.12c0 .523.338.84.937.84.6 0 .95-.317.95-.84v-.12h.763v.13c0 .95-.71 1.496-1.713 1.496-1.003 0-1.7-.546-1.7-1.495z" fill="#fff"/><path d="M194.5 71.117l1.82 2.41v.416h-.785l-1.593-2.16-1.548 2.16h-.787v-.415l1.8-2.41-1.777-2.368v-.414h.796l1.54 2.095 1.504-2.094h.797v.414l-1.768 2.367" fill="#fff"/><path d="M202.85 73.147h.087c.808 0 1.07-.676 1.07-1.91v-2.9h4.004v5.606h-.872V69.1h-2.302v2.127c0 1.854-.72 2.716-1.778 2.716h-.207v-.796" fill="#fff"/><path d="M216.678 68.336h.873v4.266l2.98-4.266h.872v5.607h-.873V69.69l-2.98 4.253h-.872v-5.607" fill="#fff"/><path d="M223.21 68.336h.872v2.422h2.87v-2.422h.872v5.607h-.873v-2.42h-2.868v2.42h-.873v-5.607" fill="#fff"/><path d="M229.632 68.336h3.666v.764h-2.793v4.843h-.873v-5.607" fill="#fff"/><path d="M238.292 67.147h-2.324v-.84h5.586v.84h-2.313v6.796h-.948v-6.796" fill="#fff"/><path d="M242.815 66.307h.95v3.382h1.22l2.216-3.383h.885v.316l-2.27 3.437 2.412 3.567v.316h-.94l-2.29-3.415h-1.232v3.415h-.95v-7.636" fill="#fff"/><path d="M249.163 71.357v-2.465c0-1.735 1.08-2.75 2.924-2.75 1.473 0 2.78.82 2.78 2.597v.11h-.948v-.11c0-1.19-.96-1.724-1.845-1.724-1.287 0-1.964.676-1.964 1.81v2.597c0 1.135.678 1.81 1.965 1.81.884 0 1.844-.534 1.844-1.722v-.11h.948v.11c0 1.78-1.308 2.597-2.78 2.597-1.845 0-2.925-1.014-2.925-2.75" fill="#fff"/><path d="M135.953 14.456h8.57v2.705h-5.458V27h-3.112V14.457" fill="#fff"/><path d="M148.76 29.707L149.935 27l-4.31-11.083v-1.46h2.873l2.97 8.306 2.8-8.307h2.825v1.46l-5.794 14.916h-2.537v-1.125" fill="#fff"/><path d="M158.6 22.644v-3.83c0-2.874 2.106-4.645 5.314-4.645 3.112 0 5.147 1.698 5.147 4.69v.145h-3.11v-.144c0-1.124-.72-1.866-2.036-1.866-1.532 0-2.203.718-2.203 1.77v3.927c0 1.055.672 1.773 2.204 1.773 1.316 0 2.035-.742 2.035-1.843v-.24h3.11v.168c0 2.945-2.13 4.74-5.146 4.74-3.208 0-5.315-1.77-5.315-4.644" fill="#fff"/><path d="M106.127 47.177v-5.41c0-3.808 2.322-6.034 6.584-6.034 3.305 0 6.225 1.724 6.225 5.865v.24h-3.4v-.24c0-1.987-1.483-2.753-3.04-2.753-2.01 0-2.97 1.03-2.97 2.68v5.89c0 1.653.96 2.683 2.97 2.683 1.557 0 3.04-.72 3.04-2.754v-.24h3.4v.24c0 4.142-2.92 5.866-6.224 5.866-4.26 0-6.583-2.227-6.583-6.033" fill="#fff"/><path d="M162.597 47.177v-5.41c0-3.808 2.322-6.034 6.584-6.034 3.304 0 6.225 1.724 6.225 5.865v.24h-3.4v-.24c0-1.987-1.483-2.753-3.04-2.753-2.01 0-2.97 1.03-2.97 2.68v5.89c0 1.653.96 2.683 2.97 2.683 1.557 0 3.04-.72 3.04-2.754v-.24h3.4v.24c0 4.142-2.92 5.866-6.224 5.866-4.26 0-6.583-2.227-6.583-6.033" fill="#fff"/><path d="M219.066 40.306h3.113v7.732l4.81-7.732h3.113V52.85h-3.112v-7.733l-4.81 7.734h-3.114V40.307" fill="#fff"/><path d="M233.046 48.493v-3.83c0-2.873 2.107-4.645 5.315-4.645 3.114 0 5.15 1.7 5.15 4.693v.144h-3.114v-.143c0-1.125-.718-1.867-2.035-1.867-1.53 0-2.202.72-2.202 1.772v3.926c0 1.055.67 1.773 2.203 1.773 1.318 0 2.036-.743 2.036-1.843v-.24h3.113v.167c0 2.946-2.132 4.74-5.15 4.74-3.207 0-5.314-1.77-5.314-4.644" fill="#fff"/><path d="M118.094 70.267v1.746c0 1.34-.83 2.06-2.008 2.06-.83 0-1.44-.413-1.778-.817v2.434h-.873v-7.354h.524l.304.74c.382-.435 1.014-.87 1.855-.87 1.133 0 1.974.72 1.974 2.06zm-.873 1.68v-1.615c0-.796-.512-1.33-1.254-1.33-.698 0-1.266.457-1.658.883v2.51c.392.424.95.883 1.647.883.753 0 1.266-.535 1.266-1.33z" fill="#fff"/><path d="M119.486 71.99v-1.702c0-1.178.786-2.083 2.335-2.083 1.55 0 2.326.905 2.326 2.083v1.702c0 1.18-.775 2.084-2.325 2.084-1.548 0-2.334-.905-2.334-2.084zm3.786-.032V70.32c0-.73-.468-1.32-1.45-1.32-.96 0-1.463.58-1.463 1.32v1.638c0 .74.5 1.32 1.46 1.32.984 0 1.452-.59 1.452-1.32z" fill="#fff"/><path d="M133.16 68.336h.873v1.93h1.735c1.113 0 1.778.71 1.778 1.844 0 1.135-.665 1.833-1.778 1.833h-2.608v-5.607zm2.487 4.844c.6 0 1.027-.393 1.027-1.07 0-.687-.426-1.08-1.015-1.08h-1.627v2.15h1.614zm2.805-4.844h.872v5.607h-.872v-5.607z" fill="#fff"/><path d="M155.83 72.013v-1.725c0-1.243.874-2.083 2.336-2.083 1.418 0 2.27.807 2.27 2.062v1.167h-3.732v.556c0 .753.502 1.288 1.462 1.288.84 0 1.266-.415 1.364-1.014h.872c-.097 1.1-.883 1.81-2.236 1.81-1.462 0-2.335-.807-2.335-2.06zm3.733-1.288v-.458c0-.73-.48-1.266-1.43-1.266-.927 0-1.43.524-1.43 1.267v.458h2.86z" fill="#fff"/><path d="M174.826 68.336h.873v1.93h1.734c1.113 0 1.778.71 1.778 1.844 0 1.135-.665 1.833-1.778 1.833h-2.608v-5.607zm2.488 4.844c.6 0 1.026-.393 1.026-1.07 0-.687-.426-1.08-1.015-1.08H175.7v2.15h1.614zm2.804-4.844h.872v5.607h-.872v-5.607z" fill="#fff"/><path d="M197.246 71.99v-1.702c0-1.178.786-2.083 2.335-2.083 1.55 0 2.325.905 2.325 2.083v1.702c0 1.18-.774 2.084-2.324 2.084-1.548 0-2.334-.905-2.334-2.084zm3.786-.032V70.32c0-.73-.468-1.32-1.45-1.32-.96 0-1.463.58-1.463 1.32v1.638c0 .74.5 1.32 1.46 1.32.984 0 1.452-.59 1.452-1.32z" fill="#fff"/><path d="M209.262 73.18h.513c.425-.458.71-1.19.71-2.477v-2.367h4.036v4.844h.84v2.17h-.86v-1.407h-4.376v1.408h-.862v-2.17zm4.386 0V69.1h-2.334v1.734c0 1.1-.262 1.812-.58 2.346h2.914z" fill="#fff"/><path d="M104.93 25.876l5.794-15.634h3.328l5.817 15.634V27h-3.352l-1.34-3.925h-5.723L108.065 27h-3.135v-1.124zm9.218-5.626l-1.82-5.46-1.868 5.46h3.688z" fill="#fff"/><path d="M121.926 14.456h1.796l.91 1.245c.86-.813 1.915-1.53 3.734-1.53 2.443 0 4.453 1.46 4.453 4.595v3.926c0 3.138-2.01 4.598-4.454 4.598-1.748 0-2.8-.718-3.328-1.173v4.717h-3.112V14.456zm3.112 8.69c.623.623 1.46 1.317 2.682 1.317.958 0 1.987-.694 1.987-2.01v-3.448c0-1.317-1.03-2.01-1.987-2.01-1.22 0-2.06.693-2.682 1.315v4.837z" fill="#fff"/><path d="M121.95 40.306h5.794c2.634 0 4.358.957 4.358 3.35 0 1.246-.48 2.132-1.246 2.73 1.173.552 1.82 1.413 1.82 2.778 0 2.97-1.892 3.687-4.74 3.687h-5.986V40.307zm5.674 5.075c.862 0 1.197-.55 1.197-1.172 0-.72-.334-1.197-1.196-1.197h-2.562v2.37h2.562zm.503 4.766c.886 0 1.222-.55 1.222-1.198 0-.742-.337-1.197-1.223-1.197h-3.065v2.396h3.065z" fill="#fff"/><path d="M134.66 49.403c0-2.586 1.677-4.07 5.076-4.07h2.586v-.79c0-1.077-.622-1.7-2.01-1.7-1.414 0-2.01.623-2.01 1.436h-3.042c0-2.466 1.604-4.262 5.05-4.262 3.45 0 5.125 1.796 5.125 4.31v8.523h-1.795l-.91-1.22c-.91.838-1.988 1.508-3.855 1.508-2.25 0-4.214-1.27-4.214-3.735zm7.662-.31v-1.39h-2.586c-1.628 0-1.963.767-1.963 1.293 0 .838.624 1.317 1.75 1.317 1.196 0 2.057-.407 2.8-1.22z" fill="#fff"/><path d="M148.808 40.306h1.795l.91 1.244c.862-.814 1.916-1.532 3.735-1.532 2.442 0 4.453 1.46 4.453 4.597v3.926c0 3.138-2.01 4.598-4.452 4.598-1.748 0-2.8-.718-3.328-1.173v4.717h-3.112V40.306zm3.112 8.69c.623.622 1.46 1.317 2.682 1.317.958 0 1.987-.695 1.987-2.01v-3.45c0-1.316-1.03-2.01-1.988-2.01-1.22 0-2.06.694-2.682 1.317v4.836z" fill="#fff"/><path d="M177.868 48.54v-3.877c0-2.873 2.18-4.645 5.46-4.645 3.087 0 5.218 1.652 5.218 4.597v2.992h-7.566v.886c0 1.054.743 1.82 2.347 1.82 1.197 0 1.867-.48 2.083-1.27h3.112c-.24 2.562-2.13 4.095-5.195 4.095-3.28 0-5.46-1.652-5.46-4.597zm7.566-3.303v-.622c0-1.078-.79-1.772-2.227-1.772-1.484 0-2.227.72-2.227 1.772v.622h4.454z" fill="#fff"/><path d="M191.49 40.306h1.795l.91 1.244c.862-.814 1.915-1.532 3.735-1.532 2.442 0 4.453 1.46 4.453 4.597v3.926c0 3.138-2.01 4.598-4.453 4.598-1.748 0-2.8-.718-3.328-1.173v4.717h-3.113V40.306zm3.112 8.69c.623.622 1.46 1.317 2.68 1.317.96 0 1.99-.695 1.99-2.01v-3.45c0-1.316-1.03-2.01-1.99-2.01-1.22 0-2.057.694-2.68 1.317v4.836z" fill="#fff"/><path d="M205.518 40.306h5.793c2.635 0 4.36.957 4.36 3.35 0 1.246-.48 2.132-1.246 2.73 1.173.552 1.82 1.413 1.82 2.778 0 2.97-1.892 3.687-4.74 3.687h-5.986V40.307zm5.673 5.075c.864 0 1.2-.55 1.2-1.172 0-.72-.336-1.197-1.2-1.197h-2.56v2.37h2.56zm.504 4.766c.886 0 1.222-.55 1.222-1.198 0-.742-.336-1.197-1.222-1.197h-3.064v2.396h3.064z" fill="#fff"/></g></svg>