<svg width="354" height="88" viewBox="0 0 354 88" xmlns="http://www.w3.org/2000/svg" preserveAspectRatio="xMinYMid meet"><g fill="none"><g><g transform="translate(96 6)" fill="#fff"><path d="M18.64 23.542l-1.12-3.305H8.617l-1.118 3.305H.895l8.5-22.96h7.313l8.534 22.96H18.64zM13.05 6.434l-2.877 8.64h5.756l-2.88-8.64z"/><path d="M26.206 23.542V6.916h5.215v2.03c1.084-1.342 3.15-2.477 5.114-2.477v5.093c-.305-.07-.745-.138-1.287-.138-1.354 0-3.15.586-3.826 1.515v10.602h-5.214"/><path d="M37.775 27.81l2.27-3.787c1.25 1.378 3.08 1.928 4.976 1.928 1.728 0 4.166-.72 4.166-3.82v-1.273c-1.354 1.617-2.98 2.41-4.842 2.41-3.996 0-7.213-2.79-7.213-8.4 0-5.473 3.117-8.364 7.214-8.364 1.828 0 3.52.722 4.842 2.376V6.915h5.18v15.146c0 6.78-5.28 8.227-9.345 8.227-2.81 0-5.146-.724-7.245-2.48zm11.41-10.705v-4.44c-.642-.895-2.03-1.48-3.114-1.48-2.065 0-3.59 1.273-3.59 3.683 0 2.443 1.525 3.717 3.59 3.717 1.084 0 2.473-.585 3.116-1.48z"/><path d="M68.416 23.542v-1.997c-1.016 1.172-2.913 2.41-5.655 2.41-3.724 0-5.384-2.135-5.384-5.197V6.916h5.215v9.673c0 1.995 1.017 2.684 2.71 2.684 1.49 0 2.506-.827 3.116-1.618V6.916h5.214v16.626h-5.214"/><path d="M75.407 21.408l2.167-3.65c1.22 1.103 3.827 2.204 5.757 2.204 1.558 0 2.202-.516 2.202-1.274 0-2.168-9.516-.034-9.516-6.712 0-2.927 2.472-5.473 7.01-5.473 2.743 0 5.08.895 6.84 2.203l-1.998 3.51c-.982-.963-2.845-1.823-4.81-1.823-1.217 0-2.064.516-2.064 1.204 0 1.928 9.515.034 9.515 6.85 0 3.168-2.744 5.508-7.45 5.508-2.913 0-5.926-.998-7.653-2.547"/><path d="M20.24 53.587L16.82 39.2 13.4 53.586H7.235L.77 30.627h6.534l3.42 15.32 3.86-15.32h4.47l3.86 15.32 3.387-15.32h6.57l-6.468 22.96H20.24"/><path d="M31.902 45.257c0-4.818 3.59-8.708 8.703-8.708 4.842 0 8.363 3.612 8.363 9.26v1.134h-11.65c.307 1.55 1.73 2.96 4.1 2.96 1.15 0 3.148-.516 4.063-1.41l2.2 3.304C46.057 53.278 43.348 54 40.843 54c-5.046 0-8.94-3.338-8.94-8.743zm8.703-4.61c-2.27 0-3.15 1.65-3.353 2.854h6.74c-.137-1.17-.984-2.854-3.387-2.854z"/><path d="M50.927 30.628h5.215v22.96h-5.215v-22.96z"/><path d="M70.327 53.587V51.66C68.973 53.245 67.314 54 65.485 54c-4.03 0-7.246-3.097-7.246-8.743 0-5.438 3.148-8.708 7.245-8.708 1.795 0 3.522.72 4.842 2.374v-8.296h5.18v22.96h-5.18zm0-5.782V42.71c-.677-.894-2.03-1.48-3.148-1.48-2.067 0-3.59 1.55-3.59 4.027 0 2.48 1.523 4.063 3.59 4.063 1.116 0 2.47-.62 3.147-1.515z"/><path d="M78.18 32.418c0-1.686 1.32-3.03 2.98-3.03 1.658 0 2.98 1.344 2.98 3.03 0 1.686-1.322 3.064-2.98 3.064-1.66 0-2.98-1.378-2.98-3.064zm.372 4.544h5.215v16.626h-5.215V36.962z"/><path d="M97.827 53.587v-9.602c0-2.032-1.05-2.755-2.676-2.755-1.556 0-2.572.86-3.18 1.618v10.74h-5.215V36.96h5.214v2.03c.98-1.17 2.91-2.443 5.654-2.443 3.724 0 5.418 2.202 5.418 5.266v11.77h-5.215"/><path d="M105.725 57.857l2.27-3.788c1.252 1.377 3.08 1.927 4.977 1.927 1.727 0 4.164-.722 4.164-3.82v-1.274c-1.354 1.617-2.98 2.41-4.84 2.41-3.998 0-7.214-2.79-7.214-8.4 0-5.473 3.115-8.364 7.213-8.364 1.828 0 3.52.72 4.84 2.374v-1.962h5.183v15.146c0 6.78-5.283 8.227-9.346 8.227-2.81 0-5.148-.723-7.247-2.478zm11.41-10.706v-4.44c-.642-.894-2.03-1.48-3.113-1.48-2.067 0-3.59 1.274-3.59 3.683 0 2.444 1.523 3.718 3.59 3.718 1.084 0 2.47-.584 3.114-1.48z"/><path d="M132.65 50.352l3.08-4.44c1.625 1.652 4.132 3.028 7.213 3.028 1.998 0 3.217-.79 3.217-1.892 0-3.134-12.8-.62-12.8-9.466 0-3.856 3.217-7.3 9.007-7.3 3.623 0 6.773 1.103 9.177 3.203l-3.184 4.234c-1.896-1.585-4.367-2.377-6.602-2.377-1.693 0-2.44.69-2.44 1.653 0 2.925 12.767.792 12.767 9.328 0 4.613-3.35 7.677-9.413 7.677-4.57 0-7.755-1.444-10.022-3.648"/><path d="M153.113 45.257c0-4.818 3.59-8.708 8.703-8.708 4.843 0 8.364 3.612 8.364 9.26v1.134h-11.65c.306 1.55 1.73 2.96 4.1 2.96 1.15 0 3.148-.516 4.063-1.41l2.2 3.304c-1.625 1.48-4.334 2.203-6.84 2.203-5.046 0-8.94-3.338-8.94-8.743zm8.703-4.61c-2.27 0-3.148 1.65-3.352 2.854h6.74c-.138-1.17-.984-2.854-3.388-2.854z"/><path d="M172.098 53.587V36.962h5.215v2.03c1.084-1.342 3.15-2.478 5.114-2.478v5.095c-.305-.07-.746-.14-1.287-.14-1.355 0-3.15.587-3.827 1.516v10.6h-5.215"/><path d="M189.123 53.587l-6.434-16.625h5.486l3.69 10.534 3.725-10.534h5.52l-6.433 16.625h-5.554" id="Fill-16"/><path d="M201.664 32.418c0-1.686 1.32-3.03 2.98-3.03s2.98 1.344 2.98 3.03c0 1.686-1.32 3.064-2.98 3.064s-2.98-1.378-2.98-3.064zm.373 4.544h5.215v16.626h-5.215V36.962z" id="Fill-17"/><path d="M209.118 45.257c0-5.197 3.826-8.708 8.94-8.708 3.52 0 5.722 1.582 6.704 3.062l-3.386 3.2c-.644-.963-1.694-1.582-3.082-1.582-2.167 0-3.826 1.515-3.826 4.027 0 2.513 1.66 4.063 3.826 4.063 1.388 0 2.438-.69 3.082-1.618l3.386 3.235C223.78 52.383 221.58 54 218.057 54c-5.113 0-8.94-3.51-8.94-8.743"/><path d="M224.858 45.257c0-4.818 3.59-8.708 8.703-8.708 4.844 0 8.365 3.612 8.365 9.26v1.134h-11.65c.306 1.55 1.728 2.96 4.1 2.96 1.15 0 3.147-.516 4.063-1.41l2.2 3.304c-1.626 1.48-4.334 2.203-6.84 2.203-5.046 0-8.94-3.338-8.94-8.743zm8.703-4.61c-2.268 0-3.148 1.65-3.35 2.854h6.737c-.136-1.17-.982-2.854-3.386-2.854z"/><path d="M242.397 51.454l2.168-3.65c1.22 1.102 3.827 2.204 5.757 2.204 1.557 0 2.2-.516 2.2-1.274 0-2.17-9.515-.034-9.515-6.712 0-2.927 2.472-5.473 7.01-5.473 2.742 0 5.08.893 6.84 2.202l-1.998 3.51c-.983-.963-2.846-1.823-4.81-1.823-1.22 0-2.065.515-2.065 1.203 0 1.928 9.515.034 9.515 6.85 0 3.168-2.743 5.508-7.45 5.508-2.912 0-5.925-.997-7.653-2.546"/><path d="M1.057 63.052H257.41v.626H1.056v-.626z"/><path d="M2.747 81.61v-6.788H.333v-1.565h6.59v1.565H4.518v6.788H2.746"/><path d="M17.646 81.61l-2.502-3.344-.644.776v2.568h-1.758v-8.353H14.5v3.732l2.923-3.733h2.168l-3.28 3.92 3.504 4.433h-2.168"/><path d="M24.562 77.44c0-2.568 1.92-4.32 4.397-4.32 1.82 0 2.873 1.002 3.455 2.04l-1.51.753c-.348-.678-1.09-1.215-1.946-1.215-1.5 0-2.59 1.165-2.59 2.742 0 1.578 1.09 2.742 2.59 2.742.854 0 1.597-.526 1.944-1.214l1.51.74c-.594 1.038-1.634 2.052-3.455 2.052-2.478 0-4.398-1.753-4.398-4.32"/><path d="M46.393 73.257h1.76v8.353h-1.76v-8.353z"/><path d="M60.4 81.61l-3.94-5.448v5.448h-1.758v-8.353h1.81l3.826 5.248v-5.248h1.76v8.353H60.4"/><path d="M68.664 81.61v-8.353h3.258c2.59 0 4.384 1.665 4.384 4.183 0 2.517-1.795 4.17-4.384 4.17h-3.258zm5.847-4.17c0-1.477-.89-2.618-2.588-2.618h-1.5v5.222h1.5c1.634 0 2.59-1.19 2.59-2.604z"/><path d="M82.38 78.28v-5.023h1.784v4.96c0 1.164.67 1.965 1.945 1.965 1.274 0 1.93-.8 1.93-1.966v-4.96h1.797v5.01c0 2.08-1.214 3.494-3.728 3.494-2.516 0-3.73-1.428-3.73-3.48"/><path d="M95.732 80.433l.953-1.352c.582.614 1.487 1.128 2.626 1.128.967 0 1.437-.45 1.437-.927 0-1.477-4.755-.462-4.755-3.605 0-1.39 1.19-2.542 3.133-2.542 1.313 0 2.403.4 3.22 1.163l-.977 1.304c-.67-.628-1.56-.914-2.403-.914-.756 0-1.177.337-1.177.838 0 1.328 4.743.44 4.743 3.557 0 1.527-1.076 2.68-3.305 2.68-1.586 0-2.726-.54-3.493-1.327"/><path d="M110.452 81.61v-6.788h-2.415v-1.565h6.59v1.565h-2.404v6.788h-1.77"/><path d="M125.115 81.61l-1.622-2.968h-1.288v2.968h-1.76v-8.353h3.865c1.72 0 2.775 1.14 2.775 2.693 0 1.477-.917 2.266-1.81 2.48l1.86 3.18h-2.02zm.173-5.66c0-.7-.532-1.128-1.238-1.128h-1.845v2.255h1.845c.706 0 1.238-.426 1.238-1.127z"/><path d="M133.292 73.257h1.758v8.353h-1.758v-8.353z"/><path d="M147.26 81.61l-.507-1.416h-3.543l-.52 1.416h-2.005l3.195-8.353h2.204l3.183 8.353h-2.006zm-2.278-6.574l-1.29 3.593h2.578l-1.288-3.594z"/><path d="M154.916 81.61v-8.353h1.76v6.787h3.492v1.566h-5.252"/><path d="M179.98 81.61v-3.507h-3.9v3.507h-1.76v-8.353h1.76v3.282h3.9v-3.283h1.772v8.353h-1.77"/><path d="M187.89 77.44c0-2.518 1.822-4.32 4.31-4.32 2.503 0 4.323 1.802 4.323 4.32 0 2.517-1.82 4.32-4.322 4.32-2.488 0-4.31-1.803-4.31-4.32zm6.825 0c0-1.565-.99-2.742-2.514-2.742-1.523 0-2.5 1.177-2.5 2.742 0 1.552.977 2.742 2.5 2.742 1.524 0 2.515-1.19 2.515-2.742z"/><path d="M202.65 81.61v-8.353h1.76v6.787h3.492v1.566h-5.25"/><path d="M213.77 81.61v-8.353h3.258c2.59 0 4.385 1.665 4.385 4.183 0 2.517-1.796 4.17-4.385 4.17h-3.257zm5.847-4.17c0-1.477-.89-2.618-2.59-2.618h-1.497v5.222h1.498c1.635 0 2.59-1.19 2.59-2.604z"/><path d="M227.558 73.257h1.76v8.353h-1.76v-8.353z"/><path d="M241.564 81.61l-3.94-5.448v5.448h-1.757v-8.353h1.808l3.827 5.248v-5.248h1.76v8.353h-1.698"/><path d="M249.383 77.44c0-2.642 1.982-4.32 4.397-4.32 1.72 0 2.798.877 3.418 1.866l-1.462.8c-.37-.587-1.077-1.088-1.956-1.088-1.5 0-2.59 1.165-2.59 2.742 0 1.578 1.09 2.742 2.59 2.742.73 0 1.424-.325 1.758-.638v-1.002h-2.18V76.99h3.94v3.204c-.844.953-2.02 1.58-3.518 1.58-2.415 0-4.397-1.704-4.397-4.334"/></g><path d="M81.92 6.26v17.07L53.083 52.087c-2.2 2.222-5.247 3.608-8.62 3.627-6.75.042-12.256-5.396-12.296-12.14-.02-3.37 1.33-6.43 3.53-8.654l28.58-28.66h17.64" fill="#DB322A"/><path d="M59.922 58.515c-.043.043-.09.08-.132.123-3.945 4.443-9.672 7.277-16.085 7.316-11.972.07-21.735-9.57-21.806-21.53-.038-6.407 2.728-12.163 7.13-16.154.042-.044.077-.09.12-.134L54.605 2.4C51.002 1.456 47.222.955 43.32.977 19.375 1.12.078 20.627.22 44.552c.143 23.92 19.67 43.2 43.614 43.058 23.945-.14 43.24-19.65 43.1-43.573-.023-3.898-.57-7.67-1.558-11.256L59.922 58.516" fill="#fff"/></g></g></svg>