<svg width="186" height="83" viewBox="0 0 186 83" xmlns="http://www.w3.org/2000/svg" preserveAspectRatio="xMinYMid meet"><g fill="none"><g transform="translate(-891 -1064)"><g transform="translate(860 905)"><g transform="translate(31 159)"><path d="M12.716 43.168l-.754-2.197h-6.01l-.756 2.198H.738l5.74-15.262h4.936l5.76 15.262h-4.458zm-3.77-11.372L7 37.54h3.886l-1.943-5.744z" fill="#fff"/><path d="M21.357 41.864v5.513h-3.52v-15.26h3.52v1.28c.868-1.052 2.01-1.556 3.268-1.556 2.767 0 4.846 2.06 4.846 5.79 0 3.753-2.078 5.812-4.845 5.812-1.234 0-2.354-.48-3.268-1.578zm4.526-4.233c0-1.647-1.052-2.676-2.424-2.676-.755 0-1.67.41-2.103 1.007v3.363c.434.572 1.348 1.007 2.102 1.007 1.37 0 2.423-1.03 2.423-2.7z" fill="#fff"/><path d="M39.676 35.182h-5.234v7.986h-3.52V32.116h8.754v3.066" fill="#fff"/><path d="M41.696 44.335c.252.137.594.206.87.206.8 0 1.302-.16 1.484-.617l.253-.595-4.39-11.212h3.703l2.492 7.002 2.514-7.002h3.726l-4.982 12.63c-.892 2.334-2.56 2.86-4.663 2.906-.32 0-1.144-.068-1.51-.183l.503-3.135" fill="#fff"/><path d="M51.835 37.63c0-3.455 2.583-5.79 6.035-5.79 2.377 0 3.863 1.055 4.525 2.038l-2.285 2.128c-.434-.64-1.143-1.052-2.08-1.052-1.463 0-2.583 1.007-2.583 2.677 0 1.67 1.12 2.7 2.583 2.7.937 0 1.646-.457 2.08-1.075l2.285 2.15c-.662.962-2.148 2.037-4.525 2.037-3.452 0-6.035-2.333-6.035-5.81" fill="#fff"/><path d="M.775 55.52c0-4.713 3.567-7.894 8.252-7.894 3.68 0 5.647 2.082 6.652 4.096l-3.384 1.602c-.502-1.214-1.805-2.22-3.27-2.22-2.49 0-4.25 1.922-4.25 4.416 0 2.495 1.76 4.416 4.25 4.416 1.465 0 2.768-1.006 3.27-2.22l3.383 1.603c-.983 1.966-2.973 4.094-6.653 4.094-4.685 0-8.252-3.203-8.252-7.894" fill="#fff"/><path d="M16.596 63.14V52.088h7.497c2.354 0 3.475 1.44 3.475 2.837 0 1.305-.824 2.197-1.897 2.517 1.257.252 2.15 1.327 2.15 2.677 0 1.624-1.167 3.02-3.52 3.02h-7.704zm7.428-7.642c0-.412-.297-.687-.754-.687h-3.155v1.373h3.155c.457 0 .754-.297.754-.685zm.252 4.164c0-.435-.343-.778-.87-.778h-3.29v1.532h3.29c.504 0 .87-.297.87-.754z" fill="#fff"/><path d="M36.11 63.14v-1.1c-.687.825-2.013 1.374-3.43 1.374-1.69 0-3.794-1.144-3.794-3.638 0-2.677 2.103-3.546 3.794-3.546 1.463 0 2.766.457 3.43 1.28v-1.327c0-.96-.824-1.6-2.24-1.6-1.1 0-2.24.41-3.133 1.166l-1.257-2.22c1.417-1.213 3.314-1.717 5.006-1.717 2.65 0 5.143.984 5.143 4.417v6.91h-3.52zm0-2.838v-.983c-.367-.505-1.19-.78-1.967-.78-.937 0-1.76.412-1.76 1.282 0 .87.823 1.282 1.76 1.282.777 0 1.6-.276 1.966-.802z" fill="#fff"/><path d="M45.172 61.835v5.514h-3.52V52.087h3.52v1.28c.868-1.05 2.01-1.555 3.27-1.555 2.764 0 4.845 2.06 4.845 5.79 0 3.752-2.08 5.81-4.846 5.81-1.234 0-2.354-.48-3.268-1.578zm4.525-4.232c0-1.648-1.05-2.678-2.422-2.678-.754 0-1.67.412-2.103 1.008v3.362c.434.572 1.35 1.007 2.103 1.007 1.37 0 2.422-1.03 2.422-2.7z" fill="#fff"/><path d="M59.826 55.52c0-4.713 3.566-7.894 8.252-7.894 3.68 0 5.646 2.082 6.652 4.096l-3.383 1.602c-.504-1.214-1.806-2.22-3.27-2.22-2.49 0-4.25 1.922-4.25 4.416 0 2.495 1.76 4.416 4.25 4.416 1.464 0 2.766-1.006 3.27-2.22l3.383 1.603c-.983 1.966-2.972 4.094-6.652 4.094-4.686 0-8.252-3.203-8.252-7.894" fill="#fff"/><path d="M75.232 57.603c0-3.204 2.423-5.79 5.874-5.79 3.27 0 5.646 2.403 5.646 6.155v.756H78.89c.205 1.03 1.165 1.968 2.765 1.968.777 0 2.126-.344 2.743-.94l1.486 2.198c-1.098.983-2.926 1.464-4.617 1.464-3.407 0-6.035-2.22-6.035-5.81zm5.874-3.067c-1.53 0-2.125 1.098-2.263 1.9h4.55c-.09-.778-.664-1.9-2.287-1.9z" fill="#fff"/><path d="M91.547 61.835v5.514h-3.52V52.087h3.52v1.28c.868-1.05 2.012-1.555 3.27-1.555 2.764 0 4.845 2.06 4.845 5.79 0 3.752-2.08 5.81-4.846 5.81-1.235 0-2.355-.48-3.27-1.578zm4.526-4.232c0-1.648-1.05-2.678-2.423-2.678-.754 0-1.67.412-2.103 1.008v3.362c.434.572 1.35 1.007 2.103 1.007 1.372 0 2.423-1.03 2.423-2.7z" fill="#fff"/><path d="M101.113 63.14V52.088h7.497c2.355 0 3.475 1.44 3.475 2.837 0 1.305-.823 2.197-1.897 2.517 1.257.252 2.148 1.327 2.148 2.677 0 1.624-1.166 3.02-3.52 3.02h-7.703zm7.428-7.642c0-.412-.296-.687-.753-.687h-3.154v1.373h3.154c.457 0 .754-.297.754-.685zm.253 4.164c0-.435-.343-.778-.87-.778h-3.29v1.532h3.29c.505 0 .87-.297.87-.754z" fill="#fff"/><path d="M114.14 63.14V52.088h3.52v5.79l3.933-5.79h3.543V63.14h-3.52v-6.087l-4.114 6.087h-3.36" fill="#fff"/><path d="M126.497 57.603c0-3.456 2.584-5.79 6.035-5.79 2.378 0 3.863 1.053 4.526 2.036l-2.285 2.128c-.435-.64-1.143-1.053-2.08-1.053-1.464 0-2.583 1.008-2.583 2.678s1.12 2.7 2.582 2.7c.938 0 1.646-.46 2.08-1.076l2.286 2.15c-.663.962-2.148 2.037-4.526 2.037-3.45 0-6.035-2.333-6.035-5.81" fill="#fff"/><path d="M.543 69.2h136.72v.936H.543V69.2z" fill="#fff"/><path d="M6.73 81.766v-5.55h2.594c1.207 0 1.864.814 1.864 1.788 0 .965-.666 1.79-1.864 1.79H7.91v1.972H6.73zm3.252-3.762c0-.467-.35-.75-.815-.75H7.91v1.5h1.257c.465 0 .815-.292.815-.75z" fill="#fff"/><path d="M11.72 78.994c0-1.673 1.22-2.87 2.892-2.87 1.68 0 2.902 1.197 2.902 2.87s-1.222 2.872-2.902 2.872c-1.672 0-2.893-1.2-2.893-2.872zm4.58 0c0-1.04-.665-1.822-1.688-1.822-1.022 0-1.68.78-1.68 1.822 0 1.033.658 1.823 1.68 1.823 1.023 0 1.688-.79 1.688-1.823z" fill="#fff"/><path d="M23.134 81.766V77.88l-1.564 3.886h-.515l-1.563-3.887v3.886h-1.18v-5.55h1.653l1.348 3.353 1.347-3.355h1.663v5.55h-1.19" fill="#fff"/><path d="M26.6 76.215v1.972h1.414c1.197 0 1.862.824 1.862 1.79 0 .974-.656 1.79-1.862 1.79H25.42v-5.552h1.18zm0 3.012v1.5h1.256c.465 0 .815-.284.815-.75 0-.458-.35-.75-.814-.75H26.6zm3.742-3.012h1.19v5.55h-1.19v-5.55z" fill="#fff"/><path d="M39.704 76.215v5.55h-7.076v-5.55h1.18v4.51h1.764v-4.51h1.188v4.51h1.755v-4.51h1.19" fill="#fff"/><path d="M40.418 80.817c.557 0 .88-.3 1.056-1.765l.325-2.837h3.94v5.55h-1.19v-4.51h-1.688l-.216 1.88c-.265 2.307-1.098 2.73-2.228 2.73v-1.048" fill="#fff"/><path d="M46.83 81.766v-5.55h3.923v1.04H48.01v1.172h2.685v1.04H48.01v1.258h2.743v1.04H46.83" fill="#fff"/><path d="M55.52 81.766v-2.33h-2.618v2.33h-1.18v-5.55h1.18v2.18h2.62v-2.18h1.188v5.55h-1.19" fill="#fff"/><path d="M61.6 81.766v-2.33h-2.62v2.33H57.8v-5.55h1.18v2.18h2.62v-2.18h1.188v5.55h-1.19" fill="#fff"/><path d="M65.057 76.215v1.972h1.414c1.2 0 1.863.824 1.863 1.79 0 .974-.657 1.79-1.862 1.79h-2.593v-5.552h1.18zm0 3.012v1.5h1.256c.466 0 .815-.284.815-.75 0-.458-.35-.75-.815-.75h-1.256zm3.742-3.012h1.188v5.55h-1.19v-5.55z" fill="#fff"/><path d="M71.085 81.766v-5.55h1.18V79.8l2.57-3.585h1.214v5.55h-1.182v-3.72l-2.644 3.72h-1.14zm2.486-5.81c-.59 0-1.12-.283-1.462-.732l.466-.39c.224.315.565.515.997.515.417 0 .758-.193.99-.517l.467.39c-.333.45-.857.733-1.456.733z" fill="#fff"/><path d="M83.024 81.766l-1.388-2.03-1.398 2.03h-1.405l2.012-2.847-1.887-2.705h1.405l1.273 1.897 1.255-1.897h1.423l-1.888 2.696 2.012 2.856h-1.413" fill="#fff"/><path d="M84.408 78.994c0-1.673 1.223-2.87 2.894-2.87 1.68 0 2.9 1.197 2.9 2.87s-1.22 2.872-2.9 2.872c-1.67 0-2.894-1.2-2.894-2.872zm4.58 0c0-1.04-.663-1.822-1.686-1.822s-1.68.78-1.68 1.822c0 1.033.657 1.823 1.68 1.823s1.687-.79 1.687-1.823z" fill="#fff"/><path d="M90.52 80.817c.558 0 .883-.3 1.058-1.765l.324-2.837h3.94v5.55h-1.188v-4.51h-1.688l-.216 1.88c-.266 2.307-1.098 2.73-2.23 2.73v-1.048" fill="#fff"/><path d="M96.545 80.817c.566-.075.88-.3 1.056-1.765l.325-2.837h3.94v4.51h.5v2.065h-1.18v-1.024h-3.46v1.024h-1.18v-1.973zm1.554-.09h2.577v-3.472H98.99l-.217 1.88c-.083.75-.324 1.267-.674 1.59z" fill="#fff"/><path d="M103.125 81.766v-5.55h1.18V79.8l2.57-3.585h1.214v5.55h-1.182v-3.72l-2.644 3.72h-1.14" fill="#fff"/><path d="M112.98 81.766v-2.33h-2.617v2.33h-1.18v-5.55h1.18v2.18h2.618v-2.18h1.19v5.55h-1.19" fill="#fff"/><path d="M115.26 81.766v-5.55h3.924v1.04h-2.743v4.51h-1.18" fill="#fff"/><path d="M123.548 81.766v-4.51h-1.62v-1.04h4.422v1.04h-1.613v4.51h-1.19" fill="#fff"/><path d="M130.34 81.766l-1.68-2.222-.43.516v1.706h-1.182v-5.55h1.18v2.48l1.963-2.48h1.456l-2.203 2.604 2.353 2.946h-1.456" fill="#fff"/><path d="M131.668 78.994c0-1.706 1.29-2.87 2.95-2.87 1.224 0 1.93.664 2.32 1.356l-1.013.5c-.233-.45-.732-.808-1.306-.808-1.006 0-1.738.774-1.738 1.822 0 1.05.732 1.823 1.737 1.823.573 0 1.072-.35 1.305-.807l1.014.49c-.4.692-1.098 1.366-2.32 1.366-1.663 0-2.952-1.166-2.952-2.872" fill="#fff"/><path d="M145.34.864l.8 2.48 2.6-.004-2.106 1.526.81 2.475-2.105-1.535-2.102 1.536.81-2.474-2.11-1.526 2.603.003.8-2.48" fill="#B01C33"/><path d="M163.977 5.87c.266.826.533 1.652.8 2.477.865 0 1.734 0 2.602-.003-.704.508-1.406 1.018-2.11 1.527.272.825.538 1.65.81 2.478-.7-.513-1.403-1.026-2.103-1.536-.7.51-1.402 1.023-2.1 1.536.27-.828.538-1.653.806-2.477-.702-.508-1.404-1.018-2.107-1.526.868.002 1.734.002 2.602.003.264-.825.533-1.65.8-2.477" fill="#B01C33"/><path d="M177.624 19.528c.264.828.53 1.653.8 2.48.865-.003 1.734-.005 2.6-.005-.702.508-1.406 1.018-2.108 1.526.267.824.54 1.648.81 2.476-.703-.515-1.404-1.024-2.102-1.536-.702.512-1.403 1.02-2.105 1.536.272-.828.54-1.652.81-2.477-.706-.51-1.406-1.02-2.107-1.527.867 0 1.734.002 2.6.006.265-.83.535-1.654.8-2.482" fill="#B01C33"/><path d="M182.623 38.184c.265.826.53 1.65.8 2.48.867-.003 1.735-.005 2.602-.005-.705.508-1.407 1.016-2.11 1.527.272.824.54 1.648.81 2.475-.703-.512-1.402-1.024-2.102-1.536-.7.512-1.402 1.024-2.102 1.536.27-.827.538-1.65.81-2.475-.702-.51-1.405-1.02-2.108-1.528.866 0 1.734 0 2.6.003.268-.828.535-1.653.8-2.48" fill="#B01C33"/><path d="M177.624 56.843c.264.825.53 1.65.8 2.476.865 0 1.734-.005 2.6-.005-.702.508-1.406 1.017-2.108 1.527.267.824.54 1.65.81 2.477-.703-.514-1.404-1.026-2.102-1.538-.702.512-1.403 1.024-2.105 1.537.272-.828.54-1.654.81-2.478-.706-.51-1.406-1.02-2.107-1.527.867 0 1.734.004 2.6.004.265-.826.535-1.652.8-2.477" fill="#B01C33"/><path d="M163.977 70.5c.266.827.533 1.652.8 2.478.865 0 1.734-.004 2.602-.004-.704.51-1.406 1.017-2.11 1.527.272.825.538 1.65.81 2.478-.7-.512-1.403-1.025-2.103-1.535-.7.51-1.402 1.023-2.1 1.535.27-.83.538-1.653.806-2.477-.702-.51-1.404-1.016-2.107-1.526.868 0 1.734.004 2.602.004.264-.826.533-1.65.8-2.477" fill="#B01C33"/><path d="M145.34 75.504c.265.826.53 1.653.8 2.478.866 0 1.735-.002 2.6-.004-.703.508-1.406 1.018-2.106 1.527.27.827.538 1.65.81 2.477-.7-.513-1.404-1.025-2.105-1.536-.7.51-1.4 1.023-2.1 1.536.267-.828.536-1.65.808-2.477-.703-.51-1.406-1.02-2.11-1.527.867.002 1.735.004 2.604.004.266-.825.532-1.652.797-2.478" fill="#B01C33"/><path d="M108.057 38.184c.268.826.533 1.65.802 2.48.864-.003 1.73-.005 2.602-.005-.705.508-1.406 1.016-2.11 1.527.27.824.537 1.648.81 2.475-.7-.512-1.402-1.024-2.105-1.536-.7.512-1.4 1.024-2.102 1.536.27-.827.542-1.65.81-2.475-.703-.51-1.406-1.02-2.11-1.528.867 0 1.737 0 2.605.003.265-.828.53-1.653.797-2.48" fill="#B01C33"/><path d="M113.058 19.528c.266.828.53 1.653.797 2.48.868-.003 1.737-.005 2.604-.005-.704.508-1.407 1.018-2.11 1.526.27.824.54 1.648.81 2.476-.7-.515-1.403-1.024-2.102-1.536-.7.512-1.4 1.02-2.104 1.536.272-.828.54-1.652.81-2.477-.703-.51-1.405-1.02-2.106-1.527.865 0 1.733.002 2.598.006.268-.83.535-1.654.802-2.482" fill="#B01C33"/><path d="M126.7 5.87l.802 2.48 2.6-.006-2.108 1.527.81 2.478-2.103-1.536-2.1 1.536.808-2.477-2.11-1.526 2.605.006.798-2.48" fill="#B01C33"/><path d="M155.687 22.604L129.06 40.776h16.233l5.727 19.056 4.667-37.228zm3.065-5.013l-6.755 53.876-8.498-28.28H121.25l37.5-25.595z" fill="#B01C33"/><path d="M154.74 39.85l-7.29 12.293-.482-1.6 8.157-13.753-.384 3.06zm2.477-19.75l-1.233.84-12.48 21.04h.893l.18.6 12.453-20.994.187-1.487zm-3.103 2.116l-3.74 2.554-10.21 17.21h2.225l11.724-19.764zM148.5 26.05l-7.482 5.106-6.424 10.825h4.457l9.45-15.93zm-9.355 6.382l-5.662 9.55h-8.327l13.99-9.55zm6.034 12.154l.48 1.6 10.508-17.718.384-3.06-11.373 19.178z" fill="#B01C33"/><path d="M4.455 81.766v-4.51h-2.62v4.51H.656v-5.55h4.99v5.55h-1.19" fill="#fff"/></g></g></g></g></svg>