<svg width="223" height="82" viewBox="0 0 223 82" xmlns="http://www.w3.org/2000/svg" preserveAspectRatio="xMinYMid meet"><g fill="none"><g transform="translate(-860 -905)"><g transform="translate(860 905)"><g><path d="M182.224.285l.8 2.48 2.6-.004-2.106 1.528.81 2.474-2.104-1.536-2.102 1.536.81-2.474-2.108-1.527 2.6.004.8-2.48" fill="#B01C33"/><path d="M200.862 5.292c.265.825.533 1.65.798 2.477.867-.003 1.736-.003 2.604-.005-.704.508-1.405 1.018-2.11 1.527.272.824.54 1.65.81 2.477-.7-.514-1.402-1.027-2.102-1.538-.7.51-1.402 1.024-2.1 1.537.268-.83.537-1.654.805-2.478-.7-.51-1.403-1.02-2.107-1.527.868.002 1.734.002 2.602.004.265-.827.534-1.653.8-2.478" fill="#B01C33"/><path d="M214.508 18.95c.265.827.532 1.652.8 2.48.865-.004 1.734-.006 2.6-.006-.702.51-1.405 1.018-2.108 1.526.268.825.54 1.648.81 2.477-.703-.515-1.403-1.024-2.102-1.535-.7.51-1.403 1.02-2.105 1.535.273-.83.54-1.652.812-2.477-.706-.508-1.407-1.017-2.107-1.526.866 0 1.733.002 2.598.006.267-.828.536-1.653.802-2.48" fill="#B01C33"/><path d="M219.507 37.605c.266.827.53 1.652.8 2.48.867-.003 1.735-.004 2.602-.004-.705.51-1.407 1.017-2.11 1.528.272.824.54 1.648.81 2.475-.703-.512-1.402-1.024-2.103-1.536-.7.512-1.402 1.024-2.102 1.536.27-.827.537-1.65.808-2.475-.7-.51-1.404-1.02-2.107-1.527.867 0 1.734.002 2.6.004.268-.827.535-1.652.8-2.48" fill="#B01C33"/><path d="M214.508 56.264c.265.826.532 1.65.8 2.477.865 0 1.734-.003 2.6-.003-.702.508-1.405 1.016-2.108 1.527.268.823.54 1.65.81 2.476-.703-.513-1.403-1.025-2.102-1.537-.7.512-1.403 1.024-2.105 1.537.273-.827.54-1.653.812-2.476-.706-.51-1.407-1.02-2.107-1.527.866 0 1.733.004 2.598.004.267-.825.536-1.65.802-2.476" fill="#B01C33"/><path d="M200.862 69.922c.265.825.533 1.65.798 2.478.867 0 1.736-.005 2.604-.005-.704.51-1.405 1.017-2.11 1.527.272.824.54 1.65.81 2.476-.7-.51-1.402-1.024-2.102-1.534-.7.51-1.402 1.023-2.1 1.534.268-.827.537-1.652.805-2.476-.7-.51-1.403-1.017-2.107-1.527.868 0 1.734.005 2.602.005.265-.827.534-1.653.8-2.478" fill="#B01C33"/><path d="M182.224 74.926c.266.825.532 1.65.8 2.477.867 0 1.736-.002 2.6-.004-.702.507-1.405 1.017-2.106 1.526.27.827.538 1.65.81 2.477-.7-.512-1.403-1.026-2.104-1.535-.7.51-1.4 1.023-2.1 1.535.268-.828.536-1.65.81-2.477-.705-.51-1.408-1.02-2.11-1.527.866 0 1.734.003 2.603.003.265-.826.532-1.652.797-2.477" fill="#B01C33"/><path d="M144.94 37.605c.27.827.535 1.652.804 2.48.865-.003 1.732-.004 2.602-.004-.705.51-1.406 1.017-2.11 1.528.27.824.538 1.648.81 2.475-.7-.512-1.402-1.024-2.105-1.536-.697.512-1.398 1.024-2.1 1.536.27-.827.542-1.65.81-2.475-.704-.51-1.407-1.02-2.11-1.527.866 0 1.737.002 2.604.004.266-.827.532-1.652.797-2.48" fill="#B01C33"/><path d="M149.943 18.95c.265.827.53 1.652.796 2.48.867-.004 1.737-.006 2.603-.006-.702.51-1.405 1.018-2.108 1.526.27.825.54 1.648.81 2.477-.7-.515-1.404-1.024-2.102-1.535-.7.51-1.4 1.02-2.104 1.535.27-.83.538-1.652.81-2.477-.704-.508-1.407-1.017-2.108-1.526.866 0 1.733.002 2.6.006.267-.828.533-1.653.8-2.48" fill="#B01C33"/><path d="M163.585 5.292l.8 2.48 2.6-.007-2.106 1.527.81 2.477-2.105-1.538-2.102 1.537.81-2.478-2.11-1.527 2.604.006.798-2.478" fill="#B01C33"/><path d="M192.572 22.026l-26.626 18.17h16.23l5.73 19.057 4.666-37.227zm3.064-5.014l-6.754 53.875-8.498-28.28h-22.248l37.5-25.595z" fill="#B01C33"/><path d="M191.626 39.27l-7.29 12.294-.483-1.6 8.157-13.752-.384 3.058zm2.475-19.75l-1.23.84-12.482 21.042h.894l.18.6 12.453-20.994.186-1.488zM191 21.637l-3.74 2.555-10.21 17.21h2.226l11.724-19.765zm-5.613 3.832l-7.483 5.107-6.423 10.825h4.456l9.45-15.933zm-9.355 6.383l-5.662 9.55h-8.328l13.99-9.55zm6.033 12.153l.48 1.6 10.51-17.717.383-3.06-11.373 19.176z" fill="#B01C33"/><path d="M12.39 42.43l-.754-2.197H5.624l-.754 2.196H.412L6.15 27.166h4.937l5.76 15.262H12.39zM8.618 31.056L6.675 36.8h3.886L8.62 31.058z" fill="#fff"/><path d="M17.498 42.43V31.377h3.52v1.35c.732-.892 2.127-1.648 3.453-1.648v3.387c-.205-.046-.503-.092-.868-.092-.914 0-2.126.39-2.583 1.007v7.047h-3.522" fill="#fff"/><path d="M25.308 45.267l1.532-2.517c.845.915 2.08 1.28 3.36 1.28 1.165 0 2.81-.48 2.81-2.538v-.847c-.913 1.074-2.01 1.6-3.268 1.6-2.697 0-4.868-1.852-4.868-5.58 0-3.64 2.103-5.562 4.868-5.562 1.235 0 2.378.48 3.27 1.58v-1.305h3.496v10.068c0 4.506-3.565 5.468-6.308 5.468-1.898 0-3.475-.48-4.892-1.647zm7.703-7.117v-2.952c-.433-.594-1.37-.983-2.102-.983-1.394 0-2.423.847-2.423 2.45 0 1.623 1.03 2.47 2.423 2.47.732 0 1.67-.39 2.103-.985z" fill="#fff"/><path d="M45.992 42.43V41.1c-.685.78-1.966 1.602-3.817 1.602-2.514 0-3.635-1.42-3.635-3.455v-7.872h3.52v6.43c0 1.327.686 1.784 1.83 1.784 1.005 0 1.69-.55 2.102-1.075v-7.14h3.52V42.43h-3.52" fill="#fff"/><path d="M50.712 41.01l1.463-2.425c.822.733 2.583 1.464 3.886 1.464 1.052 0 1.487-.343 1.487-.847 0-1.442-6.424-.023-6.424-4.462 0-1.944 1.67-3.637 4.732-3.637 1.85 0 3.43.595 4.617 1.464l-1.348 2.335c-.664-.642-1.92-1.213-3.247-1.213-.822 0-1.394.342-1.394.8 0 1.28 6.424.022 6.424 4.552 0 2.106-1.852 3.662-5.03 3.662-1.965 0-4-.664-5.165-1.693" fill="#fff"/><path d="M13.47 62.4l-2.308-9.563-2.31 9.564h-4.16L.328 47.14H4.74L7.046 57.32 9.654 47.14h3.017l2.607 10.182 2.285-10.183h4.435L17.63 62.4h-4.16" fill="#fff"/><path d="M21.343 56.863c0-3.202 2.424-5.788 5.876-5.788 3.267 0 5.644 2.402 5.644 6.155v.755H25c.207 1.03 1.167 1.968 2.767 1.968.777 0 2.126-.344 2.743-.94l1.486 2.198c-1.097.985-2.926 1.465-4.618 1.465-3.405 0-6.035-2.22-6.035-5.812zm5.876-3.065c-1.533 0-2.127 1.098-2.265 1.9h4.55c-.092-.78-.664-1.9-2.286-1.9z" fill="#fff"/><path d="M34.187 47.14h3.52V62.4h-3.52V47.14z" fill="#fff"/><path d="M47.283 62.4v-1.28c-.915 1.053-2.034 1.555-3.27 1.555-2.72 0-4.89-2.06-4.89-5.812 0-3.614 2.125-5.788 4.89-5.788 1.213 0 2.378.48 3.27 1.58v-5.516h3.496V62.4h-3.497zm0-3.843V55.17c-.457-.594-1.372-.984-2.126-.984-1.394 0-2.423 1.03-2.423 2.677 0 1.65 1.03 2.7 2.423 2.7.754 0 1.67-.41 2.126-1.006z" fill="#fff"/><path d="M52.583 48.33c0-1.122.892-2.015 2.012-2.015s2.01.893 2.01 2.014c0 1.12-.89 2.035-2.01 2.035-1.12 0-2.012-.915-2.012-2.036zm.252 3.02h3.52V62.4h-3.52V51.35z" fill="#fff"/><path d="M65.846 62.4v-6.383c0-1.35-.71-1.83-1.806-1.83-1.05 0-1.738.572-2.148 1.076V62.4h-3.52V51.35h3.52v1.35c.662-.778 1.965-1.625 3.817-1.625 2.513 0 3.657 1.464 3.657 3.5v7.826h-3.52" fill="#fff"/><path d="M71.178 65.24l1.53-2.52c.848.917 2.08 1.283 3.362 1.283 1.166 0 2.81-.48 2.81-2.54v-.847c-.913 1.075-2.01 1.602-3.267 1.602-2.698 0-4.87-1.854-4.87-5.583 0-3.638 2.104-5.56 4.87-5.56 1.233 0 2.377.48 3.268 1.58v-1.306h3.5v10.068c0 4.506-3.567 5.468-6.31 5.468-1.897 0-3.475-.48-4.892-1.647zm7.703-7.118v-2.95c-.433-.596-1.37-.986-2.102-.986-1.394 0-2.423.848-2.423 2.45 0 1.623 1.03 2.47 2.423 2.47.732 0 1.67-.39 2.103-.984z" fill="#fff"/><path d="M89.353 60.25l2.08-2.952c1.097 1.1 2.79 2.014 4.87 2.014 1.347 0 2.17-.526 2.17-1.258 0-2.083-8.64-.412-8.64-6.293 0-2.562 2.17-4.85 6.08-4.85 2.446 0 4.572.732 6.195 2.128l-2.15 2.815c-1.28-1.053-2.948-1.58-4.456-1.58-1.143 0-1.647.46-1.647 1.1 0 1.944 8.618.526 8.618 6.2 0 3.066-2.263 5.102-6.354 5.102-3.087 0-5.236-.96-6.767-2.425" fill="#fff"/><path d="M103.167 56.863c0-3.202 2.424-5.788 5.875-5.788 3.27 0 5.646 2.402 5.646 6.155v.755h-7.863c.205 1.03 1.165 1.968 2.765 1.968.778 0 2.126-.344 2.744-.94l1.485 2.198c-1.098.985-2.926 1.465-4.618 1.465-3.406 0-6.035-2.22-6.035-5.812zm5.875-3.065c-1.532 0-2.125 1.098-2.263 1.9h4.548c-.092-.78-.663-1.9-2.286-1.9z" fill="#fff"/><path d="M115.982 62.4V51.35h3.52v1.35c.733-.893 2.127-1.648 3.453-1.648v3.387c-.206-.047-.504-.093-.87-.093-.914 0-2.125.39-2.582 1.007V62.4h-3.52" fill="#fff"/><path d="M127.475 62.4l-4.343-11.05h3.704l2.49 7.002 2.515-7.003h3.727l-4.343 11.05h-3.75" fill="#fff"/><path d="M135.94 48.33c0-1.122.892-2.015 2.013-2.015 1.12 0 2.01.893 2.01 2.014 0 1.12-.89 2.035-2.01 2.035-1.12 0-2.012-.915-2.012-2.036zm.253 3.02h3.52V62.4h-3.52V51.35z" fill="#fff"/><path d="M140.972 56.863c0-3.455 2.583-5.788 6.035-5.788 2.377 0 3.863 1.052 4.526 2.036l-2.286 2.13c-.434-.64-1.143-1.054-2.08-1.054-1.463 0-2.583 1.007-2.583 2.677 0 1.67 1.12 2.7 2.583 2.7.937 0 1.646-.457 2.08-1.074l2.286 2.15c-.663.96-2.15 2.035-4.526 2.035-3.452 0-6.035-2.334-6.035-5.812" fill="#fff"/><path d="M151.598 56.863c0-3.202 2.424-5.788 5.874-5.788 3.27 0 5.647 2.402 5.647 6.155v.755h-7.865c.206 1.03 1.166 1.968 2.767 1.968.776 0 2.125-.344 2.743-.94l1.485 2.198c-1.097.985-2.925 1.465-4.617 1.465-3.406 0-6.035-2.22-6.035-5.812zm5.874-3.065c-1.53 0-2.125 1.098-2.262 1.9h4.55c-.093-.78-.664-1.9-2.288-1.9z" fill="#fff"/><path d="M163.438 60.983l1.463-2.426c.824.732 2.584 1.464 3.887 1.464 1.052 0 1.486-.34 1.486-.845 0-1.442-6.423-.023-6.423-4.462 0-1.945 1.668-3.638 4.73-3.638 1.853 0 3.43.595 4.62 1.464l-1.35 2.334c-.663-.642-1.92-1.213-3.246-1.213-.823 0-1.394.344-1.394.8 0 1.283 6.423.024 6.423 4.554 0 2.106-1.852 3.66-5.03 3.66-1.965 0-4-.662-5.165-1.69" fill="#fff"/><path d="M.26 68.43h173.573v.938H.26v-.937z" fill="#fff"/><path d="M1.663 81.028v-4.512H.033v-1.04H4.48v1.04H2.86v4.512H1.662" fill="#fff"/><path d="M11.72 81.028l-1.69-2.223-.433.516v1.708H8.41v-5.552h1.187v2.48l1.973-2.48h1.464l-2.216 2.605 2.366 2.948H11.72" fill="#fff"/><path d="M16.39 78.256c0-1.707 1.295-2.87 2.967-2.87 1.23 0 1.94.664 2.333 1.355l-1.02.5c-.234-.45-.736-.807-1.313-.807-1.012 0-1.747.774-1.747 1.823 0 1.05.735 1.823 1.747 1.823.577 0 1.08-.35 1.313-.808l1.02.49c-.4.692-1.104 1.366-2.333 1.366-1.672 0-2.968-1.166-2.968-2.872" fill="#fff"/><path d="M31.126 75.476h1.188v5.552h-1.188v-5.552z" fill="#fff"/><path d="M40.58 81.028l-2.657-3.62v3.62h-1.188v-5.552h1.22l2.585 3.487v-3.487h1.187v5.552H40.58" fill="#fff"/><path d="M46.16 81.028v-5.552h2.2c1.747 0 2.96 1.107 2.96 2.78 0 1.673-1.213 2.772-2.96 2.772h-2.2zm3.947-2.772c0-.982-.602-1.74-1.748-1.74h-1.013v3.47h1.012c1.103 0 1.747-.79 1.747-1.73z" fill="#fff"/><path d="M55.42 78.813v-3.337h1.203v3.296c0 .775.452 1.307 1.313 1.307.86 0 1.304-.533 1.304-1.308v-3.296h1.213v3.33c0 1.38-.82 2.322-2.517 2.322-1.698 0-2.517-.95-2.517-2.315" fill="#fff"/><path d="M64.432 80.245l.643-.9c.393.41 1.004.75 1.773.75.652 0 .97-.3.97-.615 0-.983-3.21-.308-3.21-2.398 0-.924.802-1.69 2.115-1.69.886 0 1.622.267 2.174.774l-.66.867c-.452-.418-1.054-.608-1.623-.608-.51 0-.794.224-.794.557 0 .883 3.202.292 3.202 2.364 0 1.015-.727 1.782-2.232 1.782-1.07 0-1.84-.36-2.358-.883" fill="#fff"/><path d="M74.37 81.028v-4.512h-1.632v-1.04h4.45v1.04h-1.624v4.512H74.37" fill="#fff"/><path d="M84.267 81.028l-1.095-1.973h-.87v1.973h-1.187v-5.552h2.608c1.162 0 1.874.757 1.874 1.79 0 .98-.62 1.506-1.22 1.647l1.253 2.115h-1.363zm.117-3.763c0-.465-.36-.75-.836-.75h-1.246v1.5h1.246c.477 0 .836-.283.836-.75z" fill="#fff"/><path d="M89.787 75.476h1.187v5.552h-1.187v-5.552z" fill="#fff"/><path d="M99.216 81.028l-.343-.94h-2.39l-.352.94h-1.353l2.157-5.552h1.488l2.148 5.552h-1.354zm-1.538-4.37l-.87 2.388h1.74l-.87-2.388z" fill="#fff"/><path d="M104.384 81.028v-5.552h1.188v4.51h2.357v1.042h-3.546" fill="#fff"/><path d="M121.304 81.028v-2.33h-2.634v2.33h-1.187v-5.552h1.187v2.18h2.634v-2.18h1.195v5.552h-1.196" fill="#fff"/><path d="M126.643 78.256c0-1.673 1.23-2.87 2.91-2.87 1.69 0 2.918 1.197 2.918 2.87s-1.228 2.872-2.917 2.872c-1.68 0-2.91-1.2-2.91-2.872zm4.607 0c0-1.04-.67-1.823-1.697-1.823-1.028 0-1.69.783-1.69 1.823 0 1.032.662 1.823 1.69 1.823s1.697-.792 1.697-1.824z" fill="#fff"/><path d="M136.607 81.028v-5.552h1.188v4.51h2.357v1.042h-3.545" fill="#fff"/><path d="M144.114 81.028v-5.552h2.198c1.75 0 2.96 1.107 2.96 2.78 0 1.673-1.21 2.772-2.96 2.772h-2.198zm3.947-2.772c0-.982-.6-1.74-1.748-1.74h-1.01v3.47h1.01c1.105 0 1.75-.79 1.75-1.73z" fill="#fff"/><path d="M153.42 75.476h1.188v5.552h-1.187v-5.552z" fill="#fff"/><path d="M162.875 81.028l-2.658-3.62v3.62h-1.187v-5.552h1.22l2.584 3.487v-3.487h1.187v5.552h-1.145" fill="#fff"/><path d="M168.153 78.256c0-1.756 1.338-2.87 2.97-2.87 1.16 0 1.89.58 2.306 1.24l-.987.53c-.252-.39-.728-.723-1.32-.723-1.014 0-1.75.774-1.75 1.823 0 1.05.736 1.823 1.75 1.823.492 0 .96-.217 1.186-.425v-.667h-1.473v-1.032h2.66v2.13c-.57.634-1.363 1.05-2.375 1.05-1.63 0-2.97-1.133-2.97-2.88" fill="#fff"/></g></g></g></g></svg>