<svg width="17" height="14" viewBox="0 0 17 14" xmlns="http://www.w3.org/2000/svg"><g fill="none"><g transform="translate(-990 -950)" fill="#fff"><g transform="translate(990 951)"><path d="M16.208 1.135c-.588.262-1.22.438-1.885.517C15 1.246 15.52.602 15.767-.164c-.635.376-1.338.65-2.085.796-.6-.637-1.453-1.036-2.396-1.036-1.813 0-3.283 1.47-3.283 3.282 0 .258.03.508.085.75C5.36 3.49 2.94 2.182 1.322.197 1.04.68.878 1.245.878 1.847c0 1.138.58 2.143 1.46 2.73C1.8 4.564 1.294 4.416.85 4.17v.042c0 1.59 1.133 2.917 2.633 3.22-.274.074-.564.114-.864.114-.213 0-.418-.02-.618-.06.417 1.305 1.63 2.254 3.065 2.28-1.123.88-2.537 1.405-4.076 1.405-.263 0-.524-.016-.782-.046 1.453.93 3.178 1.475 5.032 1.475 6.038 0 9.34-5.003 9.34-9.34 0-.143-.003-.285-.01-.425.642-.463 1.2-1.042 1.638-1.7"/></g></g></g></svg>