<?xml version="1.0" encoding="UTF-8" standalone="no"?>
<svg width="354px" height="88px" viewBox="0 0 354 88" version="1.1" xmlns="http://www.w3.org/2000/svg" xmlns:xlink="http://www.w3.org/1999/xlink" xmlns:sketch="http://www.bohemiancoding.com/sketch/ns">
    <!-- Generator: Sketch 3.2 (9961) - http://www.bohemiancoding.com/sketch -->
    <title>logo_eng</title>
    <desc>Created with Sketch.</desc>
    <defs></defs>
    <g id="Page-1" stroke="none" stroke-width="1" fill="none" fill-rule="evenodd" sketch:type="MSPage">
        <g id="logo_eng" sketch:type="MSLayerGroup">
            <g id="Group" transform="translate(96.000000, 6.000000)" fill="#FFFFFF" sketch:type="MSShapeGroup">
                <path d="M18.6388067,23.5415115 L17.5212172,20.2370992 L8.61559905,20.2370992 L7.49800955,23.5415115 L0.894687351,23.5415115 L9.39390931,0.582137405 L16.7084248,0.582137405 L25.2415131,23.5415115 L18.6388067,23.5415115 L18.6388067,23.5415115 Z M13.0514749,6.43418321 L10.1728353,15.074229 L15.9294988,15.074229 L13.0514749,6.43418321 L13.0514749,6.43418321 Z" id="Fill-1"></path>
                <path d="M26.2057804,23.5415115 L26.2057804,6.91616794 L31.4205823,6.91616794 L31.4205823,8.94676336 C32.5043055,7.6040916 34.569537,6.46861069 36.5337852,6.46861069 L36.5337852,11.5632519 C36.2289881,11.4943969 35.7887255,11.424916 35.246864,11.424916 C33.8928258,11.424916 32.0979093,12.0108092 31.4205823,12.9397252 L31.4205823,23.5415115 L26.2057804,23.5415115" id="Fill-2"></path>
                <path d="M37.7745251,27.811145 L40.0435704,24.0234962 C41.2960095,25.4012214 43.1247924,25.9514351 45.0213079,25.9514351 C46.7478759,25.9514351 49.1856372,25.229084 49.1856372,22.1312366 L49.1856372,20.8567939 C47.831599,22.4742595 46.2060143,23.2667176 44.3439809,23.2667176 C40.3477518,23.2667176 37.1310644,20.4780916 37.1310644,14.8676641 C37.1310644,9.39432061 40.2467685,6.50303817 44.3439809,6.50303817 C46.172148,6.50303817 47.8654654,7.22538931 49.1856372,8.87853435 L49.1856372,6.91616794 L54.3665728,6.91616794 L54.3665728,22.0623817 C54.3665728,28.8427176 49.0846539,30.2892977 45.0213079,30.2892977 C42.210401,30.2892977 39.8742387,29.5663206 37.7745251,27.811145 L37.7745251,27.811145 Z M49.1856372,17.1048244 L49.1856372,12.6643053 C48.5427924,11.7698168 47.1542721,11.1839237 46.0705489,11.1839237 C44.0053174,11.1839237 42.4813317,12.4577405 42.4813317,14.8676641 C42.4813317,17.3113893 44.0053174,18.5852061 46.0705489,18.5852061 C47.1542721,18.5852061 48.5427924,17.9999389 49.1856372,17.1048244 L49.1856372,17.1048244 Z" id="Fill-3"></path>
                <path d="M68.4155656,23.5415115 L68.4155656,21.5453435 C67.3995752,22.7165038 65.5030597,23.9552672 62.7605012,23.9552672 C59.0358186,23.9552672 57.3763675,21.8201374 57.3763675,18.7579695 L57.3763675,6.91616794 L62.5911695,6.91616794 L62.5911695,16.5890382 C62.5911695,18.5852061 63.6071599,19.2737557 65.2998616,19.2737557 C66.7899809,19.2737557 67.8059714,18.4474962 68.4155656,17.6562901 L68.4155656,6.91616794 L73.6303675,6.91616794 L73.6303675,23.5415115 L68.4155656,23.5415115" id="Fill-4"></path>
                <path d="M75.4068115,21.4082595 L77.573642,17.7589466 C78.7934463,18.860626 81.4005394,19.9623053 83.3309212,19.9623053 C84.8881575,19.9623053 85.5316181,19.4458931 85.5316181,18.6884885 C85.5316181,16.5195573 76.0164057,18.6540611 76.0164057,11.9763817 C76.0164057,9.04941985 78.4880334,6.50303817 83.0255084,6.50303817 C85.7686826,6.50303817 88.1054606,7.39752672 89.865895,8.70577099 L87.8683962,12.217374 C86.8856563,11.2527786 85.0230072,10.3927176 83.0593747,10.3927176 C81.8408019,10.3927176 80.9941432,10.9091298 80.9941432,11.5970534 C80.9941432,13.5249924 90.5093556,11.6314809 90.5093556,18.4474962 C90.5093556,21.6148244 87.7661814,23.9552672 83.0593747,23.9552672 C80.1474845,23.9552672 77.1339952,22.9574962 75.4068115,21.4082595" id="Fill-5"></path>
                <path d="M20.2397613,53.587313 L16.8192601,39.1991298 L13.3993747,53.587313 L7.23631504,53.587313 L0.769073986,30.6279389 L7.30404773,30.6279389 L10.7245489,45.9462901 L14.5846969,30.6279389 L19.0544391,30.6279389 L22.9145871,45.9462901 L26.3006062,30.6279389 L32.8700621,30.6279389 L26.4022053,53.587313 L20.2397613,53.587313" id="Fill-6"></path>
                <path d="M31.9021002,45.2571145 C31.9021002,40.4385191 35.4913174,36.5488397 40.6045203,36.5488397 C45.4467924,36.5488397 48.9682768,40.1624733 48.9682768,45.8085802 L48.9682768,46.9440611 L37.3194845,46.9440611 C37.6248974,48.4932977 39.0466683,49.9054504 41.4173126,49.9054504 C42.5681527,49.9054504 44.5662673,49.3877863 45.4806587,48.4932977 L47.6813556,51.7977099 C46.0557709,53.2780916 43.3470788,54.0010687 40.8415847,54.0010687 C35.7961146,54.0010687 31.9021002,50.662229 31.9021002,45.2571145 L31.9021002,45.2571145 Z M40.6045203,40.6457099 C38.3354749,40.6457099 37.4555656,42.2969771 37.2523675,43.501313 L43.9905394,43.501313 C43.855074,42.3314046 43.0084153,40.6457099 40.6045203,40.6457099 L40.6045203,40.6457099 Z" id="Fill-7"></path>
                <path d="M50.9269833,30.6279389 L56.1417852,30.6279389 L56.1417852,53.5879389 L50.9269833,53.5879389 L50.9269833,30.6279389 Z" id="Fill-8"></path>
                <path d="M70.3274749,53.587313 L70.3274749,51.660626 C68.9734368,53.2442901 67.3139857,54.0010687 65.4852029,54.0010687 C61.4557232,54.0010687 58.2390358,50.9025954 58.2390358,45.2571145 C58.2390358,39.8188244 61.3879905,36.5488397 65.4852029,36.5488397 C67.2801193,36.5488397 69.0066874,37.2711908 70.3274749,38.9243359 L70.3274749,30.6279389 L75.5077947,30.6279389 L75.5077947,53.587313 L70.3274749,53.587313 L70.3274749,53.587313 Z M70.3274749,47.8047481 L70.3274749,42.7101069 C69.650148,41.8156183 68.2961098,41.2297252 67.1785203,41.2297252 C65.112673,41.2297252 63.5893031,42.7789618 63.5893031,45.2571145 C63.5893031,47.7365191 65.112673,49.3195573 67.1785203,49.3195573 C68.2961098,49.3195573 69.650148,48.6998626 70.3274749,47.8047481 L70.3274749,47.8047481 Z" id="Fill-9"></path>
                <path d="M78.1795418,32.417542 C78.1795418,30.7318473 79.4997136,29.3879237 81.1597804,29.3879237 C82.818,29.3879237 84.1387876,30.7318473 84.1387876,32.417542 C84.1387876,34.1044885 82.818,35.4815878 81.1597804,35.4815878 C79.4997136,35.4815878 78.1795418,34.1044885 78.1795418,32.417542 L78.1795418,32.417542 Z M78.5520716,36.9619695 L83.7668735,36.9619695 L83.7668735,53.5879389 L78.5520716,53.5879389 L78.5520716,36.9619695 Z" id="Fill-10"></path>
                <path d="M97.8269499,53.587313 L97.8269499,43.9845496 C97.8269499,41.9527023 96.7770931,41.2297252 95.1508926,41.2297252 C93.5936563,41.2297252 92.5776659,42.0904122 91.9686874,42.8484427 L91.9686874,53.587313 L86.7545012,53.587313 L86.7545012,36.9619695 L91.9686874,36.9619695 L91.9686874,38.9925649 C92.9501957,37.8226565 94.8805776,36.5488397 97.6237518,36.5488397 C101.348434,36.5488397 103.041752,38.7515725 103.041752,41.8156183 L103.041752,53.587313 L97.8269499,53.587313" id="Fill-11"></path>
                <path d="M105.724582,57.8569466 L107.994243,54.0692977 C109.247298,55.4470229 111.075465,55.9972366 112.971981,55.9972366 C114.698549,55.9972366 117.13631,55.2748855 117.13631,52.1770382 L117.13631,50.9025954 C115.782272,52.5200611 114.156687,53.3125191 112.294654,53.3125191 C108.298425,53.3125191 105.082353,50.5238931 105.082353,44.9134656 C105.082353,39.4401221 108.197442,36.5488397 112.294654,36.5488397 C114.122821,36.5488397 115.816138,37.2711908 117.13631,38.9243359 L117.13631,36.9619695 L122.317862,36.9619695 L122.317862,52.1081832 C122.317862,58.8885191 117.035327,60.3350992 112.971981,60.3350992 C110.161074,60.3350992 107.824296,59.6121221 105.724582,57.8569466 L105.724582,57.8569466 Z M117.13631,47.150626 L117.13631,42.7101069 C116.493465,41.8156183 115.105561,41.2297252 114.021838,41.2297252 C111.955375,41.2297252 110.432005,42.503542 110.432005,44.9134656 C110.432005,47.3571908 111.955375,48.6310076 114.021838,48.6310076 C115.105561,48.6310076 116.493465,48.0457405 117.13631,47.150626 L117.13631,47.150626 Z" id="Fill-12"></path>
                <path d="M132.649561,50.3523817 L135.730783,45.9112366 C137.355136,47.5637557 139.861862,48.940229 142.943084,48.940229 C144.940582,48.940229 146.159771,48.1496489 146.159771,47.0479695 C146.159771,43.9144427 133.360138,46.4282748 133.360138,37.5816641 C133.360138,33.7257863 136.577442,30.2830382 142.36674,30.2830382 C145.990439,30.2830382 149.14001,31.3847176 151.543905,33.4847939 L148.360468,37.7187481 C146.463952,36.135084 143.99294,35.3432519 141.758377,35.3432519 C140.06506,35.3432519 139.319384,36.0330534 139.319384,36.9963969 C139.319384,39.9214809 152.08515,37.788229 152.08515,46.3243664 C152.08515,50.9370229 148.733613,54.0010687 142.672153,54.0010687 C138.100811,54.0010687 134.917375,52.5557405 132.649561,50.3523817" id="Fill-13"></path>
                <path d="M153.113456,45.2571145 C153.113456,40.4385191 156.703289,36.5488397 161.815876,36.5488397 C166.658764,36.5488397 170.180248,40.1624733 170.180248,45.8085802 L170.180248,46.9440611 L158.531456,46.9440611 C158.835637,48.4932977 160.25864,49.9054504 162.628668,49.9054504 C163.779508,49.9054504 165.777623,49.3877863 166.69263,48.4932977 L168.893327,51.7977099 C167.267742,53.2780916 164.55905,54.0010687 162.05294,54.0010687 C157.00747,54.0010687 153.113456,50.662229 153.113456,45.2571145 L153.113456,45.2571145 Z M161.815876,40.6457099 C159.547446,40.6457099 158.667537,42.2969771 158.464339,43.501313 L165.202511,43.501313 C165.06643,42.3314046 164.219771,40.6457099 161.815876,40.6457099 L161.815876,40.6457099 Z" id="Fill-14"></path>
                <path d="M172.098315,53.587313 L172.098315,36.9619695 L177.313117,36.9619695 L177.313117,38.9925649 C178.39684,37.6498931 180.462687,36.5144122 182.426936,36.5144122 L182.426936,41.6090534 C182.121523,41.5401985 181.68126,41.4707176 181.140014,41.4707176 C179.784745,41.4707176 177.990444,42.0566107 177.313117,42.9855267 L177.313117,53.587313 L172.098315,53.587313" id="Fill-15"></path>
                <path d="M189.123236,53.587313 L182.68863,36.9619695 L188.175594,36.9619695 L191.866411,47.4955267 L195.591093,36.9619695 L201.109461,36.9619695 L194.676702,53.587313 L189.123236,53.587313" id="Fill-16"></path>
                <path d="M201.664253,32.417542 C201.664253,30.7318473 202.984425,29.3879237 204.644492,29.3879237 C206.302711,29.3879237 207.623499,30.7318473 207.623499,32.417542 C207.623499,34.1044885 206.302711,35.4815878 204.644492,35.4815878 C202.984425,35.4815878 201.664253,34.1044885 201.664253,32.417542 L201.664253,32.417542 Z M202.036783,36.9619695 L207.251585,36.9619695 L207.251585,53.5879389 L202.036783,53.5879389 L202.036783,36.9619695 Z" id="Fill-17"></path>
                <path d="M209.117928,45.2571145 C209.117928,40.0598168 212.943594,36.5488397 218.057413,36.5488397 C221.578897,36.5488397 223.779594,38.1318779 224.762334,39.6122595 L221.375699,42.8133893 C220.732239,41.8494198 219.682382,41.2297252 218.294477,41.2297252 C216.127031,41.2297252 214.46758,42.7445344 214.46758,45.2571145 C214.46758,47.7703206 216.127031,49.3195573 218.294477,49.3195573 C219.682382,49.3195573 220.732239,48.6310076 221.375699,47.7020916 L224.762334,50.9370229 C223.779594,52.3829771 221.578897,54.0010687 218.057413,54.0010687 C212.943594,54.0010687 209.117928,50.4894656 209.117928,45.2571145" id="Fill-18"></path>
                <path d="M224.858391,45.2571145 C224.858391,40.4385191 228.448224,36.5488397 233.560811,36.5488397 C238.403699,36.5488397 241.925184,40.1624733 241.925184,45.8085802 L241.925184,46.9440611 L230.276391,46.9440611 C230.580573,48.4932977 232.002959,49.9054504 234.373604,49.9054504 C235.524444,49.9054504 237.521943,49.3877863 238.437566,48.4932977 L240.638263,51.7977099 C239.012062,53.2780916 236.303986,54.0010687 233.79726,54.0010687 C228.752406,54.0010687 224.858391,50.662229 224.858391,45.2571145 L224.858391,45.2571145 Z M233.560811,40.6457099 C231.292382,40.6457099 230.411857,42.2969771 230.208659,43.501313 L236.947446,43.501313 C236.811365,42.3314046 235.964706,40.6457099 233.560811,40.6457099 L233.560811,40.6457099 Z" id="Fill-19"></path>
                <path d="M242.397465,51.4540611 L244.564912,47.8047481 C245.7841,48.9064275 248.391809,50.0081069 250.321575,50.0081069 C251.879427,50.0081069 252.522888,49.4916947 252.522888,48.7336641 C252.522888,46.5653588 243.00706,48.6998626 243.00706,42.0221832 C243.00706,39.0952214 245.478687,36.5488397 250.016162,36.5488397 C252.759337,36.5488397 255.096115,37.4433282 256.857165,38.7515725 L254.85905,42.2631756 C253.876926,41.2985802 252.013661,40.4385191 250.050029,40.4385191 C248.831456,40.4385191 247.984797,40.9549313 247.984797,41.642855 C247.984797,43.5707939 257.50001,41.6772824 257.50001,48.4932977 C257.50001,51.660626 254.756835,54.0010687 250.050029,54.0010687 C247.138138,54.0010687 244.124649,53.0032977 242.397465,51.4540611" id="Fill-20"></path>
                <path d="M1.05663007,63.0517405 L257.409494,63.0517405 L257.409494,63.6776947 L1.05663007,63.6776947 L1.05663007,63.0517405 Z" id="Fill-21"></path>
                <path d="M2.74748449,81.6100305 L2.74748449,74.8221832 L0.332505967,74.8221832 L0.332505967,73.2572977 L6.92166587,73.2572977 L6.92166587,74.8221832 L4.51900239,74.8221832 L4.51900239,81.6100305 L2.74748449,81.6100305" id="Fill-22"></path>
                <path d="M17.6462148,81.6100305 L15.1444153,78.2661832 L14.5003389,79.0423664 L14.5003389,81.6100305 L12.7417518,81.6100305 L12.7417518,73.2572977 L14.5003389,73.2572977 L14.5003389,76.9886107 L17.4233126,73.2572977 L19.5907589,73.2572977 L16.3088019,77.1770229 L19.8136611,81.6100305 L17.6462148,81.6100305" id="Fill-23"></path>
                <path d="M24.5623389,77.4399237 C24.5623389,74.8722595 26.482253,73.1208397 28.9594224,73.1208397 C30.7795847,73.1208397 31.8325203,74.1217405 32.4150215,75.1608244 L30.9039666,75.9125954 C30.5572983,75.235313 29.8140859,74.6976183 28.9594224,74.6976183 C27.4606826,74.6976183 26.3708019,75.8625191 26.3708019,77.4399237 C26.3708019,79.0179542 27.4606826,80.182229 28.9594224,80.182229 C29.8140859,80.182229 30.5572983,79.6564275 30.9039666,78.9678779 L32.4150215,79.7065038 C31.8202053,80.7455878 30.7795847,81.7602595 28.9594224,81.7602595 C26.482253,81.7602595 24.5623389,80.0069618 24.5623389,77.4399237" id="Fill-24"></path>
                <path d="M46.3932029,73.2572977 L48.1524057,73.2572977 L48.1524057,81.6100305 L46.3932029,81.6100305 L46.3932029,73.2572977 Z" id="Fill-25"></path>
                <path d="M60.3997088,81.6100305 L56.4613604,76.1623511 L56.4613604,81.6100305 L54.7021575,81.6100305 L54.7021575,73.2572977 L56.5106205,73.2572977 L60.3381337,78.5046718 L60.3381337,73.2572977 L62.0967208,73.2572977 L62.0967208,81.6100305 L60.3997088,81.6100305" id="Fill-26"></path>
                <path d="M68.6643294,81.6100305 L68.6643294,73.2572977 L71.9216563,73.2572977 C74.5108926,73.2572977 76.3064248,74.9223359 76.3064248,77.4399237 C76.3064248,79.9568855 74.5108926,81.6100305 71.9216563,81.6100305 L68.6643294,81.6100305 L68.6643294,81.6100305 Z M74.5108926,77.4399237 C74.5108926,75.9626718 73.619284,74.8221832 71.9216563,74.8221832 L70.4229165,74.8221832 L70.4229165,80.0438931 L71.9216563,80.0438931 C73.5564773,80.0438931 74.5108926,78.8545802 74.5108926,77.4399237 L74.5108926,77.4399237 Z" id="Fill-27"></path>
                <path d="M82.3802005,78.2787023 L82.3802005,73.2572977 L84.1640334,73.2572977 L84.1640334,78.2161069 C84.1640334,79.3810076 84.8333556,80.182229 86.1085776,80.182229 C87.3844153,80.182229 88.0401909,79.3810076 88.0401909,78.2161069 L88.0401909,73.2572977 L89.8369547,73.2572977 L89.8369547,78.2661832 C89.8369547,80.3449771 88.6226921,81.7602595 86.1085776,81.7602595 C83.5938473,81.7602595 82.3802005,80.332458 82.3802005,78.2787023" id="Fill-28"></path>
                <path d="M95.7315465,80.4326107 L96.6853461,79.0805496 C97.2672315,79.6939847 98.1723866,80.2078931 99.3109117,80.2078931 C100.277026,80.2078931 100.747461,79.7565802 100.747461,79.280855 C100.747461,77.8029771 95.9920095,78.8176489 95.9920095,75.6747328 C95.9920095,74.2844885 97.1810263,73.1327328 99.1249547,73.1327328 C100.437737,73.1327328 101.528234,73.5339695 102.345952,74.2963817 L101.367523,75.5996183 C100.6982,74.9724122 99.8072076,74.6857252 98.9648592,74.6857252 C98.208716,74.6857252 97.7875418,75.0231145 97.7875418,75.5238779 C97.7875418,76.8515267 102.531294,75.9626718 102.531294,79.0805496 C102.531294,80.6072519 101.454344,81.7602595 99.2247064,81.7602595 C97.6391456,81.7602595 96.499389,81.221313 95.7315465,80.4326107" id="Fill-29"></path>
                <path d="M110.452325,81.6100305 L110.452325,74.8221832 L108.03673,74.8221832 L108.03673,73.2572977 L114.62589,73.2572977 L114.62589,74.8221832 L112.223227,74.8221832 L112.223227,81.6100305 L110.452325,81.6100305" id="Fill-30"></path>
                <path d="M125.115222,81.6100305 L123.492716,78.6417557 L122.204563,78.6417557 L122.204563,81.6100305 L120.44536,81.6100305 L120.44536,73.2572977 L124.309819,73.2572977 C126.031461,73.2572977 127.085012,74.3965344 127.085012,75.9495267 C127.085012,77.4274046 126.167542,78.2161069 125.275933,78.4289313 L127.134272,81.6100305 L125.115222,81.6100305 L125.115222,81.6100305 Z M125.288248,75.9495267 C125.288248,75.249084 124.755623,74.8221832 124.049971,74.8221832 L122.204563,74.8221832 L122.204563,77.0768702 L124.049971,77.0768702 C124.755623,77.0768702 125.288248,76.6512214 125.288248,75.9495267 L125.288248,75.9495267 Z" id="Fill-31"></path>
                <path d="M133.29179,73.2572977 L135.050377,73.2572977 L135.050377,81.6100305 L133.29179,81.6100305 L133.29179,73.2572977 Z" id="Fill-32"></path>
                <path d="M147.260735,81.6100305 L146.75274,80.1941221 L143.21032,80.1941221 L142.69001,81.6100305 L140.684506,81.6100305 L143.879642,73.2572977 L146.084033,73.2572977 L149.266854,81.6100305 L147.260735,81.6100305 L147.260735,81.6100305 Z M144.981838,75.0362595 L143.693069,78.6292366 L146.26999,78.6292366 L144.981838,75.0362595 L144.981838,75.0362595 Z" id="Fill-33"></path>
                <path d="M154.916377,81.6100305 L154.916377,73.2572977 L156.674964,73.2572977 L156.674964,80.0438931 L160.167508,80.0438931 L160.167508,81.6100305 L154.916377,81.6100305" id="Fill-34"></path>
                <path d="M179.980554,81.6100305 L179.980554,78.1034351 L176.07915,78.1034351 L176.07915,81.6100305 L174.320563,81.6100305 L174.320563,73.2572977 L176.07915,73.2572977 L176.07915,76.5385496 L179.980554,76.5385496 L179.980554,73.2572977 L181.752072,73.2572977 L181.752072,81.6100305 L179.980554,81.6100305" id="Fill-35"></path>
                <path d="M187.890501,77.4399237 C187.890501,74.9223359 189.711895,73.1208397 192.201379,73.1208397 C194.702563,73.1208397 196.523341,74.9223359 196.523341,77.4399237 C196.523341,79.9568855 194.702563,81.7602595 192.201379,81.7602595 C189.711895,81.7602595 187.890501,79.9568855 187.890501,77.4399237 L187.890501,77.4399237 Z M194.714878,77.4399237 C194.714878,75.8750382 193.724134,74.6976183 192.201379,74.6976183 C190.677394,74.6976183 189.698964,75.8750382 189.698964,77.4399237 C189.698964,78.9922901 190.677394,80.182229 192.201379,80.182229 C193.724134,80.182229 194.714878,78.9922901 194.714878,77.4399237 L194.714878,77.4399237 Z" id="Fill-36"></path>
                <path d="M202.650687,81.6100305 L202.650687,73.2572977 L204.40989,73.2572977 L204.40989,80.0438931 L207.902434,80.0438931 L207.902434,81.6100305 L202.650687,81.6100305" id="Fill-37"></path>
                <path d="M213.770549,81.6100305 L213.770549,73.2572977 L217.027876,73.2572977 C219.617112,73.2572977 221.412644,74.9223359 221.412644,77.4399237 C221.412644,79.9568855 219.617112,81.6100305 217.027876,81.6100305 L213.770549,81.6100305 L213.770549,81.6100305 Z M219.617112,77.4399237 C219.617112,75.9626718 218.725504,74.8221832 217.027876,74.8221832 L215.529752,74.8221832 L215.529752,80.0438931 L217.027876,80.0438931 C218.662697,80.0438931 219.617112,78.8545802 219.617112,77.4399237 L219.617112,77.4399237 Z" id="Fill-38"></path>
                <path d="M227.558463,73.2572977 L229.317666,73.2572977 L229.317666,81.6100305 L227.558463,81.6100305 L227.558463,73.2572977 Z" id="Fill-39"></path>
                <path d="M241.564353,81.6100305 L237.625389,76.1623511 L237.625389,81.6100305 L235.866802,81.6100305 L235.866802,73.2572977 L237.675265,73.2572977 L241.502162,78.5046718 L241.502162,73.2572977 L243.261365,73.2572977 L243.261365,81.6100305 L241.564353,81.6100305" id="Fill-40"></path>
                <path d="M249.382554,77.4399237 C249.382554,74.797771 251.364659,73.1208397 253.779637,73.1208397 C255.501279,73.1208397 256.578229,73.9971756 257.197675,74.9861832 L255.736496,75.7867786 C255.364582,75.1990076 254.658931,74.6976183 253.779637,74.6976183 C252.280897,74.6976183 251.190401,75.8625191 251.190401,77.4399237 C251.190401,79.0179542 252.280897,80.182229 253.779637,80.182229 C254.509919,80.182229 255.203871,79.8567328 255.538224,79.5437557 L255.538224,78.5416031 L253.358463,78.5416031 L253.358463,76.9886107 L257.296811,76.9886107 L257.296811,80.1941221 C256.454463,81.1468244 255.278377,81.7727786 253.779637,81.7727786 C251.364659,81.7727786 249.382554,80.0695573 249.382554,77.4399237" id="Fill-41"></path>
            </g>
            <path d="M81.918528,6.26102817 L81.918528,23.3302254 L53.0839689,52.0866268 C50.8851801,54.3091197 47.8369876,55.6948873 44.4625839,55.7143169 C37.7131491,55.7556831 32.2077081,50.3179085 32.167559,43.5752183 C32.1487391,40.2038732 33.4981242,37.1427746 35.6975404,34.9196549 L64.2786584,6.26102817 L81.918528,6.26102817" id="Fill-16" fill="#DB322A" sketch:type="MSShapeGroup"></path>
            <path d="M59.9218571,58.5146831 C59.8791988,58.5579296 59.8308944,58.5949085 59.790118,58.6381549 C55.845472,63.0812606 50.1179565,65.9148451 43.7053975,65.9537042 C31.7334472,66.0232746 21.9696957,56.3849507 21.8994348,44.4232254 C21.861795,38.0171056 24.6276894,32.2609366 29.0296584,28.2697254 C29.0716894,28.2264789 29.1074472,28.1788451 29.1494783,28.1355986 L54.6058696,2.39955634 C51.0024907,1.45628169 47.2215776,0.954873239 43.3195901,0.97743662 C19.3750621,1.11971127 0.0784161491,20.6282606 0.220819876,44.5517113 C0.362596273,68.4732817 19.8888447,87.7530634 43.834,87.610162 C67.7791553,87.4691408 87.0751739,67.9599648 86.9340248,44.0371408 C86.9108137,40.1393169 86.3644099,36.3680986 85.3763665,32.7805211 L59.9218571,58.5146831" id="Fill-17" fill="#FFFFFF" sketch:type="MSShapeGroup"></path>
        </g>
    </g>
</svg>