<?xml version="1.0" encoding="UTF-8" standalone="no"?>
<svg width="303px" height="89px" viewBox="0 0 303 89" version="1.1" xmlns="http://www.w3.org/2000/svg" xmlns:xlink="http://www.w3.org/1999/xlink" xmlns:sketch="http://www.bohemiancoding.com/sketch/ns">
    <!-- Generator: Sketch 3.0.4 (8053) - http://www.bohemiancoding.com/sketch -->
    <title>logo</title>
    <desc>Created with Sketch.</desc>
    <defs></defs>
    <g id="Page-1" stroke="none" stroke-width="1" fill="none" fill-rule="evenodd" sketch:type="MSPage">
        <g id="Landscape-Retina" sketch:type="MSArtboardGroup" transform="translate(-796.000000, -776.000000)">
            <g id="logo" sketch:type="MSLayerGroup" transform="translate(796.000000, 777.000000)">
                <path d="M114.044056,28.2029718 L112.905453,24.8936761 L103.832391,24.8936761 L102.693789,28.2029718 L95.9669379,28.2029718 L104.625963,5.21339437 L112.077379,5.21339437 L120.770907,28.2029718 L114.044056,28.2029718 L114.044056,28.2029718 Z M108.351671,11.0723521 L105.418907,19.7235282 L111.284435,19.7235282 L108.351671,11.0723521 L108.351671,11.0723521 Z" id="Fill-1" fill="#FFFFFF" sketch:type="MSShapeGroup"></path>
                <path d="M127.08372,26.2380775 L127.08372,34.5445352 L121.77087,34.5445352 L121.77087,11.5549577 L127.08372,11.5549577 L127.08372,13.4853803 C128.394839,11.8996761 130.119366,11.1412958 132.017037,11.1412958 C136.191286,11.1412958 139.331068,14.2431338 139.331068,19.8614155 C139.331068,25.5147958 136.191286,28.6166338 132.017037,28.6166338 C130.154497,28.6166338 128.463845,27.8920986 127.08372,26.2380775 L127.08372,26.2380775 Z M133.914708,19.8614155 C133.914708,17.3800704 132.327565,15.828838 130.258006,15.828838 C129.119404,15.828838 127.73928,16.449331 127.08372,17.3455986 L127.08372,22.4117042 C127.73928,23.2735 129.119404,23.9284648 130.258006,23.9284648 C132.327565,23.9284648 133.914708,22.3778592 133.914708,19.8614155 L133.914708,19.8614155 Z" id="Fill-2" fill="#FFFFFF" sketch:type="MSShapeGroup"></path>
                <path d="M154.732627,16.1735563 L146.832671,16.1735563 L146.832671,28.2029718 L141.51982,28.2029718 L141.51982,11.5549577 L154.732627,11.5549577 L154.732627,16.1735563" id="Fill-3" fill="#FFFFFF" sketch:type="MSShapeGroup"></path>
                <path d="M157.78082,29.9604085 C158.160354,30.1672394 158.677901,30.2706549 159.091938,30.2706549 C160.299547,30.2706549 161.058615,30.0299789 161.33464,29.3399155 L161.714174,28.4436479 L155.090205,11.5549577 L160.679081,11.5549577 L164.439292,22.1020845 L168.234006,11.5549577 L173.857385,11.5549577 L166.336963,30.5815282 C164.991342,34.0964014 162.473242,34.8898803 159.298957,34.9581972 C158.815913,34.9581972 157.574429,34.8547817 157.022379,34.6824225 L157.78082,29.9604085" id="Fill-4" fill="#FFFFFF" sketch:type="MSShapeGroup"></path>
                <path d="M173.082634,19.8614155 C173.082634,14.6567958 176.981484,11.1412958 182.190199,11.1412958 C185.779149,11.1412958 188.021224,12.727 189.020559,14.208662 L185.571503,17.4145423 C184.916571,16.449331 183.846348,15.828838 182.43172,15.828838 C180.223522,15.828838 178.534124,17.3455986 178.534124,19.8614155 C178.534124,22.3778592 180.223522,23.9284648 182.43172,23.9284648 C183.846348,23.9284648 184.916571,23.2396549 185.571503,22.3089155 L189.020559,25.5486408 C188.021224,26.9964577 185.779149,28.6166338 182.190199,28.6166338 C176.981484,28.6166338 173.082634,25.100507 173.082634,19.8614155" id="Fill-5" fill="#FFFFFF" sketch:type="MSShapeGroup"></path>
                <path d="M97.2429255,46.8096127 C97.2429255,39.709669 102.624783,34.9180845 109.697292,34.9180845 C115.251037,34.9180845 118.218304,38.0550211 119.736441,41.0879155 L114.630609,43.5009437 C113.87154,41.6739366 111.904863,40.1578028 109.697292,40.1578028 C105.937081,40.1578028 103.280342,43.0528099 103.280342,46.8096127 C103.280342,50.5664155 105.937081,53.4614225 109.697292,53.4614225 C111.904863,53.4614225 113.87154,51.9452887 114.630609,50.1182817 L119.736441,52.5313099 C118.252807,55.4958873 115.251037,58.7011408 109.697292,58.7011408 C102.624783,58.7011408 97.2429255,53.8750845 97.2429255,46.8096127" id="Fill-6" fill="#FFFFFF" sketch:type="MSShapeGroup"></path>
                <path d="M121.118447,58.2874789 L121.118447,41.6394648 L132.434211,41.6394648 C135.987404,41.6394648 137.678056,43.8111901 137.678056,45.9133451 C137.678056,47.8782394 136.435944,49.2226408 134.814298,49.7046197 C136.711969,50.0844366 138.05759,51.7039859 138.05759,53.7378239 C138.05759,56.1846972 136.297932,58.2874789 132.744739,58.2874789 L121.118447,58.2874789 L121.118447,58.2874789 Z M132.330702,46.7751408 C132.330702,46.1546479 131.882161,45.7409859 131.192099,45.7409859 L126.431298,45.7409859 L126.431298,47.8092958 L131.192099,47.8092958 C131.882161,47.8092958 132.330702,47.361162 132.330702,46.7751408 L132.330702,46.7751408 Z M132.710236,53.0483873 C132.710236,52.3934225 132.192689,51.8763451 131.399118,51.8763451 L126.431298,51.8763451 L126.431298,54.1859577 L131.399118,54.1859577 C132.158186,54.1859577 132.710236,53.7378239 132.710236,53.0483873 L132.710236,53.0483873 Z" id="Fill-7" fill="#FFFFFF" sketch:type="MSShapeGroup"></path>
                <path d="M150.569043,58.2874789 L150.569043,56.632831 C149.53395,57.8731901 147.53277,58.7011408 145.394205,58.7011408 C142.840975,58.7011408 139.667317,56.9775493 139.667317,53.2207465 C139.667317,49.1875423 142.840975,47.8782394 145.394205,47.8782394 C147.601776,47.8782394 149.568453,48.5676761 150.569043,49.8080352 L150.569043,47.8092958 C150.569043,46.3614789 149.326932,45.3962676 147.187739,45.3962676 C145.532217,45.3962676 143.807062,46.0167606 142.461441,47.154331 L140.564398,43.8111901 C142.70359,41.9841831 145.56672,41.2258028 148.119323,41.2258028 C152.121056,41.2258028 155.881267,42.7080915 155.881267,47.8782394 L155.881267,58.2874789 L150.569043,58.2874789 L150.569043,58.2874789 Z M150.569043,54.0129718 L150.569043,52.5313099 C150.016994,51.7729296 148.774882,51.3592676 147.601776,51.3592676 C146.187776,51.3592676 144.945665,51.9797606 144.945665,53.2896901 C144.945665,54.5996197 146.187776,55.2194859 147.601776,55.2194859 C148.774882,55.2194859 150.016994,54.8058239 150.569043,54.0129718 L150.569043,54.0129718 Z" id="Fill-8" fill="#FFFFFF" sketch:type="MSShapeGroup"></path>
                <path d="M164.246075,56.3225845 L164.246075,64.6290423 L158.933851,64.6290423 L158.933851,41.6394648 L164.246075,41.6394648 L164.246075,43.5698873 C165.557193,41.9841831 167.282348,41.2258028 169.179391,41.2258028 C173.35364,41.2258028 176.49405,44.3276408 176.49405,49.9459225 C176.49405,55.5986761 173.35364,58.7011408 169.179391,58.7011408 C167.316851,58.7011408 165.626199,57.9766056 164.246075,56.3225845 L164.246075,56.3225845 Z M171.077062,49.9459225 C171.077062,47.4645775 169.489919,45.9133451 167.42036,45.9133451 C166.281758,45.9133451 164.901634,46.533838 164.246075,47.4301056 L164.246075,52.4962113 C164.901634,53.358007 166.281758,54.0129718 167.42036,54.0129718 C169.489919,54.0129718 171.077062,52.4623662 171.077062,49.9459225 L171.077062,49.9459225 Z" id="Fill-9" fill="#FFFFFF" sketch:type="MSShapeGroup"></path>
                <path d="M186.363193,46.8096127 C186.363193,39.709669 191.744422,34.9180845 198.816932,34.9180845 C204.370677,34.9180845 207.338571,38.0550211 208.856708,41.0879155 L203.750876,43.5009437 C202.99118,41.6739366 201.024503,40.1578028 198.816932,40.1578028 C195.05672,40.1578028 192.399981,43.0528099 192.399981,46.8096127 C192.399981,50.5664155 195.05672,53.4614225 198.816932,53.4614225 C201.024503,53.4614225 202.99118,51.9452887 203.750876,50.1182817 L208.856708,52.5313099 C207.373075,55.4958873 204.370677,58.7011408 198.816932,58.7011408 C191.744422,58.7011408 186.363193,53.8750845 186.363193,46.8096127" id="Fill-10" fill="#FFFFFF" sketch:type="MSShapeGroup"></path>
                <path d="M209.615149,49.9459225 C209.615149,45.1211197 213.271224,41.2258028 218.481193,41.2258028 C223.413882,41.2258028 227.00095,44.8447183 227.00095,50.4974718 L227.00095,51.6350423 L215.134391,51.6350423 C215.444919,53.1862746 216.892795,54.5996197 219.308012,54.5996197 C220.481745,54.5996197 222.516801,54.0825423 223.447758,53.1862746 L225.69046,56.4949437 C224.034938,57.9766056 221.274689,58.7011408 218.722087,58.7011408 C213.581124,58.7011408 209.615149,55.3573732 209.615149,49.9459225 L209.615149,49.9459225 Z M218.481193,45.3279507 C216.168857,45.3279507 215.271776,46.9813451 215.064758,48.1878592 L221.930248,48.1878592 C221.792863,47.0164437 220.930286,45.3279507 218.481193,45.3279507 L218.481193,45.3279507 Z" id="Fill-11" fill="#FFFFFF" sketch:type="MSShapeGroup"></path>
                <path d="M234.23782,56.3225845 L234.23782,64.6290423 L228.924969,64.6290423 L228.924969,41.6394648 L234.23782,41.6394648 L234.23782,43.5698873 C235.548938,41.9841831 237.274093,41.2258028 239.170509,41.2258028 C243.344758,41.2258028 246.485168,44.3276408 246.485168,49.9459225 C246.485168,55.5986761 243.344758,58.7011408 239.170509,58.7011408 C237.307969,58.7011408 235.617317,57.9766056 234.23782,56.3225845 L234.23782,56.3225845 Z M241.06818,49.9459225 C241.06818,47.4645775 239.481665,45.9133451 237.410851,45.9133451 C236.272876,45.9133451 234.893379,46.533838 234.23782,47.4301056 L234.23782,52.4962113 C234.893379,53.358007 236.272876,54.0129718 237.410851,54.0129718 C239.481665,54.0129718 241.06818,52.4623662 241.06818,49.9459225 L241.06818,49.9459225 Z" id="Fill-12" fill="#FFFFFF" sketch:type="MSShapeGroup"></path>
                <path d="M248.674547,58.2874789 L248.674547,41.6394648 L259.990311,41.6394648 C263.543503,41.6394648 265.234155,43.8111901 265.234155,45.9133451 C265.234155,47.8782394 263.991416,49.2226408 262.370398,49.7046197 C264.267441,50.0844366 265.612435,51.7039859 265.612435,53.7378239 C265.612435,56.1846972 263.853404,58.2874789 260.300211,58.2874789 L248.674547,58.2874789 L248.674547,58.2874789 Z M259.885547,46.7751408 C259.885547,46.1546479 259.437634,45.7409859 258.747571,45.7409859 L253.987398,45.7409859 L253.987398,47.8092958 L258.747571,47.8092958 C259.437634,47.8092958 259.885547,47.361162 259.885547,46.7751408 L259.885547,46.7751408 Z M260.265708,53.0483873 C260.265708,52.3934225 259.748789,51.8763451 258.95459,51.8763451 L253.987398,51.8763451 L253.987398,54.1859577 L258.95459,54.1859577 C259.714286,54.1859577 260.265708,53.7378239 260.265708,53.0483873 L260.265708,53.0483873 Z" id="Fill-13" fill="#FFFFFF" sketch:type="MSShapeGroup"></path>
                <path d="M268.337553,58.2874789 L268.337553,41.6394648 L273.650404,41.6394648 L273.650404,50.3595845 L279.584311,41.6394648 L284.931037,41.6394648 L284.931037,58.2874789 L279.618814,58.2874789 L279.618814,49.1192254 L273.408882,58.2874789 L268.337553,58.2874789" id="Fill-14" fill="#FFFFFF" sketch:type="MSShapeGroup"></path>
                <path d="M286.986168,49.9459225 C286.986168,44.7413028 290.885019,41.2258028 296.093106,41.2258028 C299.682056,41.2258028 301.92413,42.811507 302.924093,44.293169 L299.475037,47.4990493 C298.819478,46.533838 297.749882,45.9133451 296.334627,45.9133451 C294.127056,45.9133451 292.437031,47.4301056 292.437031,49.9459225 C292.437031,52.4623662 294.127056,54.0129718 296.334627,54.0129718 C297.749882,54.0129718 298.819478,53.324162 299.475037,52.3934225 L302.924093,55.6331479 C301.92413,57.0809648 299.682056,58.7011408 296.093106,58.7011408 C290.885019,58.7011408 286.986168,55.1850141 286.986168,49.9459225" id="Fill-15" fill="#FFFFFF" sketch:type="MSShapeGroup"></path>
                <path d="M81.918528,5.26102817 L81.918528,22.3302254 L53.0839689,51.0866268 C50.8851801,53.3091197 47.8369876,54.6948873 44.4625839,54.7143169 C37.7131491,54.7556831 32.2077081,49.3179085 32.167559,42.5752183 C32.1487391,39.2038732 33.4981242,36.1427746 35.6975404,33.9196549 L64.2786584,5.26102817 L81.918528,5.26102817" id="Fill-16" fill="#DB322A" sketch:type="MSShapeGroup"></path>
                <path d="M59.9218571,57.5146831 C59.8791988,57.5579296 59.8308944,57.5949085 59.790118,57.6381549 C55.845472,62.0812606 50.1179565,64.9148451 43.7053975,64.9537042 C31.7334472,65.0232746 21.9696957,55.3849507 21.8994348,43.4232254 C21.861795,37.0171056 24.6276894,31.2609366 29.0296584,27.2697254 C29.0716894,27.2264789 29.1074472,27.1788451 29.1494783,27.1355986 L54.6058696,1.39955634 C51.0024907,0.45628169 47.2215776,-0.0451267606 43.3195901,-0.0225633803 C19.3750621,0.119711268 0.0784161491,19.6282606 0.220819876,43.5517113 C0.362596273,67.4732817 19.8888447,86.7530634 43.834,86.610162 C67.7791553,86.4691408 87.0751739,66.9599648 86.9340248,43.0371408 C86.9108137,39.1393169 86.3644099,35.3680986 85.3763665,31.7805211 L59.9218571,57.5146831" id="Fill-17" fill="#FFFFFF" sketch:type="MSShapeGroup"></path>
                <path d="M97.2843292,67.8079718 L302.839404,67.8079718 L302.839404,68.4347324 L97.2843292,68.4347324 L97.2843292,67.8079718 Z" id="Fill-18" fill="#FFFFFF" sketch:type="MSShapeGroup"></path>
                <path d="M102.796671,86.3450423 L102.796671,79.5490775 L98.8438696,79.5490775 L98.8438696,86.3450423 L97.0616273,86.3450423 L97.0616273,77.9821761 L104.590832,77.9821761 L104.590832,86.3450423 L102.796671,86.3450423" id="Fill-19" fill="#FFFFFF" sketch:type="MSShapeGroup"></path>
                <path d="M106.230043,86.3450423 L106.230043,77.9821761 L110.145832,77.9821761 C111.965714,77.9821761 112.956894,79.2106268 112.956894,80.6778732 C112.956894,82.1319577 111.953168,83.3735704 110.145832,83.3735704 L108.012286,83.3735704 L108.012286,86.3450423 L106.230043,86.3450423 L106.230043,86.3450423 Z M111.137012,80.6778732 C111.137012,79.9759014 110.610056,79.5490775 109.907447,79.5490775 L108.012286,79.5490775 L108.012286,81.806669 L109.907447,81.806669 C110.610056,81.806669 111.137012,81.3679366 111.137012,80.6778732 L111.137012,80.6778732 Z" id="Fill-20" fill="#FFFFFF" sketch:type="MSShapeGroup"></path>
                <path d="M113.757994,82.1701901 C113.757994,79.6493592 115.602342,77.8449155 118.124832,77.8449155 C120.65987,77.8449155 122.504845,79.6493592 122.504845,82.1701901 C122.504845,84.6903944 120.65987,86.4954648 118.124832,86.4954648 C115.602342,86.4954648 113.757994,84.6903944 113.757994,82.1701901 L113.757994,82.1701901 Z M120.672416,82.1701901 C120.672416,80.602662 119.668689,79.4243521 118.124832,79.4243521 C116.581602,79.4243521 115.589795,80.602662 115.589795,82.1701901 C115.589795,83.7245563 116.581602,84.9160282 118.124832,84.9160282 C119.668689,84.9160282 120.672416,83.7245563 120.672416,82.1701901 L120.672416,82.1701901 Z" id="Fill-21" fill="#FFFFFF" sketch:type="MSShapeGroup"></path>
                <path d="M130.986335,86.3450423 L130.986335,80.4898451 L128.62695,86.3450423 L127.849062,86.3450423 L125.489677,80.4898451 L125.489677,86.3450423 L123.707435,86.3450423 L123.707435,77.9821761 L126.204832,77.9821761 L128.238006,83.0351197 L130.27118,77.9821761 L132.780497,77.9821761 L132.780497,86.3450423 L130.986335,86.3450423" id="Fill-22" fill="#FFFFFF" sketch:type="MSShapeGroup"></path>
                <path d="M136.218261,77.9821761 L136.218261,80.9542746 L138.35118,80.9542746 C140.158516,80.9542746 141.16287,82.1952606 141.16287,83.6493451 C141.16287,85.1165915 140.171062,86.3450423 138.35118,86.3450423 L134.436019,86.3450423 L134.436019,77.9821761 L136.218261,77.9821761 L136.218261,77.9821761 Z M136.218261,82.5211761 L136.218261,84.7775141 L138.113422,84.7775141 C138.816031,84.7775141 139.342988,84.3513169 139.342988,83.6493451 C139.342988,82.9599085 138.816031,82.5211761 138.113422,82.5211761 L136.218261,82.5211761 L136.218261,82.5211761 Z M141.865478,77.9821761 L143.660267,77.9821761 L143.660267,86.3450423 L141.865478,86.3450423 L141.865478,77.9821761 Z" id="Fill-23" fill="#FFFFFF" sketch:type="MSShapeGroup"></path>
                <path d="M155.994814,77.9821761 L155.994814,86.3450423 L145.315161,86.3450423 L145.315161,77.9821761 L147.096776,77.9821761 L147.096776,84.7775141 L149.757907,84.7775141 L149.757907,77.9821761 L151.552068,77.9821761 L151.552068,84.7775141 L154.200025,84.7775141 L154.200025,77.9821761 L155.994814,77.9821761" id="Fill-24" fill="#FFFFFF" sketch:type="MSShapeGroup"></path>
                <path d="M157.071938,84.9160282 C157.913186,84.9160282 158.402503,84.4641338 158.665981,82.2579366 L159.155298,77.9821761 L165.103634,77.9821761 L165.103634,86.3450423 L163.308845,86.3450423 L163.308845,79.5490775 L160.761888,79.5490775 L160.43505,82.3832887 C160.033559,85.856169 158.778901,86.4954648 157.071938,86.4954648 L157.071938,84.9160282" id="Fill-25" fill="#FFFFFF" sketch:type="MSShapeGroup"></path>
                <path d="M166.747236,86.3450423 L166.747236,77.9821761 L172.670478,77.9821761 L172.670478,79.5490775 L168.529478,79.5490775 L168.529478,81.3177958 L172.582025,81.3177958 L172.582025,82.8846972 L168.529478,82.8846972 L168.529478,84.7775141 L172.670478,84.7775141 L172.670478,86.3450423 L166.747236,86.3450423" id="Fill-26" fill="#FFFFFF" sketch:type="MSShapeGroup"></path>
                <path d="M179.866571,86.3450423 L179.866571,82.8345563 L175.91377,82.8345563 L175.91377,86.3450423 L174.131528,86.3450423 L174.131528,77.9821761 L175.91377,77.9821761 L175.91377,81.2676549 L179.866571,81.2676549 L179.866571,77.9821761 L181.66136,77.9821761 L181.66136,86.3450423 L179.866571,86.3450423" id="Fill-27" fill="#FFFFFF" sketch:type="MSShapeGroup"></path>
                <path d="M189.039379,86.3450423 L189.039379,82.8345563 L185.086578,82.8345563 L185.086578,86.3450423 L183.304335,86.3450423 L183.304335,77.9821761 L185.086578,77.9821761 L185.086578,81.2676549 L189.039379,81.2676549 L189.039379,77.9821761 L190.834168,77.9821761 L190.834168,86.3450423 L189.039379,86.3450423" id="Fill-28" fill="#FFFFFF" sketch:type="MSShapeGroup"></path>
                <path d="M194.258758,77.9821761 L194.258758,80.9542746 L196.391677,80.9542746 C198.199012,80.9542746 199.203366,82.1952606 199.203366,83.6493451 C199.203366,85.1165915 198.211559,86.3450423 196.391677,86.3450423 L192.476516,86.3450423 L192.476516,77.9821761 L194.258758,77.9821761 L194.258758,77.9821761 Z M194.258758,82.5211761 L194.258758,84.7775141 L196.153919,84.7775141 C196.856528,84.7775141 197.383484,84.3513169 197.383484,83.6493451 C197.383484,82.9599085 196.856528,82.5211761 196.153919,82.5211761 L194.258758,82.5211761 L194.258758,82.5211761 Z M199.905975,77.9821761 L201.700137,77.9821761 L201.700137,86.3450423 L199.905975,86.3450423 L199.905975,77.9821761 Z" id="Fill-29" fill="#FFFFFF" sketch:type="MSShapeGroup"></path>
                <path d="M203.355658,86.3450423 L203.355658,77.9821761 L205.137901,77.9821761 L205.137901,83.3861056 L209.015422,77.9821761 L210.847224,77.9821761 L210.847224,86.3450423 L209.065609,86.3450423 L209.065609,80.7405493 L205.07454,86.3450423 L203.355658,86.3450423 L203.355658,86.3450423 Z M207.108342,77.5935845 C206.216907,77.5935845 205.413298,77.1673873 204.899516,76.4904859 L205.602124,75.901331 C205.940882,76.377669 206.455919,76.6785141 207.108342,76.6785141 C207.735671,76.6785141 208.250081,76.3895775 208.600758,75.901331 L209.304621,76.4904859 C208.80213,77.1673873 208.011696,77.5935845 207.108342,77.5935845 L207.108342,77.5935845 Z" id="Fill-30" fill="#FFFFFF" sketch:type="MSShapeGroup"></path>
                <path d="M221.374435,86.3450423 L219.278528,83.2858239 L217.170075,86.3450423 L215.049702,86.3450423 L218.086602,82.0567465 L215.237901,77.9821761 L217.358273,77.9821761 L219.278528,80.840831 L221.173689,77.9821761 L223.319155,77.9821761 L220.470453,82.044838 L223.507354,86.3450423 L221.374435,86.3450423" id="Fill-31" fill="#FFFFFF" sketch:type="MSShapeGroup"></path>
                <path d="M223.462814,82.1701901 C223.462814,79.6493592 225.307789,77.8449155 227.83028,77.8449155 C230.365317,77.8449155 232.209665,79.6493592 232.209665,82.1701901 C232.209665,84.6903944 230.365317,86.4954648 227.83028,86.4954648 C225.307789,86.4954648 223.462814,84.6903944 223.462814,82.1701901 L223.462814,82.1701901 Z M230.377236,82.1701901 C230.377236,80.602662 229.374137,79.4243521 227.83028,79.4243521 C226.286422,79.4243521 225.295242,80.602662 225.295242,82.1701901 C225.295242,83.7245563 226.286422,84.9160282 227.83028,84.9160282 C229.374137,84.9160282 230.377236,83.7245563 230.377236,82.1701901 L230.377236,82.1701901 Z" id="Fill-32" fill="#FFFFFF" sketch:type="MSShapeGroup"></path>
                <path d="M232.690199,84.9160282 C233.53082,84.9160282 234.020137,84.4641338 234.283615,82.2579366 L234.772932,77.9821761 L240.721894,77.9821761 L240.721894,86.3450423 L238.926478,86.3450423 L238.926478,79.5490775 L236.379522,79.5490775 L236.052683,82.3832887 C235.65182,85.856169 234.396534,86.4954648 232.690199,86.4954648 L232.690199,84.9160282" id="Fill-33" fill="#FFFFFF" sketch:type="MSShapeGroup"></path>
                <path d="M241.780826,84.9160282 C242.633994,84.8025845 243.110764,84.4641338 243.374242,82.2579366 L243.863559,77.9821761 L249.812522,77.9821761 L249.812522,84.7775141 L250.565317,84.7775141 L250.565317,87.8875 L248.783075,87.8875 L248.783075,86.3450423 L243.562441,86.3450423 L243.562441,87.8875 L241.780826,87.8875 L241.780826,84.9160282 L241.780826,84.9160282 Z M244.127037,84.7775141 L248.017106,84.7775141 L248.017106,79.5490775 L245.470149,79.5490775 L245.143311,82.3832887 C245.018472,83.5120845 244.654621,84.2892676 244.127037,84.7775141 L244.127037,84.7775141 Z" id="Fill-34" fill="#FFFFFF" sketch:type="MSShapeGroup"></path>
                <path d="M251.711447,86.3450423 L251.711447,77.9821761 L253.493689,77.9821761 L253.493689,83.3861056 L257.371211,77.9821761 L259.20364,77.9821761 L259.20364,86.3450423 L257.421398,86.3450423 L257.421398,80.7405493 L253.430329,86.3450423 L251.711447,86.3450423" id="Fill-35" fill="#FFFFFF" sketch:type="MSShapeGroup"></path>
                <path d="M266.587304,86.3450423 L266.587304,82.8345563 L262.634503,82.8345563 L262.634503,86.3450423 L260.852888,86.3450423 L260.852888,77.9821761 L262.634503,77.9821761 L262.634503,81.2676549 L266.587304,81.2676549 L266.587304,77.9821761 L268.382093,77.9821761 L268.382093,86.3450423 L266.587304,86.3450423" id="Fill-36" fill="#FFFFFF" sketch:type="MSShapeGroup"></path>
                <path d="M270.025696,86.3450423 L270.025696,77.9821761 L275.948938,77.9821761 L275.948938,79.5490775 L271.807311,79.5490775 L271.807311,86.3450423 L270.025696,86.3450423" id="Fill-37" fill="#FFFFFF" sketch:type="MSShapeGroup"></path>
                <path d="M282.535267,86.3450423 L282.535267,79.5490775 L280.088056,79.5490775 L280.088056,77.9821761 L286.764093,77.9821761 L286.764093,79.5490775 L284.329429,79.5490775 L284.329429,86.3450423 L282.535267,86.3450423" id="Fill-38" fill="#FFFFFF" sketch:type="MSShapeGroup"></path>
                <path d="M292.787081,86.3450423 L290.252043,82.9975141 L289.599621,83.7753239 L289.599621,86.3450423 L287.817379,86.3450423 L287.817379,77.9821761 L289.599621,77.9821761 L289.599621,81.7182958 L292.560615,77.9821761 L294.756894,77.9821761 L291.431422,81.9069507 L294.98336,86.3450423 L292.787081,86.3450423" id="Fill-39" fill="#FFFFFF" sketch:type="MSShapeGroup"></path>
                <path d="M294.788888,82.1701901 C294.788888,79.5992183 296.734863,77.8449155 299.24418,77.8449155 C301.089155,77.8449155 302.155615,78.8471056 302.745932,79.8881549 L301.213994,80.6408944 C300.863317,79.9627394 300.110522,79.4243521 299.24418,79.4243521 C297.726043,79.4243521 296.621317,80.5907535 296.621317,82.1701901 C296.621317,83.7502535 297.726043,84.9160282 299.24418,84.9160282 C300.110522,84.9160282 300.863317,84.3889225 301.213994,83.7001127 L302.745932,84.4390634 C302.143068,85.4801127 301.089155,86.4954648 299.24418,86.4954648 C296.734863,86.4954648 294.788888,84.7405352 294.788888,82.1701901" id="Fill-40" fill="#FFFFFF" sketch:type="MSShapeGroup"></path>
            </g>
        </g>
    </g>
</svg>