<?xml version="1.0" encoding="UTF-8" standalone="no"?>
<svg width="186px" height="83px" viewBox="0 0 186 83" version="1.1" xmlns="http://www.w3.org/2000/svg" xmlns:xlink="http://www.w3.org/1999/xlink" xmlns:sketch="http://www.bohemiancoding.com/sketch/ns" preserveAspectRatio="xMinYMid meet">
    <!-- Generator: Sketch 3.2.2 (9983) - http://www.bohemiancoding.com/sketch -->
    <title>logo</title>
    <desc>Created with Sketch.</desc>
    <defs></defs>
    <g id="Page-1" stroke="none" stroke-width="1" fill="none" fill-rule="evenodd" sketch:type="MSPage">
        <g id="Landscape-Retina" sketch:type="MSArtboardGroup" transform="translate(-891.000000, -1064.000000)">
            <g id="Imported-Layers" sketch:type="MSLayerGroup" transform="translate(860.000000, 905.000000)">
                <g id="logo" transform="translate(31.000000, 159.000000)" sketch:type="MSShapeGroup">
                    <path d="M12.7163364,43.1680517 L11.9624089,40.9712759 L5.95078738,40.9712759 L5.19633879,43.1680517 L0.738422897,43.1680517 L6.47650467,27.9064052 L11.4137664,27.9064052 L17.1742523,43.1680517 L12.7163364,43.1680517 L12.7163364,43.1680517 Z M8.94513551,31.7956164 L7.00170093,37.538944 L10.887528,37.538944 L8.94513551,31.7956164 L8.94513551,31.7956164 Z" id="Fill-54" fill="#FFFFFF"></path>
                    <path d="M21.3565444,41.8636509 L21.3565444,47.3774957 L17.836479,47.3774957 L17.836479,32.1158491 L21.3565444,32.1158491 L21.3565444,33.3978233 C22.2250981,32.3448103 23.3682336,31.8409914 24.6254743,31.8409914 C27.3916121,31.8409914 29.471035,33.9000776 29.471035,37.6307371 C29.471035,41.3833017 27.3916121,43.4423879 24.6254743,43.4423879 C23.3911589,43.4423879 22.2709486,42.9615172 21.3565444,41.8636509 L21.3565444,41.8636509 Z M25.882715,37.6307371 C25.882715,35.9831552 24.8312804,34.9536121 23.4594136,34.9536121 C22.705486,34.9536121 21.7910818,35.3645948 21.3565444,35.9607284 L21.3565444,39.3231724 C21.7910818,39.8953147 22.705486,40.3297672 23.4594136,40.3297672 C24.8312804,40.3297672 25.882715,39.3007457 25.882715,37.6307371 L25.882715,37.6307371 Z" id="Fill-55" fill="#FFFFFF"></path>
                    <path d="M39.6764112,35.1820517 L34.4421636,35.1820517 L34.4421636,43.1680517 L30.9220981,43.1680517 L30.9220981,32.1158491 L39.6764112,32.1158491 L39.6764112,35.1820517" id="Fill-56" fill="#FFFFFF"></path>
                    <path d="M41.6964369,44.3347629 C41.9475724,44.4724526 42.2904089,44.5407759 42.5649907,44.5407759 C43.3647687,44.5407759 43.8680818,44.3806595 44.0504416,43.9227371 L44.3026192,43.3281681 L39.913479,32.1158491 L43.6164252,32.1158491 L46.1079813,39.117681 L48.6224626,32.1158491 L52.3483341,32.1158491 L47.365743,44.7467888 C46.474264,47.0802112 44.8054112,47.6069784 42.7025421,47.6523534 C42.3821098,47.6523534 41.5594065,47.5840302 41.1936449,47.4692888 L41.6964369,44.3347629" id="Fill-57" fill="#FFFFFF"></path>
                    <path d="M51.8351215,37.6307371 C51.8351215,34.1754569 54.4183785,31.8409914 57.8696682,31.8409914 C60.2471192,31.8409914 61.7330911,32.8945259 62.3953178,33.8776509 L60.1100888,36.0061034 C59.6760724,35.3645948 58.9669533,34.9536121 58.0296238,34.9536121 C56.5665771,34.9536121 55.4468879,35.9607284 55.4468879,37.6307371 C55.4468879,39.3007457 56.5665771,40.3297672 58.0296238,40.3297672 C58.9669533,40.3297672 59.6760724,39.8728879 60.1100888,39.2548491 L62.3953178,41.40625 C61.7330911,42.3669483 60.2471192,43.4423879 57.8696682,43.4423879 C54.4183785,43.4423879 51.8351215,41.1089655 51.8351215,37.6307371" id="Fill-58" fill="#FFFFFF"></path>
                    <path d="M0.775415888,55.5199612 C0.775415888,50.8066983 4.3418528,47.6262759 9.02745794,47.6262759 C12.707479,47.6262759 14.6738388,49.7083103 15.6794229,51.7220216 L12.2963879,53.3237069 C11.7935958,52.110056 10.4905047,51.1045043 9.02745794,51.1045043 C6.5364229,51.1045043 4.77586916,53.0259009 4.77586916,55.5199612 C4.77586916,58.0145431 6.5364229,59.9359397 9.02745794,59.9359397 C10.4905047,59.9359397 11.7935958,58.9298664 12.2963879,57.7167371 L15.6794229,59.318944 C14.696764,61.2862371 12.707479,63.4141681 9.02745794,63.4141681 C4.3418528,63.4141681 0.775415888,60.211319 0.775415888,55.5199612" id="Fill-59" fill="#FFFFFF"></path>
                    <path d="M16.5959112,63.1398319 L16.5959112,52.0876293 L24.0929836,52.0876293 C26.4469883,52.0876293 27.5677196,53.5291983 27.5677196,54.9253922 C27.5677196,56.2297931 26.7444953,57.1221681 25.6706565,57.4424009 C26.9273762,57.6937888 27.8188551,58.7692284 27.8188551,60.1190043 C27.8188551,61.7436379 26.6527944,63.1398319 24.2987897,63.1398319 L16.5959112,63.1398319 L16.5959112,63.1398319 Z M24.0242079,55.498056 C24.0242079,55.0855086 23.727222,54.8106509 23.2702804,54.8106509 L20.1154556,54.8106509 L20.1154556,56.183375 L23.2702804,56.183375 C23.727222,56.183375 24.0242079,55.8860905 24.0242079,55.498056 L24.0242079,55.498056 Z M24.2758645,59.6616034 C24.2758645,59.2266293 23.933028,58.8839698 23.4073107,58.8839698 L20.1154556,58.8839698 L20.1154556,60.4162888 L23.4073107,60.4162888 C23.9101028,60.4162888 24.2758645,60.1190043 24.2758645,59.6616034 L24.2758645,59.6616034 Z" id="Fill-60" fill="#FFFFFF"></path>
                    <path d="M36.1089322,63.1398319 L36.1089322,62.041444 C35.4227383,62.8649741 34.097243,63.4141681 32.6800467,63.4141681 C30.9887897,63.4141681 28.8859206,62.2704052 28.8859206,59.7763448 C28.8859206,57.0986983 30.9887897,56.2297931 32.6800467,56.2297931 C34.1430935,56.2297931 35.4461846,56.687194 36.1089322,57.5107241 L36.1089322,56.183375 C36.1089322,55.2226767 35.286229,54.5816897 33.8685117,54.5816897 C32.7712266,54.5816897 31.6286121,54.9937155 30.7371332,55.7489224 L29.4798925,53.5291983 C30.8970888,52.3171121 32.7941519,51.8127716 34.4859299,51.8127716 C37.1374416,51.8127716 39.6289977,52.7974612 39.6289977,56.2297931 L39.6289977,63.1398319 L36.1089322,63.1398319 L36.1089322,63.1398319 Z M36.1089322,60.3015474 L36.1089322,59.318944 C35.7431706,58.815125 34.9204673,58.5402672 34.1430935,58.5402672 C33.205764,58.5402672 32.3830607,58.9522931 32.3830607,59.8217198 C32.3830607,60.6916681 33.205764,61.103694 34.1430935,61.103694 C34.9204673,61.103694 35.7431706,60.8283147 36.1089322,60.3015474 L36.1089322,60.3015474 Z" id="Fill-61" fill="#FFFFFF"></path>
                    <path d="M45.1716939,61.835431 L45.1716939,67.3492759 L41.6516285,67.3492759 L41.6516285,52.0876293 L45.1716939,52.0876293 L45.1716939,53.3690819 C46.0402477,52.3171121 47.1833832,51.8127716 48.4406238,51.8127716 C51.2057196,51.8127716 53.2867056,53.8718578 53.2867056,57.6025172 C53.2867056,61.3550819 51.2057196,63.4141681 48.4406238,63.4141681 C47.2063084,63.4141681 46.0855771,62.9332974 45.1716939,61.835431 L45.1716939,61.835431 Z M49.6973435,57.6025172 C49.6973435,55.9554569 48.6464299,54.9253922 47.2745631,54.9253922 C46.5206355,54.9253922 45.6057103,55.3368966 45.1716939,55.9325086 L45.1716939,59.2954741 C45.6057103,59.8670948 46.5206355,60.3015474 47.2745631,60.3015474 C48.6464299,60.3015474 49.6973435,59.2725259 49.6973435,57.6025172 L49.6973435,57.6025172 Z" id="Fill-62" fill="#FFFFFF"></path>
                    <path d="M59.8261285,55.5199612 C59.8261285,50.8066983 63.3915234,47.6262759 68.0776495,47.6262759 C71.7576706,47.6262759 73.7240304,49.7083103 74.7296145,51.7220216 L71.3471005,53.3237069 C70.8432664,52.110056 69.5406963,51.1045043 68.0776495,51.1045043 C65.5860935,51.1045043 63.8260607,53.0259009 63.8260607,55.5199612 C63.8260607,58.0145431 65.5860935,59.9359397 68.0776495,59.9359397 C69.5406963,59.9359397 70.8432664,58.9298664 71.3471005,57.7167371 L74.7296145,59.318944 C73.7469556,61.2862371 71.7576706,63.4141681 68.0776495,63.4141681 C63.3915234,63.4141681 59.8261285,60.211319 59.8261285,55.5199612" id="Fill-63" fill="#FFFFFF"></path>
                    <path d="M75.2324065,57.6025172 C75.2324065,54.398625 77.6551869,51.8127716 81.1064766,51.8127716 C84.3748855,51.8127716 86.7523364,54.2155603 86.7523364,57.968125 L86.7523364,58.7238534 L78.8895023,58.7238534 C79.0953084,59.7533966 80.054521,60.6916681 81.6551192,60.6916681 C82.432493,60.6916681 83.7809136,60.3479655 84.3978107,59.7533966 L85.8837827,61.9501724 C84.7864977,62.9332974 82.9576893,63.4141681 81.2669533,63.4141681 C77.860472,63.4141681 75.2324065,61.1939224 75.2324065,57.6025172 L75.2324065,57.6025172 Z M81.1064766,54.5363147 C79.5751752,54.5363147 78.9806822,55.634181 78.8431308,56.4352845 L83.3922266,56.4352845 C83.3015678,55.6576509 82.729479,54.5363147 81.1064766,54.5363147 L81.1064766,54.5363147 Z" id="Fill-64" fill="#FFFFFF"></path>
                    <path d="M91.5473575,61.835431 L91.5473575,67.3492759 L88.026771,67.3492759 L88.026771,52.0876293 L91.5473575,52.0876293 L91.5473575,53.3690819 C92.4153902,52.3171121 93.5590467,51.8127716 94.8157664,51.8127716 C97.5813832,51.8127716 99.6618481,53.8718578 99.6618481,57.6025172 C99.6618481,61.3550819 97.5813832,63.4141681 94.8157664,63.4141681 C93.5814509,63.4141681 92.4612407,62.9332974 91.5473575,61.835431 L91.5473575,61.835431 Z M96.073007,57.6025172 C96.073007,55.9554569 95.0215724,54.9253922 93.6497056,54.9253922 C92.895778,54.9253922 91.9813738,55.3368966 91.5473575,55.9325086 L91.5473575,59.2954741 C91.9813738,59.8670948 92.895778,60.3015474 93.6497056,60.3015474 C95.0215724,60.3015474 96.073007,59.2725259 96.073007,57.6025172 L96.073007,57.6025172 Z" id="Fill-65" fill="#FFFFFF"></path>
                    <path d="M101.112911,63.1398319 L101.112911,52.0876293 L108.609984,52.0876293 C110.96503,52.0876293 112.08472,53.5291983 112.08472,54.9253922 C112.08472,56.2297931 111.262016,57.1221681 110.187657,57.4424009 C111.444897,57.6937888 112.335855,58.7692284 112.335855,60.1190043 C112.335855,61.7436379 111.169794,63.1398319 108.81579,63.1398319 L101.112911,63.1398319 L101.112911,63.1398319 Z M108.541208,55.498056 C108.541208,55.0855086 108.244222,54.8106509 107.78728,54.8106509 L104.632977,54.8106509 L104.632977,56.183375 L107.78728,56.183375 C108.244222,56.183375 108.541208,55.8860905 108.541208,55.498056 L108.541208,55.498056 Z M108.792864,59.6616034 C108.792864,59.2266293 108.450028,58.8839698 107.924311,58.8839698 L104.632977,58.8839698 L104.632977,60.4162888 L107.924311,60.4162888 C108.427624,60.4162888 108.792864,60.1190043 108.792864,59.6616034 L108.792864,59.6616034 Z" id="Fill-66" fill="#FFFFFF"></path>
                    <path d="M114.141217,63.1398319 L114.141217,52.0876293 L117.661283,52.0876293 L117.661283,57.8768534 L121.59296,52.0876293 L125.135951,52.0876293 L125.135951,63.1398319 L121.615886,63.1398319 L121.615886,57.0528017 L117.501848,63.1398319 L114.141217,63.1398319" id="Fill-67" fill="#FFFFFF"></path>
                    <path d="M126.497397,57.6025172 C126.497397,54.1472371 129.080654,51.8127716 132.531944,51.8127716 C134.909916,51.8127716 136.395367,52.866306 137.058114,53.849431 L134.772886,55.9784052 C134.338348,55.3368966 133.62975,54.9253922 132.6919,54.9253922 C131.228853,54.9253922 130.109685,55.9325086 130.109685,57.6025172 C130.109685,59.2725259 131.228853,60.3015474 132.6919,60.3015474 C133.62975,60.3015474 134.338348,59.8441466 134.772886,59.2266293 L137.058114,61.3780302 C136.395367,62.3387284 134.909916,63.4141681 132.531944,63.4141681 C129.080654,63.4141681 126.497397,61.0807457 126.497397,57.6025172" id="Fill-68" fill="#FFFFFF"></path>
                    <path d="M0.543037383,69.1992198 L137.262879,69.1992198 L137.262879,70.1364483 L0.543037383,70.1364483 L0.543037383,69.1992198 Z" id="Fill-69" fill="#FFFFFF"></path>
                    <path d="M6.73024533,81.7660086 L6.73024533,76.2146121 L9.32444393,76.2146121 C10.5306238,76.2146121 11.1876402,77.0297974 11.1876402,78.004056 C11.1876402,78.9694483 10.5222874,79.7935 9.32444393,79.7935 L7.91141589,79.7935 L7.91141589,81.7660086 L6.73024533,81.7660086 L6.73024533,81.7660086 Z M9.98198131,78.004056 C9.98198131,77.5372672 9.6323715,77.2545862 9.16657243,77.2545862 L7.91141589,77.2545862 L7.91141589,78.7530043 L9.16657243,78.7530043 C9.6323715,78.7530043 9.98198131,78.4619784 9.98198131,78.004056 L9.98198131,78.004056 Z" id="Fill-71" fill="#FFFFFF"></path>
                    <path d="M11.7185678,78.9944828 C11.7185678,77.3213448 12.9403785,76.122819 14.6118364,76.122819 C16.2916308,76.122819 17.5139626,77.3213448 17.5139626,78.9944828 C17.5139626,80.6670991 16.2916308,81.865625 14.6118364,81.865625 C12.9403785,81.865625 11.7185678,80.6670991 11.7185678,78.9944828 L11.7185678,78.9944828 Z M16.2999673,78.9944828 C16.2999673,77.9534655 15.6346145,77.1716595 14.6118364,77.1716595 C13.5895794,77.1716595 12.9320421,77.9534655 12.9320421,78.9944828 C12.9320421,80.0266336 13.5895794,80.817306 14.6118364,80.817306 C15.6346145,80.817306 16.2999673,80.0266336 16.2999673,78.9944828 L16.2999673,78.9944828 Z" id="Fill-72" fill="#FFFFFF"></path>
                    <path d="M23.133771,81.7660086 L23.133771,77.8794052 L21.5701659,81.7660086 L21.0548692,81.7660086 L19.491785,77.8794052 L19.491785,81.7660086 L18.3111355,81.7660086 L18.3111355,76.2146121 L19.9653995,76.2146121 L21.312778,79.5687112 L22.6596355,76.2146121 L24.322757,76.2146121 L24.322757,81.7660086 L23.133771,81.7660086" id="Fill-73" fill="#FFFFFF"></path>
                    <path d="M26.6001706,76.2146121 L26.6001706,78.1865991 L28.0137196,78.1865991 C29.2110421,78.1865991 29.8763949,79.0111724 29.8763949,79.9765647 C29.8763949,80.9508233 29.2198995,81.7660086 28.0137196,81.7660086 L25.419521,81.7660086 L25.419521,76.2146121 L26.6001706,76.2146121 L26.6001706,76.2146121 Z M26.6001706,79.2270948 L26.6001706,80.7260345 L27.8558481,80.7260345 C28.3211262,80.7260345 28.670736,80.4428319 28.670736,79.9765647 C28.670736,79.5186422 28.3211262,79.2270948 27.8558481,79.2270948 L26.6001706,79.2270948 L26.6001706,79.2270948 Z M30.3421939,76.2146121 L31.5311799,76.2146121 L31.5311799,81.7660086 L30.3421939,81.7660086 L30.3421939,76.2146121 Z" id="Fill-74" fill="#FFFFFF"></path>
                    <path d="M39.7040257,76.2146121 L39.7040257,81.7660086 L32.6279439,81.7660086 L32.6279439,76.2146121 L33.8085935,76.2146121 L33.8085935,80.7260345 L35.5717523,80.7260345 L35.5717523,76.2146121 L36.7602173,76.2146121 L36.7602173,80.7260345 L38.5145187,80.7260345 L38.5145187,76.2146121 L39.7040257,76.2146121" id="Fill-75" fill="#FFFFFF"></path>
                    <path d="M40.4178341,80.817306 C40.9753341,80.817306 41.2994136,80.5174138 41.4739579,79.052375 L41.7985584,76.2146121 L45.7396145,76.2146121 L45.7396145,81.7660086 L44.5506285,81.7660086 L44.5506285,77.2545862 L42.8624977,77.2545862 L42.646271,79.1363448 C42.3805467,81.4416034 41.548465,81.865625 40.4178341,81.865625 L40.4178341,80.817306" id="Fill-76" fill="#FFFFFF"></path>
                    <path d="M46.8285631,81.7660086 L46.8285631,76.2146121 L50.7534673,76.2146121 L50.7534673,77.2545862 L48.0092126,77.2545862 L48.0092126,78.4280776 L50.6945911,78.4280776 L50.6945911,79.4685733 L48.0092126,79.4685733 L48.0092126,80.7260345 L50.7534673,80.7260345 L50.7534673,81.7660086 L46.8285631,81.7660086" id="Fill-77" fill="#FFFFFF"></path>
                    <path d="M55.5213949,81.7660086 L55.5213949,79.435194 L52.9021869,79.435194 L52.9021869,81.7660086 L51.7215374,81.7660086 L51.7215374,76.2146121 L52.9021869,76.2146121 L52.9021869,78.3952198 L55.5213949,78.3952198 L55.5213949,76.2146121 L56.7103808,76.2146121 L56.7103808,81.7660086 L55.5213949,81.7660086" id="Fill-78" fill="#FFFFFF"></path>
                    <path d="M61.5991869,81.7660086 L61.5991869,79.435194 L58.979979,79.435194 L58.979979,81.7660086 L57.7993294,81.7660086 L57.7993294,76.2146121 L58.979979,76.2146121 L58.979979,78.3952198 L61.5991869,78.3952198 L61.5991869,76.2146121 L62.7881729,76.2146121 L62.7881729,81.7660086 L61.5991869,81.7660086" id="Fill-79" fill="#FFFFFF"></path>
                    <path d="M65.05725,76.2146121 L65.05725,78.1865991 L66.4707991,78.1865991 C67.6686425,78.1865991 68.3334743,79.0111724 68.3334743,79.9765647 C68.3334743,80.9508233 67.6764579,81.7660086 66.4707991,81.7660086 L63.8766005,81.7660086 L63.8766005,76.2146121 L65.05725,76.2146121 L65.05725,76.2146121 Z M65.05725,79.2270948 L65.05725,80.7260345 L66.3134486,80.7260345 C66.7787266,80.7260345 67.1278154,80.4428319 67.1278154,79.9765647 C67.1278154,79.5186422 66.7787266,79.2270948 66.3134486,79.2270948 L65.05725,79.2270948 L65.05725,79.2270948 Z M68.7992734,76.2146121 L69.9882593,76.2146121 L69.9882593,81.7660086 L68.7992734,81.7660086 L68.7992734,76.2146121 Z" id="Fill-80" fill="#FFFFFF"></path>
                    <path d="M71.0850234,81.7660086 L71.0850234,76.2146121 L72.2656729,76.2146121 L72.2656729,79.8013233 L74.8348621,76.2146121 L76.0488575,76.2146121 L76.0488575,81.7660086 L74.8682079,81.7660086 L74.8682079,78.0457802 L72.2239907,81.7660086 L71.0850234,81.7660086 L71.0850234,81.7660086 Z M73.5713692,75.9559224 C72.9805234,75.9559224 72.4485537,75.6732414 72.1083224,75.2241853 L72.5736005,74.8330216 C72.7981636,75.1490819 73.1389159,75.3488362 73.5713692,75.3488362 C73.9866285,75.3488362 74.3279019,75.1574267 74.5608014,74.8330216 L75.0266005,75.2241853 C74.6936636,75.6732414 74.1700304,75.9559224 73.5713692,75.9559224 L73.5713692,75.9559224 Z" id="Fill-81" fill="#FFFFFF"></path>
                    <path d="M83.0238598,81.7660086 L81.6358411,79.7350862 L80.2384439,81.7660086 L78.8332313,81.7660086 L80.8454416,78.9193793 L78.957757,76.2146121 L80.3629696,76.2146121 L81.6358411,78.1120172 L82.8909977,76.2146121 L84.3128832,76.2146121 L82.4251986,78.9110345 L84.4374089,81.7660086 L83.0238598,81.7660086" id="Fill-82" fill="#FFFFFF"></path>
                    <path d="M84.4077103,78.9944828 C84.4077103,77.3213448 85.6305631,76.122819 87.302021,76.122819 C88.9807734,76.122819 90.2031051,77.3213448 90.2031051,78.9944828 C90.2031051,80.6670991 88.9807734,81.865625 87.302021,81.865625 C85.6305631,81.865625 84.4077103,80.6670991 84.4077103,78.9944828 L84.4077103,78.9944828 Z M88.9891098,78.9944828 C88.9891098,77.9534655 88.3247991,77.1716595 87.302021,77.1716595 C86.278722,77.1716595 85.6217056,77.9534655 85.6217056,78.9944828 C85.6217056,80.0266336 86.278722,80.817306 87.302021,80.817306 C88.3247991,80.817306 88.9891098,80.0266336 88.9891098,78.9944828 L88.9891098,78.9944828 Z" id="Fill-83" fill="#FFFFFF"></path>
                    <path d="M90.5214533,80.817306 C91.0784322,80.817306 91.4030327,80.5174138 91.5775771,79.052375 L91.9016565,76.2146121 L95.8432336,76.2146121 L95.8432336,81.7660086 L94.6537266,81.7660086 L94.6537266,77.2545862 L92.9661168,77.2545862 L92.7498902,79.1363448 C92.4836449,81.4416034 91.6520841,81.865625 90.5214533,81.865625 L90.5214533,80.817306" id="Fill-84" fill="#FFFFFF"></path>
                    <path d="M96.5445374,80.817306 C97.1108949,80.7422026 97.4261168,80.5174138 97.6006612,79.052375 L97.9247407,76.2146121 L101.866318,76.2146121 L101.866318,80.7260345 L102.365984,80.7260345 L102.365984,82.7898147 L101.184292,82.7898147 L101.184292,81.7660086 L97.7251869,81.7660086 L97.7251869,82.7898147 L96.5445374,82.7898147 L96.5445374,80.817306 L96.5445374,80.817306 Z M98.099285,80.7260345 L100.677332,80.7260345 L100.677332,77.2545862 L98.9892009,77.2545862 L98.7729743,79.1363448 C98.6901308,79.8852931 98.4494159,80.4016293 98.099285,80.7260345 L98.099285,80.7260345 Z" id="Fill-85" fill="#FFFFFF"></path>
                    <path d="M103.1246,81.7660086 L103.1246,76.2146121 L104.305771,76.2146121 L104.305771,79.8013233 L106.874439,76.2146121 L108.088956,76.2146121 L108.088956,81.7660086 L106.908306,81.7660086 L106.908306,78.0457802 L104.263568,81.7660086 L103.1246,81.7660086" id="Fill-86" fill="#FFFFFF"></path>
                    <path d="M112.981409,81.7660086 L112.981409,79.435194 L110.362722,79.435194 L110.362722,81.7660086 L109.182072,81.7660086 L109.182072,76.2146121 L110.362722,76.2146121 L110.362722,78.3952198 L112.981409,78.3952198 L112.981409,76.2146121 L114.170395,76.2146121 L114.170395,81.7660086 L112.981409,81.7660086" id="Fill-87" fill="#FFFFFF"></path>
                    <path d="M115.259343,81.7660086 L115.259343,76.2146121 L119.184248,76.2146121 L119.184248,77.2545862 L116.440514,77.2545862 L116.440514,81.7660086 L115.259343,81.7660086" id="Fill-88" fill="#FFFFFF"></path>
                    <path d="M123.547857,81.7660086 L123.547857,77.2545862 L121.926939,77.2545862 L121.926939,76.2146121 L126.350467,76.2146121 L126.350467,77.2545862 L124.737364,77.2545862 L124.737364,81.7660086 L123.547857,81.7660086" id="Fill-89" fill="#FFFFFF"></path>
                    <path d="M130.3405,81.7660086 L128.661227,79.5441983 L128.228773,80.0600129 L128.228773,81.7660086 L127.048124,81.7660086 L127.048124,76.2146121 L128.228773,76.2146121 L128.228773,78.6945905 L130.191486,76.2146121 L131.646196,76.2146121 L129.442769,78.8197629 L131.796252,81.7660086 L130.3405,81.7660086" id="Fill-90" fill="#FFFFFF"></path>
                    <path d="M131.667558,78.9944828 C131.667558,77.2884871 132.956582,76.122819 134.619182,76.122819 C135.842035,76.122819 136.54907,76.788319 136.93932,77.4798966 L135.924879,77.9790216 C135.6925,77.529444 135.193355,77.1716595 134.619182,77.1716595 C133.613598,77.1716595 132.881554,77.9456422 132.881554,78.9944828 C132.881554,80.0428017 133.613598,80.817306 134.619182,80.817306 C135.193355,80.817306 135.6925,80.4673448 135.924879,80.009944 L136.93932,80.5007241 C136.540213,81.1917802 135.842035,81.865625 134.619182,81.865625 C132.956582,81.865625 131.667558,80.7004784 131.667558,78.9944828" id="Fill-91" fill="#FFFFFF"></path>
                    <path d="M145.339334,0.864469828 L146.139633,3.34288362 L148.740605,3.33975431 L146.633568,4.86633621 L147.443766,7.34109914 L145.339334,5.80512931 L143.237507,7.34109914 L144.048227,4.86633621 L141.938584,3.33975431 L144.540598,3.34288362 L145.339334,0.864469828" id="Fill-92" fill="#B01C33"></path>
                    <path d="M163.977028,5.87032328 C164.242752,6.69593966 164.51004,7.52155603 164.775764,8.34717241 C165.642234,8.34560776 166.511308,8.34560776 167.379341,8.3440431 C166.675953,8.85203448 165.974129,9.36211207 165.268657,9.87114655 C165.541675,10.6951983 165.808442,11.5197716 166.078855,12.3479957 C165.380678,11.8353103 164.67729,11.3221034 163.977028,10.8115043 C163.276245,11.3221034 162.575463,11.8353103 161.876764,12.3479957 C162.145614,11.5197716 162.414986,10.6951983 162.682794,9.87114655 C161.981491,9.36211207 161.279145,8.85203448 160.575757,8.3440431 C161.44379,8.34560776 162.309738,8.34560776 163.177771,8.34717241 C163.442453,7.52155603 163.711304,6.69593966 163.977028,5.87032328" id="Fill-93" fill="#B01C33"></path>
                    <path d="M177.623794,19.5281983 C177.888477,20.3559009 178.155243,21.1809957 178.42253,22.0092198 C179.289,22.0050474 180.157554,22.0034828 181.024023,22.0034828 C180.321678,22.5114741 179.61829,23.0205086 178.915944,23.5285 C179.183231,24.3541164 179.455729,25.1776466 179.724579,26.0058707 C179.022755,25.4910991 178.321972,24.9815431 177.623794,24.4704224 C176.922491,24.9815431 176.220666,25.4910991 175.518841,26.0058707 C175.79186,25.1776466 176.059668,24.3541164 176.330082,23.5285 C175.624089,23.0205086 174.923827,22.5114741 174.223044,22.0034828 C175.089514,22.0034828 175.956505,22.0050474 176.821932,22.0092198 C177.088178,21.1809957 177.357549,20.3559009 177.623794,19.5281983" id="Fill-94" fill="#B01C33"></path>
                    <path d="M182.622537,38.1835819 C182.888262,39.0102414 183.153465,39.8353362 183.422315,40.6630388 C184.289827,40.6609526 185.15786,40.6593879 186.02485,40.6593879 C185.320421,41.1679009 184.618075,41.6764138 183.914687,42.1870129 C184.187185,43.0110647 184.454993,43.8351164 184.724364,44.6617759 C184.022019,44.1496121 183.32332,43.6384914 182.622537,43.125806 C181.921755,43.6384914 181.220972,44.1496121 180.52071,44.6617759 C180.790082,43.8351164 181.05789,43.0110647 181.328825,42.1870129 C180.628042,41.6764138 179.924654,41.1679009 179.221787,40.6593879 C180.088257,40.6593879 180.955769,40.6609526 181.822759,40.6630388 C182.089526,39.8353362 182.356813,39.0102414 182.622537,38.1835819" id="Fill-95" fill="#B01C33"></path>
                    <path d="M177.623794,56.8426164 C177.888477,57.6682328 178.155243,58.4938491 178.42253,59.3194655 C179.289,59.3194655 180.157554,59.3152931 181.024023,59.3152931 C180.321678,59.8232845 179.61829,60.3317974 178.915944,60.8423966 C179.183231,61.6659267 179.455729,62.4920647 179.724579,63.3187241 C179.022755,62.8055172 178.321972,62.293875 177.623794,61.7817112 C176.922491,62.293875 176.220666,62.8055172 175.518841,63.3187241 C175.79186,62.4920647 176.059668,61.6659267 176.330082,60.8423966 C175.624089,60.3317974 174.923827,59.8232845 174.223044,59.3152931 C175.089514,59.3152931 175.956505,59.3194655 176.821932,59.3194655 C177.088178,58.4938491 177.357549,57.6682328 177.623794,56.8426164" id="Fill-96" fill="#B01C33"></path>
                    <path d="M163.977028,70.5010129 C164.242752,71.3266293 164.51004,72.1522457 164.775764,72.9783836 C165.642234,72.9783836 166.511308,72.9736897 167.379341,72.9736897 C166.675953,73.4842888 165.974129,73.9907155 165.268657,74.5007931 C165.541675,75.3248448 165.808442,76.1494181 166.078855,76.9776422 C165.380678,76.466 164.67729,75.9527931 163.977028,75.4427155 C163.276245,75.9527931 162.575463,76.466 161.876764,76.9776422 C162.145614,76.1494181 162.414986,75.3248448 162.682794,74.5007931 C161.981491,73.9907155 161.279145,73.4842888 160.575757,72.9736897 C161.44379,72.9736897 162.309738,72.9783836 163.177771,72.9783836 C163.442453,72.1522457 163.711304,71.3266293 163.977028,70.5010129" id="Fill-97" fill="#B01C33"></path>
                    <path d="M145.339334,75.5042586 C145.605058,76.329875 145.871304,77.1565345 146.139633,77.9821509 C147.006103,77.9821509 147.875178,77.9795431 148.740605,77.9779784 C148.037217,78.4859698 147.333829,78.9960474 146.633568,79.5050819 C146.903981,80.3317414 147.17179,81.1542284 147.443766,81.981931 C146.743505,81.4692457 146.040117,80.9565603 145.339334,80.4464828 C144.639593,80.9565603 143.940895,81.4692457 143.240112,81.981931 C143.5074,81.1542284 143.775729,80.3317414 144.048227,79.5050819 C143.344839,78.9960474 142.641972,78.4859698 141.938584,77.9779784 C142.805054,77.9795431 143.672565,77.9821509 144.542161,77.9821509 C144.807886,77.1565345 145.07361,76.329875 145.339334,75.5042586" id="Fill-98" fill="#B01C33"></path>
                    <path d="M108.056652,38.1835819 C108.324981,39.0102414 108.590185,39.8353362 108.859035,40.6630388 C109.723942,40.6609526 110.591453,40.6593879 111.46157,40.6593879 C110.756619,41.1679009 110.056357,41.6764138 109.350886,42.1870129 C109.621299,43.0110647 109.888586,43.8351164 110.161084,44.6617759 C109.460822,44.1496121 108.759519,43.6384914 108.056652,43.125806 C107.358474,43.6384914 106.657692,44.1496121 105.954825,44.6617759 C106.225238,43.8351164 106.497215,43.0110647 106.765023,42.1870129 C106.061636,41.6764138 105.358769,41.1679009 104.656423,40.6593879 C105.52185,40.6593879 106.391967,40.6609526 107.26,40.6630388 C107.525203,39.8353362 107.791449,39.0102414 108.056652,38.1835819" id="Fill-99" fill="#B01C33"></path>
                    <path d="M113.058,19.5281983 C113.323724,20.3559009 113.589449,21.1809957 113.855173,22.0092198 C114.722685,22.0050474 115.59228,22.0034828 116.45875,22.0034828 C115.755883,22.5114741 115.053016,23.0205086 114.35015,23.5285 C114.619521,24.3541164 114.889935,25.1776466 115.159827,26.0058707 C114.459565,25.4910991 113.756699,24.9815431 113.058,24.4704224 C112.357738,24.9815431 111.657477,25.4910991 110.954089,26.0058707 C111.226065,25.1776466 111.493874,24.3541164 111.764287,23.5285 C111.0609,23.0205086 110.358554,22.5114741 109.657771,22.0034828 C110.523199,22.0034828 111.39071,22.0050474 112.256138,22.0092198 C112.524467,21.1809957 112.790713,20.3559009 113.058,19.5281983" id="Fill-100" fill="#B01C33"></path>
                    <path d="M126.700598,5.87032328 L127.501939,8.34978017 L130.101348,8.3440431 L127.994311,9.87114655 L128.80503,12.3479957 L126.700598,10.8115043 L124.598771,12.3479957 L125.407928,9.87114655 L123.299327,8.3440431 L125.903425,8.34978017 L126.700598,5.87032328" id="Fill-101" fill="#B01C33"></path>
                    <path d="M155.687472,22.6043103 L129.061376,40.775694 L145.292963,40.775694 L151.020103,59.8321509 L155.687472,22.6043103 L155.687472,22.6043103 Z M158.751638,17.5911552 L151.99703,71.4664052 L143.499063,43.1868276 L121.251687,43.1868276 L158.751638,17.5911552 L158.751638,17.5911552 Z" id="Fill-102" fill="#B01C33"></path>
                    <path d="M154.741285,39.8494181 L147.45054,52.1429138 L146.968068,50.5427931 L155.125283,36.7899957 L154.741285,39.8494181 L154.741285,39.8494181 Z M157.216689,20.0992974 L155.984458,20.9405603 L143.503231,41.981 L144.397315,41.981 L144.57707,42.581306 L157.030161,21.5862414 L157.216689,20.0992974 L157.216689,20.0992974 Z M154.113967,22.2162759 L150.372986,24.7697931 L140.163442,41.981 L142.389273,41.981 L154.113967,22.2162759 L154.113967,22.2162759 Z M148.500411,26.0486379 L141.017928,31.156194 L134.594173,41.981 L139.051047,41.981 L148.500411,26.0486379 L148.500411,26.0486379 Z M139.145353,32.4319095 L133.483341,41.981 L125.15575,41.981 L139.145353,32.4319095 L139.145353,32.4319095 Z M145.178857,44.5856293 L145.659766,46.1852284 L156.168381,28.4675948 L156.551857,25.408694 L145.178857,44.5856293 L145.178857,44.5856293 Z" id="Fill-103" fill="#B01C33"></path>
                    <path d="M4.45543692,81.7660086 L4.45543692,77.2545862 L1.83622897,77.2545862 L1.83622897,81.7660086 L0.655579439,81.7660086 L0.655579439,76.2146121 L5.6444229,76.2146121 L5.6444229,81.7660086 L4.45543692,81.7660086" id="Fill-70" fill="#FFFFFF"></path>
                </g>
            </g>
        </g>
    </g>
</svg>