<?xml version="1.0" encoding="UTF-8" standalone="no"?>
<svg width="256px" height="86px" viewBox="0 0 256 86" version="1.1" xmlns="http://www.w3.org/2000/svg" xmlns:xlink="http://www.w3.org/1999/xlink" xmlns:sketch="http://www.bohemiancoding.com/sketch/ns">
    <!-- Generator: Sketch 3.0.4 (8053) - http://www.bohemiancoding.com/sketch -->
    <title>logo</title>
    <desc>Created with Sketch.</desc>
    <defs>
        <linearGradient x1="3.061617e-15%" y1="50%" x2="100%" y2="50%" id="linearGradient-1">
            <stop stop-color="#254189" offset="0%"></stop>
            <stop stop-color="#34A7DC" offset="100%"></stop>
        </linearGradient>
        <linearGradient x1="100%" y1="50%" x2="0%" y2="50%" id="linearGradient-2">
            <stop stop-color="#E32F2F" offset="0%"></stop>
            <stop stop-color="#981F25" offset="100%"></stop>
        </linearGradient>
    </defs>
    <g id="Page-1" stroke="none" stroke-width="1" fill="none" fill-rule="evenodd" sketch:type="MSPage">
        <g id="Landscape-Retina" sketch:type="MSArtboardGroup" transform="translate(-796.000000, -778.000000)">
            <g id="logo" sketch:type="MSLayerGroup" transform="translate(797.000000, 779.000000)">
                <path d="M58.338,56.107 C58.297,56.149 58.25,56.185 58.208,56.227 C54.315,60.566 48.682,63.314 42.394,63.314 C30.652,63.314 21.133,53.795 21.133,42.053 C21.133,35.765 23.88,30.131 28.221,26.239 C28.261,26.197 28.297,26.15 28.339,26.108 L53.452,0.995 C49.925,0.047 46.22,-0.466 42.394,-0.466 C18.91,-0.466 -0.126,18.57 -0.126,42.053 C-0.126,65.536 18.91,84.573 42.394,84.573 C65.877,84.573 84.913,65.536 84.913,42.053 C84.913,38.227 84.399,34.522 83.452,30.995 L58.338,56.107" id="Clip-5" fill="url(#linearGradient-1)" sketch:type="MSShapeGroup"></path>
                <path d="M63.987,5.426 L34.877,34.537 C32.953,36.46 31.764,39.118 31.764,42.053 C31.764,47.924 36.523,52.684 42.394,52.684 C45.329,52.684 47.986,51.493 49.91,49.57 L79.021,20.459 L79.021,5.426 L63.987,5.426" id="Clip-2" fill="url(#linearGradient-2)" sketch:type="MSShapeGroup"></path>
                <path d="M105.965,66.307 L111.519,66.307 L111.519,73.943 L110.569,73.943 L110.569,67.147 L106.915,67.147 L106.915,73.943 L105.965,73.943 L105.965,66.307" id="Fill-4" fill="#FFFFFF" sketch:type="MSShapeGroup"></path>
                <path d="M125.702,68.336 L126.575,68.336 L128.55,71.085 L130.481,68.336 L131.354,68.336 L131.354,73.943 L130.481,73.943 L130.481,69.689 L128.746,72.121 L128.321,72.121 L126.575,69.689 L126.575,73.943 L125.702,73.943 L125.702,68.336" id="Fill-7" fill="#FFFFFF" sketch:type="MSShapeGroup"></path>
                <path d="M141.132,68.336 L142.005,68.336 L142.005,73.18 L144.089,73.18 L144.089,68.336 L144.962,68.336 L144.962,73.18 L147.045,73.18 L147.045,68.336 L147.918,68.336 L147.918,73.943 L141.132,73.943 L141.132,68.336" id="Fill-9" fill="#FFFFFF" sketch:type="MSShapeGroup"></path>
                <path d="M149.114,73.147 L149.201,73.147 C150.009,73.147 150.271,72.471 150.271,71.237 L150.271,68.336 L154.274,68.336 L154.274,73.943 L153.401,73.943 L153.401,69.1 L151.1,69.1 L151.1,71.227 C151.1,73.081 150.38,73.943 149.321,73.943 L149.114,73.943 L149.114,73.147" id="Fill-10" fill="#FFFFFF" sketch:type="MSShapeGroup"></path>
                <path d="M161.981,68.336 L162.853,68.336 L162.853,70.758 L165.723,70.758 L165.723,68.336 L166.596,68.336 L166.596,73.943 L165.723,73.943 L165.723,71.522 L162.853,71.522 L162.853,73.943 L161.981,73.943 L161.981,68.336" id="Fill-12" fill="#FFFFFF" sketch:type="MSShapeGroup"></path>
                <path d="M168.403,68.336 L169.276,68.336 L169.276,70.758 L172.146,70.758 L172.146,68.336 L173.019,68.336 L173.019,73.943 L172.146,73.943 L172.146,71.522 L169.276,71.522 L169.276,73.943 L168.403,73.943 L168.403,68.336" id="Fill-13" fill="#FFFFFF" sketch:type="MSShapeGroup"></path>
                <path d="M182.798,68.336 L183.671,68.336 L183.671,72.602 L186.649,68.336 L187.522,68.336 L187.522,73.943 L186.649,73.943 L186.649,69.689 L183.671,73.943 L182.798,73.943 L182.798,68.336 L182.798,68.336 Z M183.453,66.219 L183.453,66.088 L184.217,66.088 L184.217,66.208 C184.217,66.731 184.555,67.048 185.154,67.048 C185.755,67.048 186.103,66.731 186.103,66.208 L186.103,66.088 L186.867,66.088 L186.867,66.219 C186.867,67.168 186.158,67.714 185.154,67.714 C184.151,67.714 183.453,67.168 183.453,66.219 L183.453,66.219 Z" id="Fill-15" fill="#FFFFFF" sketch:type="MSShapeGroup"></path>
                <path d="M194.499,71.117 L196.321,73.528 L196.321,73.943 L195.535,73.943 L193.942,71.783 L192.394,73.943 L191.607,73.943 L191.607,73.528 L193.408,71.117 L191.63,68.75 L191.63,68.336 L192.426,68.336 L193.965,70.431 L195.47,68.336 L196.267,68.336 L196.267,68.75 L194.499,71.117" id="Fill-16" fill="#FFFFFF" sketch:type="MSShapeGroup"></path>
                <path d="M202.851,73.147 L202.937,73.147 C203.745,73.147 204.007,72.471 204.007,71.237 L204.007,68.336 L208.011,68.336 L208.011,73.943 L207.138,73.943 L207.138,69.1 L204.836,69.1 L204.836,71.227 C204.836,73.081 204.116,73.943 203.058,73.943 L202.851,73.943 L202.851,73.147" id="Fill-18" fill="#FFFFFF" sketch:type="MSShapeGroup"></path>
                <path d="M216.678,68.336 L217.551,68.336 L217.551,72.602 L220.529,68.336 L221.402,68.336 L221.402,73.943 L220.529,73.943 L220.529,69.689 L217.551,73.943 L216.678,73.943 L216.678,68.336" id="Fill-20" fill="#FFFFFF" sketch:type="MSShapeGroup"></path>
                <path d="M223.209,68.336 L224.082,68.336 L224.082,70.758 L226.951,70.758 L226.951,68.336 L227.824,68.336 L227.824,73.943 L226.951,73.943 L226.951,71.522 L224.082,71.522 L224.082,73.943 L223.209,73.943 L223.209,68.336" id="Fill-21" fill="#FFFFFF" sketch:type="MSShapeGroup"></path>
                <path d="M229.632,68.336 L233.298,68.336 L233.298,69.1 L230.505,69.1 L230.505,73.943 L229.632,73.943 L229.632,68.336" id="Fill-22" fill="#FFFFFF" sketch:type="MSShapeGroup"></path>
                <path d="M238.292,67.147 L235.968,67.147 L235.968,66.307 L241.554,66.307 L241.554,67.147 L239.241,67.147 L239.241,73.943 L238.292,73.943 L238.292,67.147" id="Fill-23" fill="#FFFFFF" sketch:type="MSShapeGroup"></path>
                <path d="M242.815,66.307 L243.765,66.307 L243.765,69.689 L244.986,69.689 L247.201,66.307 L248.085,66.307 L248.085,66.623 L245.815,70.06 L248.227,73.627 L248.227,73.943 L247.288,73.943 L244.997,70.528 L243.765,70.528 L243.765,73.943 L242.815,73.943 L242.815,66.307" id="Fill-24" fill="#FFFFFF" sketch:type="MSShapeGroup"></path>
                <path d="M249.163,71.357 L249.163,68.892 C249.163,67.157 250.243,66.143 252.087,66.143 C253.56,66.143 254.868,66.961 254.868,68.739 L254.868,68.849 L253.919,68.849 L253.919,68.739 C253.919,67.55 252.959,67.016 252.075,67.016 C250.788,67.016 250.111,67.692 250.111,68.826 L250.111,71.423 C250.111,72.558 250.788,73.234 252.075,73.234 C252.959,73.234 253.919,72.699 253.919,71.511 L253.919,71.401 L254.868,71.401 L254.868,71.511 C254.868,73.289 253.56,74.107 252.087,74.107 C250.243,74.107 249.163,73.093 249.163,71.357" id="Fill-25" fill="#FFFFFF" sketch:type="MSShapeGroup"></path>
                <path d="M135.953,14.456 L144.524,14.456 L144.524,17.161 L139.065,17.161 L139.065,27.001 L135.953,27.001 L135.953,14.456" id="Fill-28" fill="#FFFFFF" sketch:type="MSShapeGroup"></path>
                <path d="M148.761,29.707 L149.934,27.001 L145.624,15.917 L145.624,14.456 L148.497,14.456 L151.466,22.763 L154.267,14.456 L157.092,14.456 L157.092,15.917 L151.298,30.832 L148.761,30.832 L148.761,29.707" id="Fill-29" fill="#FFFFFF" sketch:type="MSShapeGroup"></path>
                <path d="M158.599,22.644 L158.599,18.813 C158.599,15.94 160.706,14.169 163.914,14.169 C167.026,14.169 169.061,15.868 169.061,18.861 L169.061,19.005 L165.949,19.005 L165.949,18.861 C165.949,17.736 165.23,16.994 163.914,16.994 C162.382,16.994 161.711,17.712 161.711,18.765 L161.711,22.691 C161.711,23.745 162.382,24.463 163.914,24.463 C165.23,24.463 165.949,23.721 165.949,22.62 L165.949,22.38 L169.061,22.38 L169.061,22.548 C169.061,25.493 166.931,27.288 163.914,27.288 C160.706,27.288 158.599,25.517 158.599,22.644" id="Fill-30" fill="#FFFFFF" sketch:type="MSShapeGroup"></path>
                <path d="M106.127,47.177 L106.127,41.766 C106.127,37.959 108.449,35.733 112.711,35.733 C116.015,35.733 118.935,37.457 118.935,41.598 L118.935,41.838 L115.536,41.838 L115.536,41.598 C115.536,39.611 114.052,38.845 112.495,38.845 C110.484,38.845 109.526,39.875 109.526,41.526 L109.526,47.416 C109.526,49.068 110.484,50.098 112.495,50.098 C114.052,50.098 115.536,49.379 115.536,47.344 L115.536,47.104 L118.935,47.104 L118.935,47.344 C118.935,51.486 116.015,53.21 112.711,53.21 C108.449,53.21 106.127,50.983 106.127,47.177" id="Fill-31" fill="#FFFFFF" sketch:type="MSShapeGroup"></path>
                <path d="M162.597,47.177 L162.597,41.766 C162.597,37.959 164.919,35.733 169.181,35.733 C172.484,35.733 175.405,37.457 175.405,41.598 L175.405,41.838 L172.006,41.838 L172.006,41.598 C172.006,39.611 170.522,38.845 168.965,38.845 C166.954,38.845 165.996,39.875 165.996,41.526 L165.996,47.416 C165.996,49.068 166.954,50.098 168.965,50.098 C170.522,50.098 172.006,49.379 172.006,47.344 L172.006,47.104 L175.405,47.104 L175.405,47.344 C175.405,51.486 172.484,53.21 169.181,53.21 C164.919,53.21 162.597,50.983 162.597,47.177" id="Fill-35" fill="#FFFFFF" sketch:type="MSShapeGroup"></path>
                <path d="M219.066,40.306 L222.179,40.306 L222.179,48.038 L226.991,40.306 L230.103,40.306 L230.103,52.851 L226.991,52.851 L226.991,45.117 L222.179,52.851 L219.066,52.851 L219.066,40.306" id="Fill-39" fill="#FFFFFF" sketch:type="MSShapeGroup"></path>
                <path d="M233.046,48.493 L233.046,44.663 C233.046,41.79 235.153,40.018 238.361,40.018 C241.474,40.018 243.509,41.718 243.509,44.711 L243.509,44.854 L240.396,44.854 L240.396,44.711 C240.396,43.585 239.678,42.843 238.361,42.843 C236.829,42.843 236.158,43.562 236.158,44.615 L236.158,48.541 C236.158,49.595 236.829,50.313 238.361,50.313 C239.678,50.313 240.396,49.57 240.396,48.47 L240.396,48.229 L243.509,48.229 L243.509,48.397 C243.509,51.343 241.378,53.138 238.361,53.138 C235.153,53.138 233.046,51.366 233.046,48.493" id="Fill-40" fill="#FFFFFF" sketch:type="MSShapeGroup"></path>
                <path d="M118.094,70.267 L118.094,72.013 C118.094,73.354 117.265,74.074 116.086,74.074 C115.257,74.074 114.646,73.66 114.308,73.256 L114.308,75.69 L113.435,75.69 L113.435,68.336 L113.959,68.336 L114.264,69.077 C114.646,68.641 115.278,68.205 116.119,68.205 C117.253,68.205 118.094,68.925 118.094,70.267 L118.094,70.267 Z M117.221,71.947 L117.221,70.332 C117.221,69.536 116.708,69.001 115.966,69.001 C115.268,69.001 114.7,69.459 114.308,69.885 L114.308,72.394 C114.7,72.819 115.257,73.278 115.955,73.278 C116.708,73.278 117.221,72.743 117.221,71.947 L117.221,71.947 Z" id="Fill-5" fill="#FFFFFF" sketch:type="MSShapeGroup"></path>
                <path d="M119.486,71.99 L119.486,70.288 C119.486,69.11 120.272,68.205 121.821,68.205 C123.371,68.205 124.146,69.11 124.146,70.288 L124.146,71.99 C124.146,73.169 123.371,74.074 121.821,74.074 C120.272,74.074 119.486,73.169 119.486,71.99 L119.486,71.99 Z M123.272,71.958 L123.272,70.321 C123.272,69.59 122.804,69.001 121.821,69.001 C120.861,69.001 120.359,69.579 120.359,70.321 L120.359,71.958 C120.359,72.699 120.861,73.278 121.821,73.278 C122.804,73.278 123.272,72.689 123.272,71.958 L123.272,71.958 Z" id="Fill-6" fill="#FFFFFF" sketch:type="MSShapeGroup"></path>
                <path d="M133.16,68.336 L134.033,68.336 L134.033,70.267 L135.768,70.267 C136.881,70.267 137.546,70.976 137.546,72.11 C137.546,73.245 136.881,73.943 135.768,73.943 L133.16,73.943 L133.16,68.336 L133.16,68.336 Z M135.647,73.18 C136.248,73.18 136.674,72.787 136.674,72.11 C136.674,71.423 136.248,71.03 135.659,71.03 L134.033,71.03 L134.033,73.18 L135.647,73.18 L135.647,73.18 Z M138.452,68.336 L139.324,68.336 L139.324,73.943 L138.452,73.943 L138.452,68.336 Z" id="Fill-8" fill="#FFFFFF" sketch:type="MSShapeGroup"></path>
                <path d="M155.831,72.013 L155.831,70.288 C155.831,69.045 156.704,68.205 158.166,68.205 C159.584,68.205 160.435,69.012 160.435,70.267 L160.435,71.434 L156.704,71.434 L156.704,71.99 C156.704,72.743 157.206,73.278 158.166,73.278 C159.006,73.278 159.432,72.863 159.53,72.264 L160.402,72.264 C160.305,73.365 159.519,74.074 158.166,74.074 C156.704,74.074 155.831,73.267 155.831,72.013 L155.831,72.013 Z M159.563,70.725 L159.563,70.267 C159.563,69.536 159.083,69.001 158.134,69.001 C157.206,69.001 156.704,69.524 156.704,70.267 L156.704,70.725 L159.563,70.725 L159.563,70.725 Z" id="Fill-11" fill="#FFFFFF" sketch:type="MSShapeGroup"></path>
                <path d="M174.826,68.336 L175.699,68.336 L175.699,70.267 L177.434,70.267 C178.547,70.267 179.212,70.976 179.212,72.11 C179.212,73.245 178.547,73.943 177.434,73.943 L174.826,73.943 L174.826,68.336 L174.826,68.336 Z M177.314,73.18 C177.914,73.18 178.34,72.787 178.34,72.11 C178.34,71.423 177.914,71.03 177.325,71.03 L175.699,71.03 L175.699,73.18 L177.314,73.18 L177.314,73.18 Z M180.118,68.336 L180.99,68.336 L180.99,73.943 L180.118,73.943 L180.118,68.336 Z" id="Fill-14" fill="#FFFFFF" sketch:type="MSShapeGroup"></path>
                <path d="M197.246,71.99 L197.246,70.288 C197.246,69.11 198.032,68.205 199.581,68.205 C201.131,68.205 201.905,69.11 201.905,70.288 L201.905,71.99 C201.905,73.169 201.131,74.074 199.581,74.074 C198.032,74.074 197.246,73.169 197.246,71.99 L197.246,71.99 Z M201.032,71.958 L201.032,70.321 C201.032,69.59 200.564,69.001 199.581,69.001 C198.621,69.001 198.119,69.579 198.119,70.321 L198.119,71.958 C198.119,72.699 198.621,73.278 199.581,73.278 C200.564,73.278 201.032,72.689 201.032,71.958 L201.032,71.958 Z" id="Fill-17" fill="#FFFFFF" sketch:type="MSShapeGroup"></path>
                <path d="M209.262,73.18 L209.775,73.18 C210.2,72.722 210.484,71.99 210.484,70.703 L210.484,68.336 L214.521,68.336 L214.521,73.18 L215.361,73.18 L215.361,75.351 L214.499,75.351 L214.499,73.943 L210.124,73.943 L210.124,75.351 L209.262,75.351 L209.262,73.18 L209.262,73.18 Z M213.648,73.18 L213.648,69.1 L211.314,69.1 L211.314,70.834 C211.314,71.935 211.052,72.646 210.735,73.18 L213.648,73.18 L213.648,73.18 Z" id="Fill-19" fill="#FFFFFF" sketch:type="MSShapeGroup"></path>
                <path d="M104.93,25.876 L110.724,10.242 L114.052,10.242 L119.869,25.876 L119.869,27.001 L116.518,27.001 L115.177,23.075 L109.455,23.075 L108.066,27.001 L104.93,27.001 L104.93,25.876 L104.93,25.876 Z M114.148,20.25 L112.328,14.791 L110.46,20.25 L114.148,20.25 L114.148,20.25 Z" id="Fill-26" fill="#FFFFFF" sketch:type="MSShapeGroup"></path>
                <path d="M121.926,14.456 L123.722,14.456 L124.631,15.701 C125.493,14.887 126.547,14.169 128.366,14.169 C130.809,14.169 132.819,15.629 132.819,18.765 L132.819,22.691 C132.819,25.828 130.809,27.288 128.366,27.288 C126.618,27.288 125.565,26.57 125.038,26.115 L125.038,30.832 L121.926,30.832 L121.926,14.456 L121.926,14.456 Z M125.038,23.147 C125.661,23.769 126.499,24.463 127.72,24.463 C128.678,24.463 129.707,23.769 129.707,22.452 L129.707,19.005 C129.707,17.688 128.678,16.994 127.72,16.994 C126.499,16.994 125.661,17.688 125.038,18.31 L125.038,23.147 L125.038,23.147 Z" id="Fill-27" fill="#FFFFFF" sketch:type="MSShapeGroup"></path>
                <path d="M121.95,40.306 L127.744,40.306 C130.378,40.306 132.102,41.263 132.102,43.657 C132.102,44.902 131.623,45.788 130.856,46.387 C132.029,46.938 132.676,47.799 132.676,49.164 C132.676,52.133 130.784,52.851 127.935,52.851 L121.95,52.851 L121.95,40.306 L121.95,40.306 Z M127.624,45.381 C128.486,45.381 128.821,44.83 128.821,44.208 C128.821,43.489 128.486,43.011 127.624,43.011 L125.062,43.011 L125.062,45.381 L127.624,45.381 L127.624,45.381 Z M128.127,50.146 C129.013,50.146 129.349,49.595 129.349,48.948 C129.349,48.206 129.013,47.751 128.127,47.751 L125.062,47.751 L125.062,50.146 L128.127,50.146 L128.127,50.146 Z" id="Fill-32" fill="#FFFFFF" sketch:type="MSShapeGroup"></path>
                <path d="M134.661,49.403 C134.661,46.817 136.337,45.333 139.736,45.333 L142.322,45.333 L142.322,44.543 C142.322,43.466 141.7,42.843 140.311,42.843 C138.898,42.843 138.301,43.466 138.301,44.279 L135.26,44.279 C135.26,41.814 136.864,40.018 140.311,40.018 C143.759,40.018 145.435,41.814 145.435,44.327 L145.435,52.851 L143.64,52.851 L142.73,51.63 C141.819,52.468 140.742,53.138 138.875,53.138 C136.624,53.138 134.661,51.869 134.661,49.403 L134.661,49.403 Z M142.322,49.092 L142.322,47.703 L139.736,47.703 C138.108,47.703 137.773,48.47 137.773,48.996 C137.773,49.834 138.397,50.313 139.522,50.313 C140.719,50.313 141.58,49.906 142.322,49.092 L142.322,49.092 Z" id="Fill-33" fill="#FFFFFF" sketch:type="MSShapeGroup"></path>
                <path d="M148.808,40.306 L150.603,40.306 L151.513,41.55 C152.375,40.736 153.429,40.018 155.248,40.018 C157.69,40.018 159.701,41.478 159.701,44.615 L159.701,48.541 C159.701,51.678 157.69,53.138 155.248,53.138 C153.5,53.138 152.447,52.42 151.92,51.965 L151.92,56.682 L148.808,56.682 L148.808,40.306 L148.808,40.306 Z M151.92,48.996 C152.543,49.618 153.381,50.313 154.602,50.313 C155.56,50.313 156.589,49.618 156.589,48.302 L156.589,44.854 C156.589,43.537 155.56,42.843 154.602,42.843 C153.381,42.843 152.543,43.537 151.92,44.16 L151.92,48.996 L151.92,48.996 Z" id="Fill-34" fill="#FFFFFF" sketch:type="MSShapeGroup"></path>
                <path d="M177.868,48.541 L177.868,44.663 C177.868,41.79 180.047,40.018 183.327,40.018 C186.415,40.018 188.546,41.67 188.546,44.615 L188.546,47.607 L180.98,47.607 L180.98,48.493 C180.98,49.547 181.723,50.313 183.327,50.313 C184.524,50.313 185.194,49.834 185.41,49.044 L188.522,49.044 C188.283,51.605 186.392,53.138 183.327,53.138 C180.047,53.138 177.868,51.486 177.868,48.541 L177.868,48.541 Z M185.434,45.237 L185.434,44.615 C185.434,43.537 184.644,42.843 183.207,42.843 C181.723,42.843 180.98,43.562 180.98,44.615 L180.98,45.237 L185.434,45.237 L185.434,45.237 Z" id="Fill-36" fill="#FFFFFF" sketch:type="MSShapeGroup"></path>
                <path d="M191.489,40.306 L193.285,40.306 L194.194,41.55 C195.057,40.736 196.11,40.018 197.93,40.018 C200.372,40.018 202.383,41.478 202.383,44.615 L202.383,48.541 C202.383,51.678 200.372,53.138 197.93,53.138 C196.182,53.138 195.129,52.42 194.602,51.965 L194.602,56.682 L191.489,56.682 L191.489,40.306 L191.489,40.306 Z M194.602,48.996 C195.225,49.618 196.063,50.313 197.283,50.313 C198.241,50.313 199.271,49.618 199.271,48.302 L199.271,44.854 C199.271,43.537 198.241,42.843 197.283,42.843 C196.063,42.843 195.225,43.537 194.602,44.16 L194.602,48.996 L194.602,48.996 Z" id="Fill-37" fill="#FFFFFF" sketch:type="MSShapeGroup"></path>
                <path d="M205.518,40.306 L211.311,40.306 C213.945,40.306 215.669,41.263 215.669,43.657 C215.669,44.902 215.19,45.788 214.424,46.387 C215.597,46.938 216.243,47.799 216.243,49.164 C216.243,52.133 214.352,52.851 211.503,52.851 L205.518,52.851 L205.518,40.306 L205.518,40.306 Z M211.191,45.381 C212.054,45.381 212.389,44.83 212.389,44.208 C212.389,43.489 212.054,43.011 211.191,43.011 L208.63,43.011 L208.63,45.381 L211.191,45.381 L211.191,45.381 Z M211.694,50.146 C212.58,50.146 212.916,49.595 212.916,48.948 C212.916,48.206 212.58,47.751 211.694,47.751 L208.63,47.751 L208.63,50.146 L211.694,50.146 L211.694,50.146 Z" id="Fill-38" fill="#FFFFFF" sketch:type="MSShapeGroup"></path>
            </g>
        </g>
    </g>
</svg>