<?xml version="1.0" encoding="UTF-8" standalone="no"?>
<svg width="223px" height="82px" viewBox="0 0 223 82" version="1.1" xmlns="http://www.w3.org/2000/svg" xmlns:xlink="http://www.w3.org/1999/xlink" xmlns:sketch="http://www.bohemiancoding.com/sketch/ns" preserveAspectRatio="xMinYMid meet">
    <!-- Generator: Sketch 3.2.2 (9983) - http://www.bohemiancoding.com/sketch -->
    <title>logo_eng</title>
    <desc>Created with Sketch.</desc>
    <defs></defs>
    <g id="Page-1" stroke="none" stroke-width="1" fill="none" fill-rule="evenodd" sketch:type="MSPage">
        <g id="Landscape-Retina" sketch:type="MSArtboardGroup" transform="translate(-860.000000, -905.000000)">
            <g id="Imported-Layers" sketch:type="MSLayerGroup" transform="translate(860.000000, 905.000000)">
                <g id="logo_eng" sketch:type="MSShapeGroup">
                    <path d="M182.223825,0.285288793 L183.023603,2.76422414 L185.625096,2.76057328 L183.518058,4.28767672 L184.328257,6.76243966 L182.223825,5.22646983 L180.121998,6.76243966 L180.932717,4.28767672 L178.823596,2.76057328 L181.425089,2.76422414 L182.223825,0.285288793" id="Fill-1" fill="#B01C33"></path>
                    <path d="M200.861519,5.29166379 C201.126722,6.11728017 201.39453,6.94289655 201.660255,7.76851293 C202.526724,7.76694828 203.39632,7.76694828 204.263832,7.76538362 C203.560444,8.27285345 202.858619,8.78345259 202.153147,9.29196552 C202.426166,10.1160172 202.692932,10.9411121 202.963346,11.7693362 C202.265168,11.2561293 201.56178,10.743444 200.861519,10.2323233 C200.160736,10.743444 199.459953,11.2561293 198.760734,11.7693362 C199.030105,10.9411121 199.299477,10.1160172 199.567285,9.29196552 C198.865981,8.78345259 198.163636,8.27285345 197.460248,7.76538362 C198.32828,7.76694828 199.194229,7.76694828 200.062262,7.76851293 C200.326944,6.94289655 200.595794,6.11728017 200.861519,5.29166379" id="Fill-2" fill="#B01C33"></path>
                    <path d="M214.508285,18.9490172 C214.772967,19.7772414 215.039734,20.6018147 215.307021,21.4300388 C216.173491,21.4258664 217.042044,21.4243017 217.907993,21.4243017 C217.206168,21.9333362 216.503301,22.4418491 215.800435,22.9498405 C216.067722,23.7754569 216.34022,24.5984655 216.608549,25.4266897 C215.907245,24.9124397 215.206984,24.4028836 214.508285,23.8917629 C213.806981,24.4028836 213.105157,24.9124397 212.403332,25.4266897 C212.675829,24.5984655 212.944159,23.7754569 213.214572,22.9498405 C212.5091,22.4418491 211.807797,21.9333362 211.108056,21.4243017 C211.974005,21.4243017 212.840995,21.4258664 213.706423,21.4300388 C213.972668,20.6018147 214.24204,19.7772414 214.508285,18.9490172" id="Fill-3" fill="#B01C33"></path>
                    <path d="M219.507028,37.6049224 C219.772752,38.4321034 220.037956,39.2566767 220.306806,40.0843793 C221.174318,40.0822931 222.04235,40.0807284 222.909341,40.0807284 C222.204911,40.5892414 221.502565,41.0972328 220.799178,41.6083534 C221.071675,42.4318836 221.338963,43.2564569 221.608855,44.0825948 C220.906509,43.5709526 220.207811,43.0593103 219.507028,42.546625 C218.806245,43.0593103 218.105463,43.5709526 217.405201,44.0825948 C217.674572,43.2564569 217.942381,42.4318836 218.213315,41.6083534 C217.512533,41.0972328 216.809145,40.5892414 216.106278,40.0807284 C216.972748,40.0807284 217.840259,40.0822931 218.70725,40.0843793 C218.974016,39.2566767 219.241304,38.4321034 219.507028,37.6049224" id="Fill-4" fill="#B01C33"></path>
                    <path d="M214.508285,56.2639569 C214.772967,57.0895733 215.039734,57.9151897 215.307021,58.740806 C216.173491,58.740806 217.042044,58.7366336 217.907993,58.7366336 C217.206168,59.244625 216.503301,59.7531379 215.800435,60.2637371 C216.067722,61.0867457 216.34022,61.9134052 216.608549,62.7395431 C215.907245,62.2268578 215.206984,61.714694 214.508285,61.2030517 C213.806981,61.714694 213.105157,62.2268578 212.403332,62.7395431 C212.675829,61.9134052 212.944159,61.0867457 213.214572,60.2637371 C212.5091,59.7531379 211.807797,59.244625 211.108056,58.7366336 C211.974005,58.7366336 212.840995,58.740806 213.706423,58.740806 C213.972668,57.9151897 214.24204,57.0895733 214.508285,56.2639569" id="Fill-5" fill="#B01C33"></path>
                    <path d="M200.861519,69.9218319 C201.126722,70.7474483 201.39453,71.5730647 201.660255,72.3997241 C202.526724,72.3997241 203.39632,72.3950302 204.263832,72.3950302 C203.560444,72.9051078 202.858619,73.4115345 202.153147,73.9216121 C202.426166,74.7456638 202.692932,75.5707586 202.963346,76.3984612 C202.265168,75.886819 201.56178,75.3741336 200.861519,74.8635345 C200.160736,75.3741336 199.459953,75.886819 198.760734,76.3984612 C199.030105,75.5707586 199.299477,74.7456638 199.567285,73.9216121 C198.865981,73.4115345 198.163636,72.9051078 197.460248,72.3950302 C198.32828,72.3950302 199.194229,72.3997241 200.062262,72.3997241 C200.326944,71.5730647 200.595794,70.7474483 200.861519,69.9218319" id="Fill-6" fill="#B01C33"></path>
                    <path d="M182.223825,74.9255991 C182.489549,75.7512155 182.755794,76.5773534 183.023603,77.4029698 C183.890593,77.4029698 184.759668,77.4008836 185.625096,77.399319 C184.921708,77.9073103 184.218841,78.4173879 183.518058,78.9264224 C183.788472,79.7525603 184.05628,80.5750474 184.328257,81.4032716 C183.627995,80.8905862 182.924607,80.3773793 182.223825,79.8683448 C181.524084,80.3773793 180.825386,80.8905862 180.124603,81.4032716 C180.39189,80.5750474 180.66022,79.7525603 180.932717,78.9264224 C180.229329,78.4173879 179.525942,77.9073103 178.823596,77.399319 C179.689544,77.4008836 180.557577,77.4029698 181.426652,77.4029698 C181.692376,76.5773534 181.959143,75.7512155 182.223825,74.9255991" id="Fill-7" fill="#B01C33"></path>
                    <path d="M144.941143,37.6049224 C145.209993,38.4321034 145.475196,39.2566767 145.743526,40.0843793 C146.608953,40.0822931 147.475944,40.0807284 148.346061,40.0807284 C147.64111,40.5892414 146.940327,41.0972328 146.235897,41.6083534 C146.505269,42.4318836 146.773598,43.2564569 147.045575,44.0825948 C146.345834,43.5709526 145.644009,43.0593103 144.941143,42.546625 C144.242965,43.0593103 143.542182,43.5709526 142.839836,44.0825948 C143.109729,43.2564569 143.381706,42.4318836 143.649514,41.6083534 C142.946126,41.0972328 142.243259,40.5892414 141.540914,40.0807284 C142.406341,40.0807284 143.276979,40.0822931 144.144491,40.0843793 C144.410215,39.2566767 144.675939,38.4321034 144.941143,37.6049224" id="Fill-8" fill="#B01C33"></path>
                    <path d="M149.943012,18.9490172 C150.208215,19.7772414 150.473939,20.6018147 150.739143,21.4300388 C151.607175,21.4258664 152.476771,21.4243017 153.343241,21.4243017 C152.640895,21.9333362 151.937507,22.4418491 151.23464,22.9498405 C151.504012,23.7754569 151.774425,24.5984655 152.044318,25.4266897 C151.344056,24.9124397 150.641189,24.4028836 149.943012,23.8917629 C149.242229,24.4028836 148.541967,24.9124397 147.838579,25.4266897 C148.110556,24.5984655 148.378364,23.7754569 148.648778,22.9498405 C147.945911,22.4418491 147.243044,21.9333362 146.542262,21.4243017 C147.407689,21.4243017 148.275201,21.4258664 149.140629,21.4300388 C149.408958,20.6018147 149.675203,19.7772414 149.943012,18.9490172" id="Fill-9" fill="#B01C33"></path>
                    <path d="M163.585089,5.29166379 L164.38643,7.77059914 L166.985839,7.76538362 L164.878801,9.29196552 L165.689521,11.7693362 L163.585089,10.2323233 L161.483262,11.7693362 L162.292418,9.29196552 L160.183818,7.76538362 L162.787395,7.77059914 L163.585089,5.29166379" id="Fill-10" fill="#B01C33"></path>
                    <path d="M192.571963,22.0256509 L165.945867,40.1965129 L182.176932,40.1965129 L187.904593,59.2534914 L192.571963,22.0256509 L192.571963,22.0256509 Z M195.636129,17.0124957 L188.881521,70.8872241 L180.383554,42.6076466 L158.136178,42.6076466 L195.636129,17.0124957 L195.636129,17.0124957 Z" id="Fill-11" fill="#B01C33"></path>
                    <path d="M191.625776,39.2702371 L184.33503,51.5642543 L183.852558,49.9641336 L192.009773,36.2118578 L191.625776,39.2702371 L191.625776,39.2702371 Z M194.10118,19.5201164 L192.868949,20.3613793 L180.387722,41.401819 L181.281806,41.401819 L181.461561,42.002125 L193.914652,21.0075819 L194.10118,19.5201164 L194.10118,19.5201164 Z M190.998458,21.6370948 L187.257477,24.1916552 L177.047932,41.401819 L179.273764,41.401819 L190.998458,21.6370948 L190.998458,21.6370948 Z M185.384902,25.4694569 L177.902418,30.5770129 L171.478664,41.401819 L175.935537,41.401819 L185.384902,25.4694569 L185.384902,25.4694569 Z M176.029843,31.85325 L170.367832,41.401819 L162.040241,41.401819 L176.029843,31.85325 L176.029843,31.85325 Z M182.063348,44.0064483 L182.543736,45.606569 L193.052871,27.8889353 L193.436348,24.8300345 L182.063348,44.0064483 L182.063348,44.0064483 Z" id="Fill-12" fill="#B01C33"></path>
                    <path d="M12.3900467,42.4292759 L11.6355981,40.2325 L5.62397664,40.2325 L4.87004907,42.4292759 L0.412133178,42.4292759 L6.14969393,27.1671078 L11.0869556,27.1671078 L16.8474416,42.4292759 L12.3900467,42.4292759 L12.3900467,42.4292759 Z M8.61832477,31.0573621 L6.67541121,36.8006897 L10.5612383,36.8006897 L8.61832477,31.0573621 L8.61832477,31.0573621 Z" id="Fill-13" fill="#FFFFFF"></path>
                    <path d="M17.4982056,42.4292759 L17.4982056,31.3775948 L21.0187921,31.3775948 L21.0187921,32.7273707 C21.7503154,31.8355172 23.1445864,31.0803103 24.4706028,31.0803103 L24.4706028,34.4667457 C24.2647967,34.4208491 23.9672897,34.3749526 23.601528,34.3749526 C22.6876449,34.3749526 21.4757336,34.7640302 21.0187921,35.3815474 L21.0187921,42.4292759 L17.4982056,42.4292759" id="Fill-14" fill="#FFFFFF"></path>
                    <path d="M25.3078949,45.2670388 L26.8397173,42.7495086 C27.6853458,43.6653534 28.9196612,44.0309612 30.1998271,44.0309612 C31.3653668,44.0309612 33.0112944,43.5506121 33.0112944,41.4915259 L33.0112944,40.6445259 C32.0968902,41.719444 31.0001262,42.2462112 29.7423645,42.2462112 C27.0450023,42.2462112 24.8738785,40.3926164 24.8738785,36.6635216 C24.8738785,33.0246552 26.9767477,31.1032586 29.7423645,31.1032586 C30.9772009,31.1032586 32.1198154,31.5836078 33.0112944,32.6819957 L33.0112944,31.3775948 L36.5084346,31.3775948 L36.5084346,41.4456293 C36.5084346,45.9523578 32.9430397,46.9140991 30.1998271,46.9140991 C28.302243,46.9140991 26.7250911,46.43375 25.3078949,45.2670388 L25.3078949,45.2670388 Z M33.0112944,38.149944 L33.0112944,35.1984828 C32.576757,34.6044353 31.6399486,34.2148362 30.9084252,34.2148362 C29.5141542,34.2148362 28.4851238,35.0618362 28.4851238,36.6635216 C28.4851238,38.2876336 29.5141542,39.1346336 30.9084252,39.1346336 C31.6399486,39.1346336 32.576757,38.7450345 33.0112944,38.149944 L33.0112944,38.149944 Z" id="Fill-15" fill="#FFFFFF"></path>
                    <path d="M45.9921869,42.4292759 L45.9921869,41.1024483 C45.306514,41.8806034 44.0258271,42.7036121 42.1746145,42.7036121 C39.6606542,42.7036121 38.5404439,41.2844698 38.5404439,39.249375 L38.5404439,31.3775948 L42.0605093,31.3775948 L42.0605093,37.8072845 C42.0605093,39.1346336 42.7461822,39.5920345 43.8887967,39.5920345 C44.8949019,39.5920345 45.5805748,39.042319 45.9921869,38.5171164 L45.9921869,31.3775948 L49.5122523,31.3775948 L49.5122523,42.4292759 L45.9921869,42.4292759" id="Fill-16" fill="#FFFFFF"></path>
                    <path d="M50.7116589,41.0111767 L52.1747056,38.5849181 C52.9974089,39.3176983 54.7579626,40.0494353 56.0605327,40.0494353 C57.1119673,40.0494353 57.5465047,39.7067759 57.5465047,39.2029569 C57.5465047,37.7608664 51.123271,39.1800086 51.123271,34.7410819 C51.123271,32.795694 52.7916028,31.1032586 55.8547266,31.1032586 C57.7064603,31.1032586 59.2836121,31.6978276 60.4720771,32.5672543 L59.1236565,34.9017198 C58.4603879,34.2602112 57.2031472,33.6891121 55.8771308,33.6891121 C55.0549486,33.6891121 54.4833808,34.0317716 54.4833808,34.489694 C54.4833808,35.7711466 60.9066145,34.5121207 60.9066145,39.042319 C60.9066145,41.1483448 59.0548808,42.7036121 55.8771308,42.7036121 C53.9118131,42.7036121 51.8771986,42.0401983 50.7116589,41.0111767" id="Fill-17" fill="#FFFFFF"></path>
                    <path d="M13.4706589,62.4005345 L11.1619836,52.8368405 L8.85330841,62.4005345 L4.69342056,62.4005345 L0.327205607,47.1394095 L4.73927103,47.1394095 L7.04742523,57.3216638 L9.65360748,47.1394095 L12.6708808,47.1394095 L15.2765421,57.3216638 L17.5622921,47.1394095 L21.9972827,47.1394095 L17.6310678,62.4005345 L13.4706589,62.4005345" id="Fill-18" fill="#FFFFFF"></path>
                    <path d="M21.3433925,56.8632198 C21.3433925,53.6608922 23.7666939,51.0750388 27.2185047,51.0750388 C30.4869136,51.0750388 32.8643645,53.4767845 32.8643645,57.2298707 L32.8643645,57.9850776 L25.0010093,57.9850776 C25.2068154,59.0140991 26.1665491,59.9528922 27.7671472,59.9528922 C28.544,59.9528922 29.8929416,59.6091897 30.5098388,59.0140991 L31.9958107,61.210875 C30.8985257,62.1950431 29.0697173,62.6753922 27.3779393,62.6753922 C23.9725,62.6753922 21.3433925,60.4561897 21.3433925,56.8632198 L21.3433925,56.8632198 Z M27.2185047,53.7980603 C25.6866822,53.7980603 25.0927103,54.8959267 24.9551589,55.6965086 L29.5037336,55.6965086 C29.4125537,54.918875 28.840986,53.7980603 27.2185047,53.7980603 L27.2185047,53.7980603 Z" id="Fill-19" fill="#FFFFFF"></path>
                    <path d="M34.1867336,47.1394095 L37.7067991,47.1394095 L37.7067991,62.401056 L34.1867336,62.401056 L34.1867336,47.1394095 Z" id="Fill-20" fill="#FFFFFF"></path>
                    <path d="M47.2827734,62.4005345 L47.2827734,61.120125 C46.3683692,62.1726164 45.2486799,62.6753922 44.0143645,62.6753922 C41.2935561,62.6753922 39.1224322,60.616306 39.1224322,56.8632198 C39.1224322,53.2488664 41.2482266,51.0750388 44.0143645,51.0750388 C45.2257547,51.0750388 46.3912944,51.5553879 47.2827734,52.6537759 L47.2827734,47.1394095 L50.7793925,47.1394095 L50.7793925,62.4005345 L47.2827734,62.4005345 L47.2827734,62.4005345 Z M47.2827734,58.5566983 L47.2827734,55.1707845 C46.8258318,54.5762155 45.9114276,54.1860948 45.156979,54.1860948 C43.7627079,54.1860948 42.7341986,55.2161595 42.7341986,56.8632198 C42.7341986,58.5118448 43.7627079,59.5638147 45.156979,59.5638147 C45.9114276,59.5638147 46.8258318,59.1517888 47.2827734,58.5566983 L47.2827734,58.5566983 Z" id="Fill-21" fill="#FFFFFF"></path>
                    <path d="M52.5831916,48.329069 C52.5831916,47.2082543 53.4746706,46.3153578 54.5948808,46.3153578 C55.7145701,46.3153578 56.6060491,47.2082543 56.6060491,48.329069 C56.6060491,49.4504052 55.7145701,50.3652069 54.5948808,50.3652069 C53.4746706,50.3652069 52.5831916,49.4504052 52.5831916,48.329069 L52.5831916,48.329069 Z M52.8348481,51.349375 L56.3549136,51.349375 L56.3549136,62.4005345 L52.8348481,62.4005345 L52.8348481,51.349375 Z" id="Fill-22" fill="#FFFFFF"></path>
                    <path d="M65.8459603,62.4005345 L65.8459603,56.0172629 C65.8459603,54.666444 65.1373621,54.1860948 64.0400771,54.1860948 C62.9886425,54.1860948 62.3024486,54.7587586 61.8918785,55.2625776 L61.8918785,62.4005345 L58.3718131,62.4005345 L58.3718131,51.349375 L61.8918785,51.349375 L61.8918785,52.6996724 C62.5541051,51.9220388 63.8571963,51.0750388 65.7089299,51.0750388 C68.2234112,51.0750388 69.3665467,52.5390345 69.3665467,54.5762155 L69.3665467,62.4005345 L65.8459603,62.4005345" id="Fill-23" fill="#FFFFFF"></path>
                    <path d="M71.1776402,65.238819 L72.7094626,62.7212888 C73.5556121,63.6371336 74.7894065,64.0027414 76.0700935,64.0027414 C77.2356332,64.0027414 78.8810397,63.5223922 78.8810397,61.463306 L78.8810397,60.616306 C77.9671565,61.6912241 76.8693505,62.2179914 75.6126308,62.2179914 C72.9147477,62.2179914 70.7441449,60.3643966 70.7441449,56.6353017 C70.7441449,52.9969569 72.847014,51.0750388 75.6126308,51.0750388 C76.8464252,51.0750388 77.9900818,51.5553879 78.8810397,52.6537759 L78.8810397,51.349375 L82.3787009,51.349375 L82.3787009,61.417931 C82.3787009,65.9241379 78.812785,66.8858793 76.0700935,66.8858793 C74.1725093,66.8858793 72.5953575,66.4055302 71.1776402,65.238819 L71.1776402,65.238819 Z M78.8810397,58.1222457 L78.8810397,55.1707845 C78.4465023,54.5762155 77.510215,54.1860948 76.7781706,54.1860948 C75.3838995,54.1860948 74.3548692,55.0336164 74.3548692,56.6353017 C74.3548692,58.2594138 75.3838995,59.1064138 76.7781706,59.1064138 C77.510215,59.1064138 78.4465023,58.7173362 78.8810397,58.1222457 L78.8810397,58.1222457 Z" id="Fill-24" fill="#FFFFFF"></path>
                    <path d="M89.3531822,60.2501767 L91.4331262,57.298194 C92.5298902,58.3971034 94.2216682,59.3119052 96.3016121,59.3119052 C97.6500327,59.3119052 98.473257,58.786181 98.473257,58.0539224 C98.473257,55.9708448 89.8330491,57.6418966 89.8330491,51.7614009 C89.8330491,49.1984957 92.0041729,46.9099267 95.9124042,46.9099267 C98.3586308,46.9099267 100.484946,47.6421853 102.107949,49.0383793 L99.959229,51.8526724 C98.6785421,50.800181 97.0102103,50.2739353 95.5018341,50.2739353 C94.3592196,50.2739353 93.8553855,50.7318578 93.8553855,51.3723233 C93.8553855,53.3166681 102.473189,51.8990905 102.473189,57.5730517 C102.473189,60.6392543 100.210364,62.6753922 96.1187313,62.6753922 C93.0332033,62.6753922 90.8844836,61.714694 89.3531822,60.2501767" id="Fill-25" fill="#FFFFFF"></path>
                    <path d="M103.167199,56.8632198 C103.167199,53.6608922 105.5905,51.0750388 109.04179,51.0750388 C112.311241,51.0750388 114.68765,53.4767845 114.68765,57.2298707 L114.68765,57.9850776 L106.824815,57.9850776 C107.0301,59.0140991 107.990355,59.9528922 109.590432,59.9528922 C110.367806,59.9528922 111.716227,59.6091897 112.333645,59.0140991 L113.819096,61.210875 C112.721811,62.1950431 110.893523,62.6753922 109.201745,62.6753922 C105.796306,62.6753922 103.167199,60.4561897 103.167199,56.8632198 L103.167199,56.8632198 Z M109.04179,53.7980603 C107.510488,53.7980603 106.916516,54.8959267 106.778965,55.6965086 L111.328061,55.6965086 C111.23636,54.918875 110.664792,53.7980603 109.04179,53.7980603 L109.04179,53.7980603 Z" id="Fill-26" fill="#FFFFFF"></path>
                    <path d="M115.982404,62.4005345 L115.982404,51.349375 L119.502991,51.349375 L119.502991,52.6996724 C120.234514,51.8072974 121.628785,51.0520905 122.954801,51.0520905 L122.954801,54.4385259 C122.748995,54.3931509 122.451488,54.3467328 122.086248,54.3467328 C121.170801,54.3467328 119.959932,54.7358103 119.502991,55.3538491 L119.502991,62.4005345 L115.982404,62.4005345" id="Fill-27" fill="#FFFFFF"></path>
                    <path d="M127.475241,62.4005345 L123.131951,51.349375 L126.835939,51.349375 L129.326974,58.3517284 L131.841456,51.349375 L135.566806,51.349375 L131.224037,62.4005345 L127.475241,62.4005345" id="Fill-28" fill="#FFFFFF"></path>
                    <path d="M135.940904,48.329069 C135.940904,47.2082543 136.832383,46.3153578 137.952593,46.3153578 C139.072283,46.3153578 139.963762,47.2082543 139.963762,48.329069 C139.963762,49.4504052 139.072283,50.3652069 137.952593,50.3652069 C136.832383,50.3652069 135.940904,49.4504052 135.940904,48.329069 L135.940904,48.329069 Z M136.193082,51.349375 L139.713147,51.349375 L139.713147,62.4005345 L136.193082,62.4005345 L136.193082,51.349375 Z" id="Fill-29" fill="#FFFFFF"></path>
                    <path d="M140.972472,56.8632198 C140.972472,53.4084612 143.555208,51.0750388 147.007019,51.0750388 C149.38447,51.0750388 150.869921,52.1270086 151.533189,53.1111767 L149.246918,55.2391078 C148.812902,54.5986422 148.104304,54.1860948 147.166974,54.1860948 C145.703928,54.1860948 144.583717,55.1932112 144.583717,56.8632198 C144.583717,58.5342716 145.703928,59.5638147 147.166974,59.5638147 C148.104304,59.5638147 148.812902,59.1064138 149.246918,58.4888966 L151.533189,60.6392543 C150.869921,61.6004741 149.38447,62.6753922 147.007019,62.6753922 C143.555208,62.6753922 140.972472,60.3414483 140.972472,56.8632198" id="Fill-30" fill="#FFFFFF"></path>
                    <path d="M151.598318,56.8632198 C151.598318,53.6608922 154.021619,51.0750388 157.472388,51.0750388 C160.74236,51.0750388 163.118769,53.4767845 163.118769,57.2298707 L163.118769,57.9850776 L155.255414,57.9850776 C155.460699,59.0140991 156.421474,59.9528922 158.021551,59.9528922 C158.798404,59.9528922 160.146825,59.6091897 160.764764,59.0140991 L162.250215,61.210875 C161.15293,62.1950431 159.324643,62.6753922 157.632864,62.6753922 C154.226904,62.6753922 151.598318,60.4561897 151.598318,56.8632198 L151.598318,56.8632198 Z M157.472388,53.7980603 C155.941607,53.7980603 155.347114,54.8959267 155.210084,55.6965086 L159.758659,55.6965086 C159.666958,54.918875 159.095911,53.7980603 157.472388,53.7980603 L157.472388,53.7980603 Z" id="Fill-31" fill="#FFFFFF"></path>
                    <path d="M163.438159,60.9829569 L164.901206,58.5566983 C165.723909,59.2894784 167.483942,60.0212155 168.787033,60.0212155 C169.838988,60.0212155 170.273005,59.678556 170.273005,59.1747371 C170.273005,57.7326466 163.849771,59.1517888 163.849771,54.7128621 C163.849771,52.7679957 165.518103,51.0750388 168.581227,51.0750388 C170.43296,51.0750388 172.010633,51.6696078 173.199098,52.5390345 L171.850157,54.8735 C171.187409,54.2319914 169.929647,53.6608922 168.604152,53.6608922 C167.780928,53.6608922 167.209881,54.0035517 167.209881,54.4614741 C167.209881,55.7429267 173.633114,54.4839009 173.633114,59.0140991 C173.633114,61.120125 171.781381,62.6753922 168.604152,62.6753922 C166.638313,62.6753922 164.60422,62.0119784 163.438159,60.9829569" id="Fill-32" fill="#FFFFFF"></path>
                    <path d="M0.261035047,68.4307155 L173.833189,68.4307155 L173.833189,69.3684655 L0.261035047,69.3684655 L0.261035047,68.4307155 Z" id="Fill-33" fill="#FFFFFF"></path>
                    <path d="M1.6631215,81.0277543 L1.6631215,76.5158103 L0.0328247664,76.5158103 L0.0328247664,75.4758362 L4.48084112,75.4758362 L4.48084112,76.5158103 L2.85888084,76.5158103 L2.85888084,81.0277543 L1.6631215,81.0277543" id="Fill-34" fill="#FFFFFF"></path>
                    <path d="M11.7205257,81.0277543 L10.0313528,78.8054224 L9.59681542,79.3212371 L9.59681542,81.0277543 L8.40991355,81.0277543 L8.40991355,75.4758362 L9.59681542,75.4758362 L9.59681542,77.9563362 L11.5699486,75.4758362 L13.0335164,75.4758362 L10.8175841,78.0809871 L13.1835724,81.0277543 L11.7205257,81.0277543" id="Fill-35" fill="#FFFFFF"></path>
                    <path d="M16.3894579,78.2557069 C16.3894579,76.5491897 17.6847336,75.3845647 19.3572336,75.3845647 C20.5863388,75.3845647 21.297021,76.0500647 21.6898762,76.7411207 L20.6697033,77.2407672 C20.4357617,76.7901466 19.9340117,76.4328836 19.3572336,76.4328836 C18.3453972,76.4328836 17.6097056,77.2073879 17.6097056,78.2557069 C17.6097056,79.305069 18.3453972,80.0785302 19.3572336,80.0785302 C19.9340117,80.0785302 20.4357617,79.7290905 20.6697033,79.2716897 L21.6898762,79.7624698 C21.2886846,80.4535259 20.5863388,81.1278922 19.3572336,81.1278922 C17.6847336,81.1278922 16.3894579,79.9622241 16.3894579,78.2557069" id="Fill-36" fill="#FFFFFF"></path>
                    <path d="M31.126215,75.4758362 L32.3136379,75.4758362 L32.3136379,81.0282759 L31.126215,81.0282759 L31.126215,75.4758362 Z" id="Fill-37" fill="#FFFFFF"></path>
                    <path d="M40.5813107,81.0277543 L37.9225047,77.4066207 L37.9225047,81.0277543 L36.7350818,81.0277543 L36.7350818,75.4758362 L37.9558505,75.4758362 L40.5396285,78.9634526 L40.5396285,75.4758362 L41.7265304,75.4758362 L41.7265304,81.0277543 L40.5813107,81.0277543" id="Fill-38" fill="#FFFFFF"></path>
                    <path d="M46.1599579,81.0277543 L46.1599579,75.4758362 L48.3586963,75.4758362 C50.1067453,75.4758362 51.3186565,76.582569 51.3186565,78.2557069 C51.3186565,79.9288448 50.1067453,81.0277543 48.3586963,81.0277543 L46.1599579,81.0277543 L46.1599579,81.0277543 Z M50.1067453,78.2557069 C50.1067453,77.2741466 49.5049579,76.5158103 48.3586963,76.5158103 L47.3473808,76.5158103 L47.3473808,79.9867371 L48.3586963,79.9867371 C49.4627547,79.9867371 50.1067453,79.1960647 50.1067453,78.2557069 L50.1067453,78.2557069 Z" id="Fill-39" fill="#FFFFFF"></path>
                    <path d="M55.4191472,78.8132457 L55.4191472,75.4758362 L56.623243,75.4758362 L56.623243,78.7715216 C56.623243,79.5465474 57.0749743,80.0785302 57.9357126,80.0785302 C58.796972,80.0785302 59.2398458,79.5465474 59.2398458,78.7715216 L59.2398458,75.4758362 L60.4527991,75.4758362 L60.4527991,78.8054224 C60.4527991,80.1864914 59.6327009,81.1278922 57.9357126,81.1278922 C56.2382033,81.1278922 55.4191472,80.1781466 55.4191472,78.8132457" id="Fill-40" fill="#FFFFFF"></path>
                    <path d="M64.4318902,80.2449052 L65.0753598,79.3462716 C65.468215,79.754125 66.0793808,80.0957414 66.8478972,80.0957414 C67.5002243,80.0957414 67.8180514,79.7958491 67.8180514,79.4797888 C67.8180514,78.4971853 64.6074766,79.1715517 64.6074766,77.0822155 C64.6074766,76.1580259 65.4103808,75.3929095 66.7228505,75.3929095 C67.6085981,75.3929095 68.3448107,75.6589009 68.8965794,76.1663707 L68.2364369,77.0326681 C67.7847056,76.6154267 67.1829182,76.4245388 66.6144766,76.4245388 C66.1038692,76.4245388 65.8199089,76.6493276 65.8199089,76.9820776 C65.8199089,77.8650647 69.0216262,77.2741466 69.0216262,79.3462716 C69.0216262,80.3612112 68.2947921,81.1278922 66.7895421,81.1278922 C65.7193505,81.1278922 64.9497921,80.7690647 64.4318902,80.2449052" id="Fill-41" fill="#FFFFFF"></path>
                    <path d="M74.3689369,81.0277543 L74.3689369,76.5158103 L72.7381192,76.5158103 L72.7381192,75.4758362 L77.1866565,75.4758362 L77.1866565,76.5158103 L75.5641752,76.5158103 L75.5641752,81.0277543 L74.3689369,81.0277543" id="Fill-42" fill="#FFFFFF"></path>
                    <path d="M84.2674276,81.0277543 L83.1717056,79.0547241 L82.3021098,79.0547241 L82.3021098,81.0277543 L81.1152079,81.0277543 L81.1152079,75.4758362 L83.7234743,75.4758362 C84.8853668,75.4758362 85.5965701,76.2331293 85.5965701,77.2647586 C85.5965701,78.2473621 84.9775888,78.7715216 84.3758014,78.9133836 L85.6299159,81.0277543 L84.2674276,81.0277543 L84.2674276,81.0277543 Z M84.3836168,77.2647586 C84.3836168,76.7995345 84.0246285,76.5158103 83.5478879,76.5158103 L82.3021098,76.5158103 L82.3021098,78.0142284 L83.5478879,78.0142284 C84.0246285,78.0142284 84.3836168,77.7315474 84.3836168,77.2647586 L84.3836168,77.2647586 Z" id="Fill-43" fill="#FFFFFF"></path>
                    <path d="M89.7866776,75.4758362 L90.9741005,75.4758362 L90.9741005,81.0282759 L89.7866776,81.0282759 L89.7866776,75.4758362 Z" id="Fill-44" fill="#FFFFFF"></path>
                    <path d="M99.216243,81.0277543 L98.8734065,80.086875 L96.4824089,80.086875 L96.131236,81.0277543 L94.7770841,81.0277543 L96.9341402,75.4758362 L98.4221963,75.4758362 L100.570395,81.0277543 L99.216243,81.0277543 L99.216243,81.0277543 Z M97.6781682,76.6576724 L96.8080514,79.0463793 L98.547764,79.0463793 L97.6781682,76.6576724 L97.6781682,76.6576724 Z" id="Fill-45" fill="#FFFFFF"></path>
                    <path d="M104.38432,81.0277543 L104.38432,75.4758362 L105.571743,75.4758362 L105.571743,79.9867371 L107.929395,79.9867371 L107.929395,81.0277543 L104.38432,81.0277543" id="Fill-46" fill="#FFFFFF"></path>
                    <path d="M121.303664,81.0277543 L121.303664,78.6974612 L118.670388,78.6974612 L118.670388,81.0277543 L117.482965,81.0277543 L117.482965,75.4758362 L118.670388,75.4758362 L118.670388,77.656444 L121.303664,77.656444 L121.303664,75.4758362 L122.499423,75.4758362 L122.499423,81.0277543 L121.303664,81.0277543" id="Fill-47" fill="#FFFFFF"></path>
                    <path d="M126.642638,78.2557069 C126.642638,76.582569 127.873306,75.3845647 129.5531,75.3845647 C131.242273,75.3845647 132.471379,76.582569 132.471379,78.2557069 C132.471379,79.9288448 131.242273,81.1278922 129.5531,81.1278922 C127.873306,81.1278922 126.642638,79.9288448 126.642638,78.2557069 L126.642638,78.2557069 Z M131.250089,78.2557069 C131.250089,77.2157328 130.581089,76.4328836 129.5531,76.4328836 C128.525112,76.4328836 127.863928,77.2157328 127.863928,78.2557069 C127.863928,79.2878578 128.525112,80.0785302 129.5531,80.0785302 C130.581089,80.0785302 131.250089,79.2878578 131.250089,78.2557069 L131.250089,78.2557069 Z" id="Fill-48" fill="#FFFFFF"></path>
                    <path d="M136.607299,81.0277543 L136.607299,75.4758362 L137.794722,75.4758362 L137.794722,79.9867371 L140.151853,79.9867371 L140.151853,81.0277543 L136.607299,81.0277543" id="Fill-49" fill="#FFFFFF"></path>
                    <path d="M144.114271,81.0277543 L144.114271,75.4758362 L146.312488,75.4758362 C148.060537,75.4758362 149.272449,76.582569 149.272449,78.2557069 C149.272449,79.9288448 148.060537,81.0277543 146.312488,81.0277543 L144.114271,81.0277543 L144.114271,81.0277543 Z M148.060537,78.2557069 C148.060537,77.2741466 147.45875,76.5158103 146.312488,76.5158103 L145.301694,76.5158103 L145.301694,79.9867371 L146.312488,79.9867371 C147.416547,79.9867371 148.060537,79.1960647 148.060537,78.2557069 L148.060537,78.2557069 Z" id="Fill-50" fill="#FFFFFF"></path>
                    <path d="M153.420874,75.4758362 L154.608297,75.4758362 L154.608297,81.0282759 L153.420874,81.0282759 L153.420874,75.4758362 Z" id="Fill-51" fill="#FFFFFF"></path>
                    <path d="M162.875449,81.0277543 L160.216643,77.4066207 L160.216643,81.0277543 L159.029741,81.0277543 L159.029741,75.4758362 L160.250509,75.4758362 L162.833766,78.9634526 L162.833766,75.4758362 L164.021189,75.4758362 L164.021189,81.0277543 L162.875449,81.0277543" id="Fill-52" fill="#FFFFFF"></path>
                    <path d="M168.152942,78.2557069 C168.152942,76.4996422 169.491463,75.3845647 171.121759,75.3845647 C172.283652,75.3845647 173.011528,75.9671379 173.429393,76.6248147 L172.443086,77.157319 C172.19143,76.7666767 171.71521,76.4328836 171.121759,76.4328836 C170.109402,76.4328836 169.374231,77.2073879 169.374231,78.2557069 C169.374231,79.305069 170.109402,80.0785302 171.121759,80.0785302 C171.615173,80.0785302 172.083056,79.8626078 172.309182,79.6545086 L172.309182,78.9879655 L170.837278,78.9879655 L170.837278,77.9563362 L173.496084,77.9563362 L173.496084,80.086875 C172.928164,80.7200388 172.133596,81.1357155 171.121759,81.1357155 C169.491463,81.1357155 168.152942,80.0034267 168.152942,78.2557069" id="Fill-53" fill="#FFFFFF"></path>
                </g>
            </g>
        </g>
    </g>
</svg>